<svg xmlns="http://www.w3.org/2000/svg" viewBox="0 0 9.663 15.80473"><g id="fb786fdf-5ef3-4fe9-b1b1-bde56b34937a" data-name="Layer 2"><g id="f379362b-a805-4794-aec4-fcc81437761e" data-name="Layer 1"><path d="M1.7432,15.76609l6.2353.03864c1.14578-.03314,1.75378-.54788,1.67821-1.67471-.06-1.09-.66-7.81-.76-8.82a1.58407,1.58407,0,0,0-1.08-1.5V3.25a.86119.86119,0,0,0,.3-.69v-.8a1.18791,1.18791,0,0,0-.46-.96,3.37752,3.37752,0,0,0-1.47-.66,8.04793,8.04793,0,0,0-1.36-.14,7.925,7.925,0,0,0-1.34.14,3.36619,3.36619,0,0,0-1.48.66,1.21739,1.21739,0,0,0-.46.96v.8a.86813.86813,0,0,0,.31.69v.56a1.594,1.594,0,0,0-1.08,1.5c-.1,1.01-.7,7.73-.77,8.82m2.34-12.37a.39559.39559,0,0,1,.17-.34,2.40012,2.40012,0,0,1,1.13-.49,7.217,7.217,0,0,1,1.18-.13,7.21837,7.21837,0,0,1,1.2.13,2.45743,2.45743,0,0,1,1.12.48.42556.42556,0,0,1,.17.35v.88a.37629.37629,0,0,1-.15.02h-4.66c-.12,0-.15-.02-.16-.1Zm4.67,1.7v.32h-4.36V3.46Zm1.62,11.45a.99489.99489,0,0,1-.74.28h-6.13a.99485.99485,0,0,1-.74-.28.9585.9585,0,0,1-.22-.73c.07-1.08.67-7.78.77-8.79.03-.32.19-.81.51-.81h5.49c.32,0,.49.49.52.81.1,1.01.69995,7.71.77,8.79A.97592.97592,0,0,1,8.63669,14.91Zm-8.63-.78c-.08024,1.15652.56591,1.64883,1.73651,1.63607" style="fill:#231f20"/></g></g></svg>