<svg id="Layer_1" data-name="Layer 1" xmlns="http://www.w3.org/2000/svg" viewBox="0 0 100 100"><title>Artboard 3</title><path d="M18.5,47.1c1.1-2.1,6-8.5,8-4,.7,1.6.5,3.6.4,5.4a13.5,13.5,0,0,0,.4,5.3,5.8,5.8,0,0,0,3.1,4c2,.7,3.5-1.1,4.7-2.5a64.1,64.1,0,0,0,7.4-10.5c.8-1.3,3.1-3.7,4.2-1.4s.7,4.1.8,6a15.5,15.5,0,0,0,1.4,6c.8,1.6,2.3,3.4,4.3,3.3s3.5-1.9,4.5-3.2a21.7,21.7,0,0,0,3.1-5.3,45.3,45.3,0,0,1,2.6-6c.5-.9,2.5-3.6,3.6-2.4a7.6,7.6,0,0,1,.9,1.8l.6,1.8c.4,1.2.7,2.4,1,3.5s1.4,4.4,3,5.6,4.3-.2,5.5-1.9a18.3,18.3,0,0,0,2.8-6c.5-1.8-2.4-2.6-2.9-.8a14.4,14.4,0,0,1-2.5,5.3c-.2.2-.6.8-1,.9s-.5-.4-.7-.7a9.9,9.9,0,0,1-1.2-3c-.6-2-1.2-4.1-2-6.1s-1.5-3.6-3.8-3.6c-4.1-.2-6.2,4.3-7.5,7.5a45.9,45.9,0,0,1-2.7,6c-.6.9-2.7,4.1-3.9,3.3s-1.9-3.9-2.1-5.5a46.2,46.2,0,0,0-.6-6.5,5.1,5.1,0,0,0-3.3-3.8,5.6,5.6,0,0,0-5.2,1.7A43.2,43.2,0,0,0,38,46.6a47.4,47.4,0,0,1-3.7,5.1c-.7.9-1.5,1.7-2.2,2.5s-.6.8-.9.8-.4-.6-.5-.8-.9-3.4-.9-5c.2-3.5.5-9.3-3.9-10.6-2.1-.6-4.4.7-6,2a18,18,0,0,0-4,5c-.9,1.7,1.7,3.2,2.6,1.5Z"/></svg>