<svg xmlns="http://www.w3.org/2000/svg" viewBox="0 0 496.33333 324.84871"><g id="Layer_2" data-name="Layer 2"><g id="fight"><g id="background"><rect width="496.33333" height="324.84871" style="fill:#f7f3e8"/></g><g id="ship-2" data-name="ship"><g id="background-2" data-name="background"><path d="M337.82384,163.30507,325.938,166.19028l-.38466.09287-4.86844,1.1806-1.58523.38471-3.27656.79594-5.60461,1.3597-.02656.00664a5.744,5.744,0,0,0-.7893.82909,4.80675,4.80675,0,0,0-.49081.82245,2.12215,2.12215,0,0,0-.10611.25868c-.03979.07959-.06635.16582-.0995.252a2.01691,2.01691,0,0,0-.07959.26528,1.71771,1.71771,0,0,0-.05972.26533c-.02651.13266-.04639.26528-.06631.39794a3.608,3.608,0,0,0-.01987.37807c-.00664.126-.00664.25205-.00664.37807v.07959a.32252.32252,0,0,0,.00664.07959,1.78576,1.78576,0,0,0,.01987.26533c.00664.09946.01992.199.03316.29848.01328.11274.03315.23213.05307.34487a2.47653,2.47653,0,0,0,.05971.30512c.01988.09287.0398.19234.06632.2852v.01988a.02319.02319,0,0,0,.00663.01328,8.86649,8.86649,0,0,0,.27857.94183c.11938.35156.25868.70971.41786,1.0679.01992.06631.05308.13262.07959.199h.00664c.00664.01987.01328.03315.01988.05307.073.15254.14594.31172.21889.4709.07295.15258.14594.30512.22553.45765.01324.01992.01988.04644.03315.06636.16582.16581.33164.33823.49082.504a.75869.75869,0,0,1,.09951.10614h.00664c.15917.16582.31835.33828.47089.5041.11275.11938.21889.24541.33164.36479.14594.16582.29184.325.43114.48417.17906.20562.35815.41123.524.61684.11939.1393.23217.27861.34492.41787.23876.29184.47089.59032.68314.88216.09287.11938.1791.23877.26533.35815h.00664c.03979.05307.07295.09951.1061.15258.13931.199.27857.39795.41123.59028.1393.19238.26532.39135.39135.59032.252.39135.49081.7893.7097,1.18065.07295.13266.13926.25864.21225.38467.15918.29848.30508.597.451.89544.053.126.11275.252.17246.37807.07959.179.15918.36479.23213.54388q.17907.44766.33828.89541c.01987.05971.03979.126.05967.18573.03979.11938.07959.23213.11278.34487.05967.20562.11939.41123.17242.6102.01992.073.03983.15258.05971.22553.03316.126.06631.25205.09287.37807.03316.15254.06631.29848.09287.44438.01987.11275.03979.23217.05967.35156a.44706.44706,0,0,0,.01328.09282c0,.01992.00664.03984.00664.05308.053.33163.09282.66327.11938.98827.01324.16581.02652.33163.03316.49085a13.817,13.817,0,0,1-.03316,1.65818c-.01328.16582-.02656.33164-.05307.49745-.01988.16582-.04644.33164-.06631.49082a1.91155,1.91155,0,0,1-.02656.19233c-.01324.09287-.03316.18574-.053.27857a.20488.20488,0,0,0-.01328.05307c-.02652.15254-.05971.30512-.09287.45766-.02651.126-.05967.25868-.09287.38471,0,.01324-.0066.01987-.01323.03315a11.62533,11.62533,0,0,1-.37807,1.24032,16.03033,16.03033,0,0,1-.85565,1.97653c-.0066.01328-.01324.01992-.01988.0332-.06631.126-.13266.25865-.21225.38467-.11274.20561-.23213.41786-.35151.62348-.02656.05971-.06635.11274-.09951.17245-.08623.14594-.1791.29848-.272.44438-.15918.24541-.31836.49082-.49082.72963-.126.18569-.27856.36479-.41122.55048-.05968.07963-.11939.15258-.17906.22553-.10615.15254-.21889.30512-.34491.4643-.43779.55713-.91532,1.10765-1.42605,1.65818-.11939.13266-.23877.25869-.3648.38471-.37807.398-.776.78926-1.18724,1.1806-.08623.08623-.17909.17246-.272.25869l-36.14831.06631h-1.06786l-58.67963.11274q.06958-.20889.13926-.43774c.11938-.36479.23217-.75614.35155-1.1806.03316-.126.06631-.252.09947-.38471.11938-.50409.24541-1.05462.36483-1.65818.07959-.39135.16582-.80257.23877-1.24031.04643-.23881.09287-.47758.13266-.72963.01988-.1459.04639-.29184.06631-.44438.05971-.37807.11939-.76937.17246-1.1806a.05986.05986,0,0,0,.00664-.0332c.09283-.61683.17905-1.27347.26528-1.97653.0398-.35156.08623-.71635.126-1.08778h.00664a1.7455,1.7455,0,0,0-.01328-.18569,3.61888,3.61888,0,0,0-.02652-.38471c-.01992-.23213-.03979-.4643-.073-.68979a.50146.50146,0,0,0-.00664-.09951c-.02652-.19233-.05307-.37807-.08623-.5704-.02651-.20561-.06631-.41123-.1061-.6102-.0332-.15922-.06635-.3184-.10615-.47094a.02318.02318,0,0,1-.00664-.01328c-.07295-.31171-.15918-.61683-.252-.91531a.02321.02321,0,0,1-.0066-.01324c-.02656-.08623-.05308-.16582-.07963-.24541-.02652-.06635-.0464-.13266-.06631-.19237-.05308-.1459-.11275-.29184-.17246-.43774s-.11939-.28521-.1857-.43115c-.01991-.04643-.04643-.09287-.06635-.1393-.053-.11938-.11274-.23213-.17246-.34487l-.03979-.07959a3.61046,3.61046,0,0,0-.19233-.35156c-.09287-.15917-.1857-.31835-.28521-.47089a4.08944,4.08944,0,0,0-.23876-.35156c-.00664-.01327-.01328-.01987-.01992-.03315-.08623-.13266-.1857-.26533-.2852-.39135-.11275-.13926-.22553-.27856-.33828-.41123-.1061-.11938-.20561-.23212-.31172-.34487-.05971-.06635-.11938-.126-.17909-.18573-.13931-.15254-.28521-.29185-.43775-.43115-.03979-.03979-.08622-.07959-.13266-.11938-.14594-.126-.29848-.252-.451-.37807-.06635-.053-.13266-.10611-.199-.15254-.13262-.10611-.27193-.20561-.41783-.30512a.69207.69207,0,0,0-.073-.053h-.00664l-.35815-.23881a14.54469,14.54469,0,0,0-2.87857-1.41937h-.00664c-.272-.10615-.54389-.20561-.82909-.29184-.41787-.00664-.82909-.01328-1.23372-.03316s-.80253-.03979-1.19388-.06635l-.17906-.01988c-.13266-.00664-.26532-.01992-.39134-.03319-.19234-.0066-.39135-.02652-.577-.0464q-1.15405-.11945-2.2485-.31839c-.179-.03316-.35815-.06632-.53061-.09947-.15918-.02656-.31836-.05307-.47094-.09287-.18569-.03979-.37143-.08623-.55048-.126a1.98,1.98,0,0,1-.21225-.05308c-.24541-.05307-.49082-.11938-.72963-.17905-.31172-.08623-.61683-.1791-.91532-.272-.21221-.06631-.41782-.13266-.62347-.20561-.1857-.06631-.378-.13266-.56377-.20561-.199-.07295-.3913-.1459-.577-.22553-.07295-.03316-.1459-.05967-.21889-.09283-.11939-.04643-.23877-.09951-.35151-.15258-.25869-.11274-.51074-.23213-.75614-.35151s-.49746-.252-.73623-.37807c-.26532-.1393-.51737-.29184-.76941-.44438-.252-.15918-.5041-.3184-.7495-.48422h-.0066c-.10615-.07295-.21889-.15254-.325-.22549-.19233-.13266-.378-.272-.56376-.41786a.95846.95846,0,0,1-.09951-.07295c-.17242-.13266-.34488-.272-.51069-.41787-.126-.10614-.252-.21225-.37807-.33163a2.30715,2.30715,0,0,1-.19238-.16582c0-.00664-.0066-.00664-.01324-.01328-.11938-.09951-.23876-.21225-.35155-.325-.05967-.05971-.126-.11938-.18569-.18573s-.126-.13262-.18574-.19234c-.09287-.09286-.19233-.199-.2852-.29848l-.09287-.09286c-.19233-.21221-.38467-.42447-.55712-.65l-.199-.23876c-.01328-.01328-.01992-.02652-.03319-.0398-.0398-.05307-.08623-.10615-.11939-.15918a14.12555,14.12555,0,0,1-.8556-1.18064c-.06632-.09947-.13267-.199-.19234-.29848-.126-.1857-.23881-.37143-.35155-.56377-.04644-.06631-.07959-.13266-.11939-.199-.14594-.252-.29184-.51073-.43114-.78266-.03979-.08622-.08623-.16581-.126-.252-.07295-.1393-.13926-.27861-.20561-.42451a7.76258,7.76258,0,0,1-.34488-.75614.938.938,0,0,1-.05307-.11938c-.07959-.17246-.15254-.35151-.21889-.524-.07295-.1791-.1459-.35819-.20562-.53725-.03979-.08623-.06631-.17246-.09946-.25868-.07963-.21889-.15922-.44438-.23217-.66991-.07295-.199-.13266-.39795-.19234-.597-.04643-.126-.07958-.25864-.11938-.3913q-.14927-.49746-.2786-1.01483c-.0066-.0066-.0066-.0066-.0066-.01324-.02656-.11278-.05307-.21889-.07963-.33163-.01988-.073-.0398-.15258-.053-.22553-.04644-.1857-.08623-.37807-.126-.57041l-.01991-.07959c-.01988-.0995-.04644-.199-.05968-.30512-.02655-.1061-.04643-.21225-.06635-.31835-.03979-.21225-.07959-.42451-.11274-.6434a1.23535,1.23535,0,0,1-.02652-.16582.1457.1457,0,0,1-.00664-.053.24163.24163,0,0,1-.01328-.09287c-.03315-.16581-.05967-.33163-.08623-.49745-.02651-.16582-.04643-.33827-.07295-.50409-.05971-.451-.11938-.902-.16581-1.36634a2.91379,2.91379,0,0,1,2.56022-3.35615h41.78612a2.94267,2.94267,0,0,1,2.69952,3.449,29.68848,29.68848,0,0,1,6.95771,1.33978,20.96213,20.96213,0,0,1,2.35461.93523c.06635.02652.13266.05968.199.09287.37143.16582.73622.35152,1.09438.55049s.71634.41122,1.06126.63011c.199.126.3913.252.58368.38471.36479.25205.72294.51074,1.06786.79594a16.32309,16.32309,0,0,1,1.52551,1.3597,15.47884,15.47884,0,0,1,1.2138,1.32654c.07959.09287.15918.19233.23213.2852.01328.01328.02656.03316.03979.04644l.199.25868c.29184.37807.5638.76938.82909,1.1806q.24873.36811.47757.75614c.08623.13931.16582.27857.24541.42451.22553.39794.44438.80917.65,1.23367.31839.65.61683,1.33319.88216,2.04289l.07959.199c.126.31835.23877.65.34491.98162q.11938.32835.21885.67655c.05308.16582.10615.33164.14594.5041.1459.47089.27193.96175.39135,1.4658.13262.53725.24541,1.08778.35815,1.65818.00664.05307.01988.09951.02652.15258.07295.38467.1393.776.199,1.1806.06635.38471.11943.78266.17246,1.18065h21.77522a8.86857,8.86857,0,0,1-.06631-1.18065c0-.1061,0-.20561.0066-.31171.00664-.10615.01328-.21226.01992-.31176a.90194.90194,0,0,1,.01988-.19234,1.6388,1.6388,0,0,1,.01991-.17909,1.79639,1.79639,0,0,1,.02652-.1857c.00664-.05307.01992-.09951.02656-.15258a8.138,8.138,0,0,1,.2852-1.15408c.05307-.16582.11938-.33828.18569-.5041.04644-.11274.09287-.21885.13931-.33163.06631-.13926.13266-.27193.20561-.41123.05971-.11938.126-.24541.199-.36479s.14594-.23877.22553-.35815c.10611-.16582.22549-.33828.35151-.5041.17246-.22553.35156-.451.55053-.67655a12.21579,12.21579,0,0,1,.96839-.98162l.21885-.199h.00664a.74458.74458,0,0,1,.13266-.11938c.19234-.16582.39135-.33164.60356-.49086a19.81206,19.81206,0,0,1,2.149-1.43265q1.06455-.62679,2.348-1.23367c.30512-.1393.61683-.2852.93519-.42451.58368-.252,1.20716-.50409,1.85719-.75614.90868-.35151,1.877-.68978,2.91838-1.02806l.597-.15254,1.00818-.25868,6.48014-1.65818,5.31281-1.3597,3.11075-.79594,1.50564-.38471,4.60971-1.1806.36483-.09287,23.65889-6.05567,2.90513,3.16382Z" style="fill:#5f3d3a"/><path d="M221.62384,166.87345c19.37188-.72256,25.77975,7.20116,26.85065,18.68438l-28.32391,1.47688Z" style="fill:#68574c"/><path d="M216.25938,197.01914c-.0398.37143-.08623.73622-.126,1.08778-.08623.70306-.17245,1.3597-.26528,1.97653a.05986.05986,0,0,1-.00664.0332c-.05307.41123-.11275.80253-.17246,1.1806-.01992.15254-.04643.29848-.06631.44438-.03979.25205-.08623.49082-.13266.72963-.073.43774-.15918.849-.23877,1.24031-.11942.60356-.24545,1.15409-.36483,1.65818-.03316.13266-.06631.25869-.09947.38471-.11938.42446-.23217.81581-.35155,1.1806q-.06966.22881-.13926.43774l-11.8991.01992c.05967-.15254.11938-.30512.1857-.45766.15917-.40458.33163-.79593.51737-1.1806.053-.13266.11938-.25869.17905-.38471.272-.5704.56381-1.12757.88217-1.65818.25868-.43114.5306-.84237.81581-1.24031.17245-.252.35819-.49082.54388-.72963.11939-.15254.23877-.29844.3648-.44438a15.8087,15.8087,0,0,1,1.12757-1.1806l.03315-.0332a13.32536,13.32536,0,0,1,2.7526-1.97653,13.85764,13.85764,0,0,1,2.318-.98922,2.08849,2.08849,0,0,1,.64331-.09856Z" style="fill:#7c5d49"/></g><path id="middleground" d="M337.8172,163.29843l-11.919,2.89185-.38467.09287-4.86179,1.1806-1.58523.38471-3.27657.79594-5.60465,1.3597a5.10014,5.10014,0,0,0-.78266.83573,4.28419,4.28419,0,0,0-.50409.82245,2.12206,2.12206,0,0,0-.1061.25868,1.61342,1.61342,0,0,0-.08623.252,2.01691,2.01691,0,0,0-.07959.26528,1.71771,1.71771,0,0,0-.05972.26533c-.02651.13266-.04639.26528-.06631.39794a3.608,3.608,0,0,0-.01987.37807,1.8022,1.8022,0,0,0-.01328.37807.32252.32252,0,0,0,.00664.07959.32252.32252,0,0,0,.00664.07959,1.78576,1.78576,0,0,0,.01987.26533,1.52562,1.52562,0,0,0,.03316.29848c.01328.11274.03315.23213.05307.34487a2.47653,2.47653,0,0,0,.05971.30512,2.17919,2.17919,0,0,0,.05968.2852.02427.02427,0,0,0,.00664.01988.02319.02319,0,0,0,.00663.01328,8.86649,8.86649,0,0,0,.27857.94183c.11938.35156.25868.70971.41786,1.0679.01992.06631.05308.13262.07959.199h.00664c.00664.01987.01328.03315.01988.05307.073.15254.14594.31172.21889.4709.07295.15258.14594.30512.22553.45765.01324.01992.01988.04644.03315.06636.16582.16581.33164.33823.49082.504a.75869.75869,0,0,1,.09951.10614h.00664c.15917.16582.31835.33828.47089.5041.11275.11938.21889.24541.33164.36479.14594.16582.29184.325.43114.48417.17906.20562.35815.41123.524.61684.11939.1393.23217.27861.34492.41787.23876.29184.47089.59032.68314.88216.09287.11938.1791.23877.26533.35815h.00664c.03979.05307.07295.09951.1061.15258.13931.199.27857.39795.41123.59028.1393.19238.26532.39135.39135.59032.252.39135.49081.7893.7097,1.18065.07295.13266.13926.25864.21225.38467.15918.29848.30508.597.451.89544.053.126.11275.252.17246.37807.07959.179.15918.36479.23213.54388q.17907.44766.33828.89541c.01987.05971.03979.126.05967.18573.03979.11938.07959.23213.11278.34487.05967.20562.11939.41123.17242.6102.01992.073.03983.15258.05971.22553.03316.126.06631.25205.09287.37807.02652.15254.05967.29848.08623.44438.01988.11939.03979.23877.05967.35156h.00664a.44706.44706,0,0,0,.01328.09282c0,.01992.00664.03984.00664.05308.053.33163.09282.66327.11938.98827.01324.16581.01988.325.02652.49085a13.77886,13.77886,0,0,1-.03316,1.65818c-.01328.16582-.02651.33164-.04643.49745s-.04644.33164-.06631.49082c-.01328.06631-.01992.13262-.0332.19233-.01324.09287-.03315.18574-.04639.27857a.20488.20488,0,0,0-.01328.05307l-.09951.45766c-.02651.126-.05967.25868-.09283.38471,0,.01324-.00663.01987-.00663.03315-.11279.41787-.23881.82909-.39135,1.24032a15.075,15.075,0,0,1-.85561,1.97653c-.00664.01328-.01328.01992-.01992.0332-.06631.126-.13266.25865-.199.38467-.11274.20561-.23213.41786-.35151.62348-.03984.05971-.073.11274-.10615.17245-.09287.14594-.18569.29848-.2852.44438-.15918.24541-.31836.49082-.49082.72963-.126.18569-.25868.37143-.39134.55048-.05968.07963-.11939.15258-.17906.22553-.11278.15918-.23217.31172-.35819.4643-.44438.55713-.922,1.11429-1.43929,1.65818-.11938.126-.23877.25869-.36479.38471-.37143.398-.76942.78926-1.18064,1.1806-.08623.07959-.17246.16582-.25869.24541l-36.14167.07959h-1.06786l-58.68627.13266c0-.00664.00664-.01328.00664-.01992q.06958-.20889.13926-.43774c.11938-.36479.23217-.75614.35155-1.1806.03316-.126.06631-.252.09947-.38471.11938-.50409.24541-1.05462.36483-1.65818.07959-.39135.16582-.80257.23877-1.24031.04643-.23881.09287-.47758.13266-.72963.01988-.1459.04639-.29184.06631-.44438.05971-.37807.11939-.76937.17246-1.1806a.05986.05986,0,0,0,.00664-.0332c.09283-.61683.17905-1.27347.26528-1.97653.0398-.35156.08623-.71635.126-1.08778v-.00664c-.00664-.05967-.00664-.11938-.01324-.179-.00664-.13266-.01328-.25869-.02656-.38471-.01988-.23213-.03979-.4643-.06631-.68979a.51124.51124,0,0,0-.01328-.09951c-.01988-.19233-.04643-.37807-.07959-.5704-.03315-.20561-.07295-.41123-.11274-.6102-.03316-.15922-.06635-.31176-.09951-.47094a.02318.02318,0,0,1-.00664-.01328c-.07295-.31171-.15918-.61683-.252-.91531a.02321.02321,0,0,1-.0066-.01324c-.02656-.07959-.05308-.16582-.08623-.24541-.01992-.06635-.04644-.13266-.05971-.19237-.05308-.1459-.11275-.29184-.17246-.43774s-.11939-.28521-.1857-.43115c-.01991-.04643-.04643-.09287-.06635-.1393-.053-.11938-.11274-.23213-.17246-.34487l-.03979-.07959c-.05967-.11939-.126-.23881-.19233-.35156-.09287-.15917-.1857-.31835-.28521-.47089a4.08944,4.08944,0,0,0-.23876-.35156c-.00664-.01327-.01328-.01987-.01992-.03315-.08623-.13266-.1857-.26533-.2852-.39135-.11275-.13926-.22553-.27856-.33828-.41123-.1061-.11938-.20561-.23212-.31172-.34487-.05971-.06635-.11938-.126-.17909-.18573-.13931-.1459-.28521-.29185-.43775-.43115-.03979-.03979-.08622-.07959-.13266-.11938-.14594-.126-.29848-.252-.451-.37807-.06635-.053-.13266-.10611-.199-.15254-.13262-.10611-.27193-.20561-.41783-.30512a.69207.69207,0,0,0-.073-.053h-.00664l-.35815-.23881a14.54469,14.54469,0,0,0-2.87857-1.41937h-.00664c-.272-.10615-.54389-.20561-.82909-.29184l-.00664-.00664c-.41123-.00664-.82245-.01328-1.22708-.02652-.40459-.01992-.80253-.03979-1.19388-.06635l-.17906-.01988c-.13266-.00664-.26532-.01992-.39134-.03319-.19234-.0066-.39135-.02652-.577-.0464q-1.15405-.11945-2.2485-.31839c-.179-.03316-.35815-.06632-.53061-.09947-.15918-.02656-.31836-.05307-.47094-.09287-.18569-.03979-.37143-.08623-.55048-.126a1.98,1.98,0,0,1-.21225-.05308c-.24541-.05307-.49082-.11938-.72963-.17905-.31172-.08623-.61683-.1791-.91532-.272-.21221-.06631-.41782-.13266-.62347-.20561-.1857-.06631-.378-.13266-.56377-.20561-.199-.07295-.3913-.1459-.577-.22553-.07295-.03316-.1459-.05967-.21889-.09283-.11939-.04643-.23877-.09951-.35151-.15258-.25869-.11274-.51074-.23213-.75614-.35151s-.49746-.252-.73623-.37807c-.26532-.1393-.51737-.29184-.76941-.44438-.252-.15918-.5041-.3184-.7495-.48422h-.0066c-.10615-.07295-.21889-.15254-.325-.22549-.19233-.13266-.378-.272-.56376-.41786a.95846.95846,0,0,1-.09951-.07295c-.17242-.13266-.34488-.272-.51069-.41787-.126-.10614-.252-.21225-.37807-.33163a2.30715,2.30715,0,0,1-.19238-.16582c0-.00664-.0066-.00664-.01324-.01328-.11274-.1061-.22553-.21225-.33827-.325-.06631-.05971-.13266-.126-.199-.18573-.05972-.06631-.126-.13262-.18574-.19234-.09287-.09286-.19233-.199-.2852-.29848l-.09287-.09286c-.19233-.21221-.38467-.42447-.55712-.65l-.199-.23876c-.01328-.01328-.01992-.02652-.03319-.0398-.0398-.05307-.08623-.10615-.11939-.15918a14.12555,14.12555,0,0,1-.8556-1.18064c-.06632-.09947-.13267-.199-.19234-.29848-.126-.1857-.23881-.37143-.35155-.56377-.04644-.06631-.07959-.13266-.11939-.199-.14594-.252-.29184-.51073-.43114-.78266-.03979-.08622-.08623-.16581-.126-.252-.07295-.1393-.13926-.27861-.20561-.42451a7.76258,7.76258,0,0,1-.34488-.75614.938.938,0,0,1-.05307-.11938c-.07959-.17246-.15254-.35151-.21889-.524-.07295-.1791-.1459-.35819-.20562-.53725-.03979-.08623-.06631-.17246-.09946-.25868-.07963-.21889-.15922-.44438-.23217-.66991-.07295-.199-.13266-.39795-.19234-.597-.04643-.126-.07958-.25864-.11938-.3913q-.14927-.49746-.2786-1.01483c-.0066-.0066-.0066-.0066-.0066-.01324-.02656-.11278-.05307-.21889-.07963-.33163-.01988-.073-.0398-.15258-.053-.22553-.04644-.1857-.08623-.37807-.13267-.57041a.33313.33313,0,0,0-.01327-.07959c-.01988-.0995-.04644-.199-.05968-.30512-.02655-.1061-.04643-.21225-.06635-.31835-.03979-.21225-.07959-.42451-.11274-.6434a1.23535,1.23535,0,0,1-.02652-.16582.12463.12463,0,0,1-.01328-.053c-.00664-.02655-.00664-.05971-.01328-.09287-.03315-.15917-.05967-.33163-.07959-.49745-.02651-.16582-.04643-.33827-.07295-.50409-.06631-.451-.126-.90868-.17245-1.37962h.00664l21.689.0332,3.56177.0066h.00664c.03979.00663.08622.00663.126.01327.00664,0,.00664,0,.01324.01328h.08623a28.55908,28.55908,0,0,1,9.23937,2.31481,1.71176,1.71176,0,0,1,.19237.09287,19.61486,19.61486,0,0,1,2.18215,1.1806c.199.126.398.252.59032.38471q.56711.37808,1.09438.79594a18.85957,18.85957,0,0,1,3.05771,3.01788l.199.25868c.29848.37807.58369.776.84237,1.1806.17242.24541.33164.49746.48418.75614.08623.13931.16582.27857.2454.42451.126.21885.24541.44438.3648.66991.08622.16582.16581.33823.2454.504.08623.1791.17246.36483.25869.54389.23877.50409.45766,1.02806.65663,1.55871.02656.06631.04644.13262.07295.199a.86631.86631,0,0,1,.05971.18569q.14926.398.27857.79593c.03979.126.08623.25869.11938.38471.02656.09287.05307.19234.07959.29184.05307.16582.09951.33164.14594.5041.1393.47753.25869.96835.36479,1.4658.126.53725.23217,1.09442.325,1.65818.00664.05307.01992.09951.02656.15258.06631.38467.126.78266.17905,1.1806.05307.38471.09951.78266.1393,1.18065h21.66908l14.53231-.00664h7.23627a8.83213,8.83213,0,0,1-.06631-1.174c0-.1061.00664-.21225.01324-.31171.00664-.10615.01328-.21226.01992-.31176a.90194.90194,0,0,1,.01988-.19234,1.6388,1.6388,0,0,1,.01991-.17909c.00664-.06631.01328-.126.01992-.1857h.0066c.00664-.05307.01328-.09951.01992-.15258a7.17517,7.17517,0,0,1,.29184-1.15408,4.548,4.548,0,0,1,.17909-.5041c.0464-.11274.09283-.22549.14591-.33163.06631-.13926.13266-.27193.20561-.41123.05971-.11938.126-.24541.199-.36479.06635-.11938.1393-.23877.21225-.35815.11275-.17246.22553-.33828.35156-.5041.17241-.22553.35151-.451.55048-.67655a12.22249,12.22249,0,0,1,.96839-.98162,2.16575,2.16575,0,0,1,.23213-.199h.00664a.74458.74458,0,0,1,.13266-.11938c.19234-.16582.39135-.33164.60356-.49086a18.75916,18.75916,0,0,1,2.12248-1.43265q1.06456-.62679,2.348-1.23367c.30508-.1393.61684-.2852.94183-.42451q.87554-.388,1.85052-.75614c.91532-.35151,1.89035-.69642,2.93829-1.0347l.57044-.1459,1.00815-.25868,6.48017-1.65818,5.31282-1.3597,3.11074-.79594,1.5056-.38471,4.60975-1.1806.36479-.09287,23.68545-6.06231.00664.00664Z" style="fill:#9a6f50"/><g id="stripes"><path d="M317.08332,190.02163H214.08387c-.00664-.01327-.01328-.01987-.01992-.03315-.08623-.13266-.1857-.26533-.2852-.39135-.11275-.13926-.22553-.27856-.33828-.41123-.1061-.11938-.20561-.23212-.31172-.34487H316.73841c.03979.11938.07959.23213.11278.34487.05967.20562.11939.41123.17242.6102C317.04353,189.86909,317.06344,189.94868,317.08332,190.02163Z" style="fill:#8e5e40"/><path d="M317.32873,191.19564H214.80017c-.05967-.11939-.126-.23881-.19233-.35156-.09287-.15917-.1857-.31835-.28521-.47089a4.08944,4.08944,0,0,0-.23876-.35156H317.08332c.03316.126.06631.25205.09287.37807.03316.15254.06631.29848.09287.44438C317.28893,190.95683,317.30885,191.07625,317.32873,191.19564Z" style="fill:#ad8361"/><path d="M317.468,194.47884c-.01328.16582-.02656.33164-.05307.49745-.01988.16582-.04644.33164-.06631.49082a1.91155,1.91155,0,0,1-.02656.19233H216.14c-.01988-.19233-.04643-.37807-.07959-.5704-.03315-.20561-.07295-.41123-.11274-.6102Z" style="fill:#8e5e40"/><path d="M317.32209,195.65944c-.01324.09287-.03316.18574-.053.27857a.20488.20488,0,0,0-.01328.05307c-.02652.15254-.05971.30512-.09287.45766-.02651.126-.05967.25868-.09287.38471H216.24614c-.00664-.13266-.01328-.25869-.02656-.38471-.01988-.23213-.03979-.4643-.06631-.68979a.51124.51124,0,0,0-.01328-.09951Z" style="fill:#ad8361"/><path d="M315.80321,200.11665c-.06631.126-.13266.25865-.21225.38467-.11274.20561-.23213.41786-.35151.62348-.02656.05971-.06635.11274-.09951.17245H215.689c.05971-.37807.11939-.76937.17246-1.1806Z" style="fill:#8e5e40"/><path d="M315.13994,201.29725c-.08623.14594-.1791.29848-.272.44438-.15918.24541-.31836.49082-.49082.72963H215.49c.04643-.23881.09287-.47758.13266-.72963.01988-.1459.04639-.29184.06631-.44438Z" style="fill:#ad8361"/><path d="M311.50522,205.86432c-.37807.51518-.90208.82279-1.3133,1.32943l-95.90244.199c.11938-.47225.3324-.97942.46648-1.5284Z" style="fill:#8e5e40"/><path d="M230.16821,183.19658c.06631.38467.126.78266.17905,1.1806H199.57148c-.24541-.05307-.49082-.11938-.72963-.17905-.31172-.08623-.61683-.1791-.91532-.272-.21221-.06631-.41782-.13266-.62347-.20561-.1857-.06631-.378-.13266-.56377-.20561-.199-.07295-.3913-.1459-.577-.22553-.07295-.03316-.1459-.05967-.21889-.09283Z" style="fill:#8e5e40"/><path d="M314.5629,184.37718h-40.705c0-.1061.00664-.21225.01324-.31171.00664-.10615.01328-.21226.01992-.31176a.90194.90194,0,0,1,.01988-.19234,1.6388,1.6388,0,0,1,.01991-.17909c.00664-.06631.01328-.126.01992-.1857h39.80954c.13931.199.27857.39795.41123.59028C314.31085,183.97924,314.43687,184.17821,314.5629,184.37718Z" style="fill:#8e5e40"/><path d="M230.34726,184.37718c.05307.38471.09951.78266.1393,1.18065H207.9884c-.272-.10615-.54389-.20561-.82909-.29184-.41787-.00664-.82909-.01328-1.23372-.03316s-.80253-.03979-1.19388-.06635l-.17906-.01988c-.13266-.00664-.26532-.01992-.39134-.03319-.19234-.0066-.39135-.02652-.577-.0464q-1.15405-.11945-2.2485-.31839c-.179-.03316-.35815-.06632-.53061-.09947-.15918-.02656-.31836-.05307-.47094-.09287-.18569-.03979-.37143-.08623-.55048-.126a1.98,1.98,0,0,1-.21225-.05308Z" style="fill:#ad8361"/><path d="M315.2726,185.55783h-63.117l14.53231-.00664h7.23627a8.83213,8.83213,0,0,1-.06631-1.174h40.705C314.81494,184.76853,315.05371,185.16648,315.2726,185.55783Z" style="fill:#ad8361"/><path d="M228.82838,177.94344q.14926.398.27857.79593H189.4831l-.09287-.09286c-.19233-.21221-.38467-.42447-.55712-.65l-.199-.23876c-.01328-.01328-.01992-.02652-.03319-.0398-.0398-.05307-.08623-.10615-.11939-.15918h40.21417c.02656.06631.04644.13262.07295.199A.86631.86631,0,0,1,228.82838,177.94344Z" style="fill:#8e5e40"/><path d="M309.96643,178.73937H276.113a12.22249,12.22249,0,0,1,.96839-.98162,2.16575,2.16575,0,0,1,.23213-.199H309.4159c.01992.06631.05308.13262.07959.199h.00664c.00664.01987.01328.03315.01988.05307.073.15254.14594.31172.21889.4709C309.81385,178.4343,309.88684,178.58684,309.96643,178.73937Z" style="fill:#8e5e40"/><path d="M229.30592,179.41592c.05307.16582.09951.33164.14594.5041h-38.755a2.30715,2.30715,0,0,1-.19238-.16582c0-.00664-.0066-.00664-.01324-.01328-.11938-.09951-.23876-.21225-.35155-.325-.05967-.05971-.126-.11938-.18569-.18573s-.126-.13262-.18574-.19234c-.09287-.09286-.19233-.199-.2852-.29848H229.107c.03979.126.08623.25869.11938.38471C229.25289,179.217,229.2794,179.31642,229.30592,179.41592Z" style="fill:#ad8361"/><path d="M311.06744,179.92H275.211c.11275-.17246.22553-.33828.35156-.5041.17241-.22553.35151-.451.55048-.67655h33.85342c.01324.01992.01988.04644.03315.06636.16582.16581.33164.33823.49082.504a.75869.75869,0,0,1,.09951.10614h.00664C310.75572,179.58174,310.9149,179.7542,311.06744,179.92Z" style="fill:#ad8361"/><path d="M225.59825,171.921c.29848.37807.58369.776.84237,1.1806H185.855a.938.938,0,0,1-.05307-.11938c-.07959-.17246-.15254-.35151-.21889-.524-.07295-.1791-.1459-.35819-.20562-.53725Z" style="fill:#8e5e40"/><path d="M308.8057,171.921c-.03979.07959-.06635.16582-.0995.252a2.01691,2.01691,0,0,0-.07959.26528,1.71771,1.71771,0,0,0-.05972.26533c-.02651.13266-.04639.26528-.06631.39794H285.31923c.91532-.35151,1.89035-.69642,2.93829-1.0347l.57044-.1459Z" style="fill:#8e5e40"/><path d="M226.9248,173.8577c.08623.13931.16582.27857.2454.42451H186.40551c-.07295-.1393-.13926-.27861-.20561-.42451a7.76258,7.76258,0,0,1-.34488-.75614h40.5856C226.613,173.347,226.77226,173.599,226.9248,173.8577Z" style="fill:#ad8361"/><path d="M308.48071,174.01688a1.78576,1.78576,0,0,0,.01987.26533h-25.9737c.30508-.1393.61684-.2852.94183-.42451q.87554-.388,1.85052-.75614h23.18135a3.608,3.608,0,0,0-.01987.37807c-.00664.126-.00664.25205-.00664.37807v.07959A.32252.32252,0,0,0,308.48071,174.01688Z" style="fill:#ad8361"/><path d="M218.47472,166.28315a19.61486,19.61486,0,0,1,2.18215,1.1806H184.11061c-.02655-.1061-.04643-.21225-.06635-.31835-.03979-.21225-.07959-.42451-.11274-.6434a1.23535,1.23535,0,0,1-.02652-.16582.12463.12463,0,0,1-.01328-.053Z" style="fill:#8e5e40"/><path d="M221.24719,167.84846q.56711.37808,1.09438.79594H184.36926c-.01988-.073-.0398-.15258-.053-.22553-.04644-.1857-.08623-.37807-.13267-.57041a.33313.33313,0,0,0-.01327-.07959c-.01988-.0995-.04644-.199-.05968-.30512h36.54626C220.85584,167.58978,221.05486,167.7158,221.24719,167.84846Z" style="fill:#ad8361"/><circle cx="336.53635" cy="161.60929" r="2.68994" style="fill:#c09059"/></g><g id="cannons"><g id="cannon4"><circle cx="278.05637" cy="193.74325" r="3.64799" style="fill:#908d93;stroke:#8e5e40;stroke-miterlimit:10;stroke-width:2px"/><polygon id="shaft" points="278.487 189.841 280.215 191.684 276.263 196.125 274.287 194.709 278.487 189.841" style="fill:#908d93"/><circle id="tip" cx="276.16684" cy="192.0858" r="2.56369" style="fill:#454a51;stroke:#c7bbbb;stroke-miterlimit:10;stroke-width:2px"/><path id="smoke2" d="M279.50016,191.904a1.4953,1.4953,0,0,1,.09464.52454,2.13085,2.13085,0,0,1-1.6442,1.86076,1.19524,1.19524,0,0,1-.94642.539,1.019,1.019,0,0,1-.52133-.146c-.29836.36574-.63362.55341-.92236.4684a.74509.74509,0,0,1-.454-.54539,1.49172,1.49172,0,0,1-.81167.223c-.64484,0-1.16778-.35291-1.16778-.78923a.72934.72934,0,0,1,.4315-.61116c-.75393-.23419-1.27365-.73467-1.27365-1.31375,0-.71542.79562-1.31055,1.8431-1.43406a.975.975,0,0,1-.10266-.43632,1.459,1.459,0,0,1,1.6041-1.24317,1.74863,1.74863,0,0,1,1.349.57427,2.94024,2.94024,0,0,1,.932-.14759c1.18222,0,2.13825.6641,2.13825,1.48379A1.26841,1.26841,0,0,1,279.50016,191.904Z" style="fill:#26252a"/><path id="smoke1" d="M279.03034,191.70677a1.52714,1.52714,0,0,1-.26422.56825,1.74394,1.74394,0,0,1-2.36529,2.56266,1.25113,1.25113,0,0,1-2.05173-.9598,1.22719,1.22719,0,0,1,.06526-.39793c-1.05213-.19737-1.78909-.659-1.78909-1.197,0-.48228.58893-.9025,1.466-1.12694a.84132.84132,0,0,1-.27219-.59849c0-.58575.70037-1.06008,1.56467-1.06008a1.74407,1.74407,0,0,1,1.40071.58735,1.40437,1.40437,0,0,1,.8261-.269,1.44614,1.44614,0,0,1,1.2304.70194c.52527.13849.86749.3661.86749.62237C279.70842,191.36455,279.44738,191.5667,279.03034,191.70677Z" style="fill:#26252a"/><path id="smoke0" d="M279.53175,192.39928a1.91716,1.91716,0,0,1-2.06491,1.72349c-.03939,0-.08042-.00163-.11982-.00163a1.44034,1.44034,0,0,1-1.22121.87815,1.63926,1.63926,0,0,1-1.41491-1.37715,1.87211,1.87211,0,0,1-.37589.03611c-.84041,0-1.53308-.50063-1.53308-1.108a.93262.93262,0,0,1,.33813-.691.7949.7949,0,0,1-.22816-.54,1.03528,1.03528,0,0,1,.691-.87.76726.76726,0,0,1,.67954-.75835.39028.39028,0,0,1,.087.00822,1.35078,1.35078,0,0,1,1.18183-1.1014,1.28839,1.28839,0,0,1,1.126.9389,1.43809,1.43809,0,0,1,1.17362,1.16869A1.84243,1.84243,0,0,1,279.53175,192.39928Z" style="fill:#26252a"/><circle id="ball" cx="276.16684" cy="192.0858" r="1.824" style="fill:#26252a"/></g><g id="cannon3"><circle cx="266.11748" cy="193.74325" r="3.64799" style="fill:#908d93;stroke:#8e5e40;stroke-miterlimit:10;stroke-width:2px"/><polygon id="shaft-2" data-name="shaft" points="266.548 189.841 268.276 191.684 264.325 196.125 262.348 194.709 266.548 189.841" style="fill:#908d93"/><circle id="tip-2" data-name="tip" cx="264.22795" cy="192.0858" r="2.56369" style="fill:#454a51;stroke:#c7bbbb;stroke-miterlimit:10;stroke-width:2px"/><path id="smoke2-2" data-name="smoke2" d="M267.56126,191.904a1.49508,1.49508,0,0,1,.09465.52454,2.13085,2.13085,0,0,1-1.6442,1.86076,1.19524,1.19524,0,0,1-.94642.539,1.019,1.019,0,0,1-.52133-.146c-.29836.36574-.63362.55341-.92236.4684a.74509.74509,0,0,1-.454-.54539,1.49172,1.49172,0,0,1-.81167.223c-.64485,0-1.16778-.35291-1.16778-.78923a.72934.72934,0,0,1,.4315-.61116c-.75393-.23419-1.27365-.73467-1.27365-1.31375,0-.71542.79562-1.31055,1.8431-1.43406a.975.975,0,0,1-.10266-.43632,1.459,1.459,0,0,1,1.6041-1.24317,1.74863,1.74863,0,0,1,1.349.57427,2.94024,2.94024,0,0,1,.932-.14759c1.18222,0,2.13825.6641,2.13825,1.48379A1.2684,1.2684,0,0,1,267.56126,191.904Z" style="fill:#26252a"/><path id="smoke1-2" data-name="smoke1" d="M267.09145,191.70677a1.52714,1.52714,0,0,1-.26422.56825,1.74394,1.74394,0,0,1-2.36529,2.56266,1.25113,1.25113,0,0,1-2.05173-.9598,1.22718,1.22718,0,0,1,.06525-.39793c-1.05212-.19737-1.78909-.659-1.78909-1.197,0-.48228.58894-.9025,1.466-1.12694a.84132.84132,0,0,1-.27219-.59849c0-.58575.70036-1.06008,1.56467-1.06008a1.74407,1.74407,0,0,1,1.40071.58735,1.40437,1.40437,0,0,1,.8261-.269,1.44615,1.44615,0,0,1,1.2304.70194c.52527.13849.86748.3661.86748.62237C267.76952,191.36455,267.50849,191.5667,267.09145,191.70677Z" style="fill:#26252a"/><path id="smoke0-2" data-name="smoke0" d="M267.59286,192.39928a1.91716,1.91716,0,0,1-2.06491,1.72349c-.03939,0-.08043-.00163-.11982-.00163a1.44036,1.44036,0,0,1-1.22122.87815,1.63925,1.63925,0,0,1-1.4149-1.37715,1.87211,1.87211,0,0,1-.37589.03611c-.84041,0-1.53308-.50063-1.53308-1.108a.93262.93262,0,0,1,.33813-.691.7949.7949,0,0,1-.22816-.54,1.03528,1.03528,0,0,1,.691-.87.76726.76726,0,0,1,.67954-.75835.39028.39028,0,0,1,.087.00822,1.35078,1.35078,0,0,1,1.18183-1.1014,1.28839,1.28839,0,0,1,1.126.9389,1.43809,1.43809,0,0,1,1.17362,1.16869A1.84243,1.84243,0,0,1,267.59286,192.39928Z" style="fill:#26252a"/><circle id="ball-2" data-name="ball" cx="264.22795" cy="192.0858" r="1.824" style="fill:#26252a"/></g><g id="cannon2"><circle cx="254.17859" cy="193.74325" r="3.64799" style="fill:#908d93;stroke:#8e5e40;stroke-miterlimit:10;stroke-width:2px"/><polygon id="shaft-3" data-name="shaft" points="254.609 189.841 256.337 191.684 252.386 196.125 250.409 194.709 254.609 189.841" style="fill:#908d93"/><circle id="tip-3" data-name="tip" cx="252.28906" cy="192.0858" r="2.56369" style="fill:#454a51;stroke:#c7bbbb;stroke-miterlimit:10;stroke-width:2px"/><path id="smoke2-3" data-name="smoke2" d="M255.62237,191.904a1.49531,1.49531,0,0,1,.09465.52454,2.13085,2.13085,0,0,1-1.6442,1.86076,1.19524,1.19524,0,0,1-.94642.539,1.01908,1.01908,0,0,1-.52134-.146c-.29835.36574-.63362.55341-.92235.4684a.74509.74509,0,0,1-.454-.54539,1.49173,1.49173,0,0,1-.81168.223c-.64484,0-1.16777-.35291-1.16777-.78923a.72932.72932,0,0,1,.4315-.61116c-.75393-.23419-1.27366-.73467-1.27366-1.31375,0-.71542.79563-1.31055,1.84311-1.43406a.975.975,0,0,1-.10266-.43632,1.459,1.459,0,0,1,1.60409-1.24317,1.74865,1.74865,0,0,1,1.34906.57427,2.94024,2.94024,0,0,1,.932-.14759c1.18221,0,2.13825.6641,2.13825,1.48379A1.2684,1.2684,0,0,1,255.62237,191.904Z" style="fill:#26252a"/><path id="smoke1-3" data-name="smoke1" d="M255.15256,191.70677a1.52714,1.52714,0,0,1-.26422.56825,1.74394,1.74394,0,0,1-2.36529,2.56266,1.25113,1.25113,0,0,1-2.05173-.9598,1.22718,1.22718,0,0,1,.06525-.39793c-1.05212-.19737-1.78909-.659-1.78909-1.197,0-.48228.58894-.9025,1.466-1.12694a.84132.84132,0,0,1-.27219-.59849c0-.58575.70036-1.06008,1.56466-1.06008a1.74407,1.74407,0,0,1,1.40072.58735,1.40437,1.40437,0,0,1,.8261-.269,1.44613,1.44613,0,0,1,1.23039.70194c.52528.13849.86749.3661.86749.62237C255.83063,191.36455,255.5696,191.5667,255.15256,191.70677Z" style="fill:#26252a"/><path id="smoke0-3" data-name="smoke0" d="M255.654,192.39928a1.91716,1.91716,0,0,1-2.06491,1.72349c-.03939,0-.08043-.00163-.11982-.00163a1.44036,1.44036,0,0,1-1.22122.87815,1.63924,1.63924,0,0,1-1.4149-1.37715,1.87218,1.87218,0,0,1-.37589.03611c-.84041,0-1.53309-.50063-1.53309-1.108a.93263.93263,0,0,1,.33814-.691.7949.7949,0,0,1-.22816-.54,1.03528,1.03528,0,0,1,.691-.87.76726.76726,0,0,1,.67954-.75835.39033.39033,0,0,1,.087.00822,1.35077,1.35077,0,0,1,1.18182-1.1014,1.28841,1.28841,0,0,1,1.126.9389,1.43809,1.43809,0,0,1,1.17362,1.16869A1.84243,1.84243,0,0,1,255.654,192.39928Z" style="fill:#26252a"/><circle id="ball-3" data-name="ball" cx="252.28906" cy="192.0858" r="1.824" style="fill:#26252a"/></g><g id="cannon1"><circle cx="242.2397" cy="193.74325" r="3.64799" style="fill:#908d93;stroke:#8e5e40;stroke-miterlimit:10;stroke-width:2px"/><polygon id="shaft-4" data-name="shaft" points="242.671 189.841 244.398 191.684 240.447 196.125 238.471 194.709 242.671 189.841" style="fill:#908d93"/><circle id="tip-4" data-name="tip" cx="240.35017" cy="192.0858" r="2.56369" style="fill:#454a51;stroke:#c7bbbb;stroke-miterlimit:10;stroke-width:2px"/><path id="smoke2-4" data-name="smoke2" d="M243.68348,191.904a1.49531,1.49531,0,0,1,.09465.52454,2.13085,2.13085,0,0,1-1.6442,1.86076,1.19525,1.19525,0,0,1-.94643.539,1.01907,1.01907,0,0,1-.52133-.146c-.29836.36574-.63362.55341-.92235.4684a.74512.74512,0,0,1-.454-.54539,1.4917,1.4917,0,0,1-.81167.223c-.64484,0-1.16778-.35291-1.16778-.78923a.72933.72933,0,0,1,.43151-.61116c-.75393-.23419-1.27366-.73467-1.27366-1.31375,0-.71542.79563-1.31055,1.84311-1.43406a.975.975,0,0,1-.10267-.43632,1.459,1.459,0,0,1,1.6041-1.24317,1.74861,1.74861,0,0,1,1.34905.57427,2.94033,2.94033,0,0,1,.932-.14759c1.18222,0,2.13826.6641,2.13826,1.48379A1.26843,1.26843,0,0,1,243.68348,191.904Z" style="fill:#26252a"/><path id="smoke1-4" data-name="smoke1" d="M243.21367,191.70677a1.52745,1.52745,0,0,1-.26422.56825,1.74395,1.74395,0,0,1-2.3653,2.56266,1.25112,1.25112,0,0,1-2.05172-.9598,1.22718,1.22718,0,0,1,.06525-.39793c-1.05212-.19737-1.78909-.659-1.78909-1.197,0-.48228.58894-.9025,1.466-1.12694a.84132.84132,0,0,1-.27219-.59849c0-.58575.70036-1.06008,1.56466-1.06008a1.74405,1.74405,0,0,1,1.40071.58735,1.4044,1.4044,0,0,1,.82611-.269,1.44613,1.44613,0,0,1,1.23039.70194c.52528.13849.86749.3661.86749.62237C243.89174,191.36455,243.63071,191.5667,243.21367,191.70677Z" style="fill:#26252a"/><path id="smoke0-4" data-name="smoke0" d="M243.71508,192.39928a1.91716,1.91716,0,0,1-2.06491,1.72349c-.03939,0-.08043-.00163-.11982-.00163a1.44036,1.44036,0,0,1-1.22122.87815,1.63924,1.63924,0,0,1-1.4149-1.37715,1.87221,1.87221,0,0,1-.3759.03611c-.8404,0-1.53308-.50063-1.53308-1.108a.93263.93263,0,0,1,.33814-.691.7949.7949,0,0,1-.22816-.54,1.03528,1.03528,0,0,1,.691-.87.76726.76726,0,0,1,.67954-.75835.39039.39039,0,0,1,.087.00822,1.35077,1.35077,0,0,1,1.18182-1.1014,1.28841,1.28841,0,0,1,1.126.9389,1.43809,1.43809,0,0,1,1.17362,1.16869A1.84243,1.84243,0,0,1,243.71508,192.39928Z" style="fill:#26252a"/><circle id="ball-4" data-name="ball" cx="240.35017" cy="192.0858" r="1.824" style="fill:#26252a"/></g><g id="cannon0"><circle cx="230.30081" cy="193.74325" r="3.64799" style="fill:#908d93;stroke:#8e5e40;stroke-miterlimit:10;stroke-width:2px"/><polygon id="shaft-5" data-name="shaft" points="230.732 189.841 232.459 191.684 228.508 196.125 226.532 194.709 230.732 189.841" style="fill:#908d93"/><circle id="tip-5" data-name="tip" cx="228.41127" cy="192.0858" r="2.56369" style="fill:#454a51;stroke:#c7bbbb;stroke-miterlimit:10;stroke-width:2px"/><path id="smoke2-5" data-name="smoke2" d="M231.74459,191.904a1.4953,1.4953,0,0,1,.09464.52454,2.13084,2.13084,0,0,1-1.6442,1.86076,1.19521,1.19521,0,0,1-.94642.539,1.01907,1.01907,0,0,1-.52133-.146c-.29836.36574-.63362.55341-.92235.4684a.7451.7451,0,0,1-.454-.54539,1.4917,1.4917,0,0,1-.81167.223c-.64484,0-1.16778-.35291-1.16778-.78923a.72933.72933,0,0,1,.43151-.61116c-.75393-.23419-1.27366-.73467-1.27366-1.31375,0-.71542.79563-1.31055,1.84311-1.43406a.975.975,0,0,1-.10267-.43632,1.459,1.459,0,0,1,1.6041-1.24317,1.74863,1.74863,0,0,1,1.34905.57427,2.94033,2.94033,0,0,1,.932-.14759c1.18222,0,2.13826.6641,2.13826,1.48379A1.26843,1.26843,0,0,1,231.74459,191.904Z" style="fill:#26252a"/><path id="smoke1-5" data-name="smoke1" d="M231.27478,191.70677a1.52732,1.52732,0,0,1-.26423.56825,1.74394,1.74394,0,0,1-2.36529,2.56266,1.25113,1.25113,0,0,1-2.05173-.9598,1.22719,1.22719,0,0,1,.06526-.39793c-1.05212-.19737-1.78909-.659-1.78909-1.197,0-.48228.58894-.9025,1.466-1.12694a.84132.84132,0,0,1-.27219-.59849c0-.58575.70036-1.06008,1.56466-1.06008a1.74405,1.74405,0,0,1,1.40071.58735,1.40439,1.40439,0,0,1,.8261-.269,1.44614,1.44614,0,0,1,1.2304.70194c.52528.13849.86749.3661.86749.62237C231.95285,191.36455,231.69182,191.5667,231.27478,191.70677Z" style="fill:#26252a"/><path id="smoke0-5" data-name="smoke0" d="M231.77619,192.39928a1.91716,1.91716,0,0,1-2.06491,1.72349c-.0394,0-.08043-.00163-.11982-.00163a1.44036,1.44036,0,0,1-1.22122.87815,1.63926,1.63926,0,0,1-1.41491-1.37715,1.87211,1.87211,0,0,1-.37589.03611c-.8404,0-1.53308-.50063-1.53308-1.108a.93262.93262,0,0,1,.33813-.691.7949.7949,0,0,1-.22816-.54,1.0353,1.0353,0,0,1,.691-.87.76726.76726,0,0,1,.67954-.75835.39039.39039,0,0,1,.087.00822,1.35076,1.35076,0,0,1,1.18182-1.1014,1.28838,1.28838,0,0,1,1.126.9389,1.43807,1.43807,0,0,1,1.17362,1.16869A1.84244,1.84244,0,0,1,231.77619,192.39928Z" style="fill:#26252a"/><circle id="ball-5" data-name="ball" cx="228.41127" cy="192.0858" r="1.824" style="fill:#26252a"/></g></g><g id="back"><path id="beam" d="M205.24769,163.86V96.12963c1.111-1.461,2.28943-1.48959,3.57193,0V163.86Z" style="fill:#8e5e40"/><path id="top_sail" data-name="top sail" d="M186.35919,104.45193c11.93514,10.753,10.95073,25.07662.11482,34.04559a.48839.48839,0,0,0,.31318.86392h34.50933a.50705.50705,0,0,0,.31189-.10759c11.84733-9.30665,12.52139-26.53019-.0053-35.55887a.50622.50622,0,0,0-.29464-.09493H186.688A.48926.48926,0,0,0,186.35919,104.45193Z" style="fill:#26252a"/><line x1="189.17665" y1="121.48074" x2="237.59549" y2="121.48074" style="fill:none"/><path d="M208.1014,137.27974c3.48556.03175,12.04059.00767,12.9039.00513a.18672.18672,0,0,0,.12682-.05021,23.66641,23.66641,0,0,0,7.50794-13.39572.19108.19108,0,0,0-.349-.13525c-4.61746,6.83553-11.67616,10.87378-20.23227,13.19625A.19271.19271,0,0,0,208.1014,137.27974Z" style="fill:#454a51"/><rect x="205.24769" y="139.36144" width="3.57193" height="5.50945" style="fill:#7c5d49"/><circle cx="207.03366" cy="95.02314" r="3.31636" style="fill:#26252a"/><circle cx="208.13832" cy="96.53222" r="0.79053" style="fill:#454a51"/></g><g id="middle"><path d="M248.47449,174.71331v10.84452H230.48656a28.64027,28.64027,0,0,0-3.071-10.84452h10.14805V49.50089l3.648-.849V174.71331Z" style="fill:#8e5e40"/><path d="M253.58833,57.23667V53.37514a.3287.3287,0,0,0-.41626-.31682l-5.58759,1.54438a.32869.32869,0,0,1-.41611-.30682l-.20057-6.59a.32871.32871,0,0,0-.40251-.31027l-5.35363,1.2364v.01988l-3.24479.75517a.3287.3287,0,0,1-.40321-.32014V41.16017a.32869.32869,0,0,1,.26319-.3221l17.80147-3.6204a.3287.3287,0,0,1,.39421.3221V45.036a.32869.32869,0,0,0,.38633.3236l6.07894-1.0828a.32869.32869,0,0,1,.38633.3236v4.80535a.3287.3287,0,0,0,.3339.32866l11.88163-.18791a.3287.3287,0,0,1,.11312.63913L254.025,57.54715A.3287.3287,0,0,1,253.58833,57.23667Z" style="fill:#26252a"/><path d="M247.22592,47.2495l7.76661-1.60788a.3287.3287,0,0,1,.30469.54853l-7.57346,7.95412a.3287.3287,0,0,1-.5666-.21666l-.19315-6.34624A.3287.3287,0,0,1,247.22592,47.2495Z" style="fill:#454a51"/><path d="M253.80983,52.86685l7.43286-2.56434a.3287.3287,0,0,1,.32112.56029l-7.43287,6.371a.32869.32869,0,0,1-.54261-.24956V53.17758A.3287.3287,0,0,1,253.80983,52.86685Z" style="fill:#454a51"/><line x1="237.56367" y1="49.50089" x2="233.96874" y2="50.34325" style="fill:none"/><path id="top_sail-2" data-name="top sail" d="M218.34105,81.76311c11.93515,10.753,10.95073,25.07662.11482,34.0456a.48839.48839,0,0,0,.31319.86392h34.50933a.507.507,0,0,0,.31188-.1076c11.84733-9.30664,12.52139-26.53019-.00529-35.55886a.50619.50619,0,0,0-.29465-.09494H218.66989A.48926.48926,0,0,0,218.34105,81.76311Z" style="fill:#26252a"/><line x1="221.15851" y1="98.79193" x2="269.57735" y2="98.79193" style="fill:none"/><path d="M240.08326,114.59092c3.48556.03175,12.04059.00767,12.9039.00513a.18669.18669,0,0,0,.12683-.05021,23.66644,23.66644,0,0,0,7.50794-13.39571.19109.19109,0,0,0-.349-.13525c-4.61745,6.83553-11.67616,10.87377-20.23227,13.19624A.19271.19271,0,0,0,240.08326,114.59092Z" style="fill:#454a51"/><rect x="237.56366" y="116.67263" width="3.64799" height="5.50945" style="fill:#7c5d49"/><rect x="237.56366" y="156.28469" width="3.64799" height="5.50945" style="fill:#7c5d49"/><path id="top_sail-3" data-name="top sail" d="M218.80638,121.37517c11.93514,10.753,10.95073,25.07663.11482,34.0456a.48838.48838,0,0,0,.31318.86392h34.50933a.507.507,0,0,0,.31188-.10759c11.84733-9.30665,12.5214-26.5302-.00529-35.55887a.50616.50616,0,0,0-.29465-.09494H219.13521A.48926.48926,0,0,0,218.80638,121.37517Z" style="fill:#26252a"/><line x1="221.62384" y1="138.40399" x2="270.04268" y2="138.40399" style="fill:none"/><path d="M240.54858,154.203c3.48556.03175,12.04059.00767,12.90391.00513a.18676.18676,0,0,0,.12682-.05021,23.66647,23.66647,0,0,0,7.50794-13.39572.19109.19109,0,0,0-.349-.13525c-4.61745,6.83553-11.67616,10.87378-20.23227,13.19624A.19272.19272,0,0,0,240.54858,154.203Z" style="fill:#454a51"/></g><g id="front"><path id="beam-2" data-name="beam" d="M270.25523,185.56078l0-112.747c-1.23109-1.3076-2.40881-1.27174-3.53746,0l-.02763,112.747Z" style="fill:#8e5e40"/><path id="top_sail-4" data-name="top sail" d="M247.27628,96.18927c11.93515,10.753,10.95073,25.07663.11482,34.0456a.48839.48839,0,0,0,.31319.86392h34.50933a.507.507,0,0,0,.31188-.10759c11.84733-9.30665,12.52139-26.5302-.00529-35.55887a.50619.50619,0,0,0-.29465-.09494H247.60512A.48927.48927,0,0,0,247.27628,96.18927Z" style="fill:#26252a"/><line x1="250.09374" y1="113.21809" x2="298.51258" y2="113.21809" style="fill:none"/><path d="M269.01849,129.01709c3.48556.03175,12.04059.00767,12.9039.00513a.1867.1867,0,0,0,.12682-.05021,23.66635,23.66635,0,0,0,7.50794-13.39572.19108.19108,0,0,0-.349-.13525c-4.61745,6.83553-11.67616,10.87378-20.23227,13.19624A.19272.19272,0,0,0,269.01849,129.01709Z" style="fill:#454a51"/><rect x="266.6487" y="131.09879" width="3.64799" height="5.50945" style="fill:#7c5d49"/><path id="top_sail-5" data-name="top sail" d="M247.27628,136.70412c11.93515,10.753,10.95073,25.07662.11482,34.0456a.48839.48839,0,0,0,.31319.86392h34.50933a.507.507,0,0,0,.31188-.1076c11.84733-9.30664,12.52139-26.53019-.00529-35.55886a.50619.50619,0,0,0-.29465-.09494H247.60512A.48926.48926,0,0,0,247.27628,136.70412Z" style="fill:#26252a"/><line x1="250.09374" y1="153.73294" x2="298.51258" y2="153.73294" style="fill:none"/><path d="M269.01849,169.53194c3.48556.03175,12.04059.00766,12.9039.00512a.18665.18665,0,0,0,.12682-.05021,23.6663,23.6663,0,0,0,7.50794-13.39571.19108.19108,0,0,0-.349-.13525c-4.61745,6.83553-11.67616,10.87377-20.23227,13.19624A.19272.19272,0,0,0,269.01849,169.53194Z" style="fill:#454a51"/><rect x="266.6487" y="171.52748" width="3.64799" height="5.50945" style="fill:#7c5d49"/><circle cx="268.47269" cy="72.39924" r="3.31636" style="fill:#26252a"/><circle cx="269.57735" cy="73.90832" r="0.79053" style="fill:#454a51"/></g><g id="foreground"><path d="M183.67554,163.8093l25.14408.05067q19.36176,1.4586,21.66694,21.69786l43.43766-.00664c-1.08038-5.63684,4.16229-9.76773,13.01052-13.03993" style="fill:none;stroke:#673434;stroke-miterlimit:10;stroke-width:3px"/><path d="M183.67554,162.81359h-.06131a4.58589,4.58589,0,0,0-.05414.99553l.11166.99794Z" style="fill:#673434"/><path d="M287.27953,173.44545c2.12847-.76594,7.83778-2.77127,9.9608-3.67784-2.52118.1725-8.59754,1.38306-10.65008,1.81026l-1.47589.57929.86594,1.77793Z" style="fill:#673434"/><path d="M287.45882,173.92285c2.12847-.76594,7.65307-3.26091,9.77609-4.16749-2.52118.1725-8.76472.91714-10.81726,1.34433l-1.52975.59137,1.30854,2.68669Z" style="fill:#673434"/><path d="M310.18528,170.0041c-2.227,1.976-2.15868,4.93-.136,8.78654,10.76794,10.74252,9.11871,21.02765.14263,28.4031l-8.73537.016c11.66679-7.70053,15.04424-16.06507,6.50247-27.47931C305.91434,175.8462,305.64812,172.04223,310.18528,170.0041Z" style="fill:#7c5d49"/></g></g><g id="foreground-2" data-name="foreground"><g id="shipClouds"><path id="cloud2" d="M154.33712,210.40441c0,2.85848,11.87463,3.12683,17.00481,3.12683h58.41663c6.93727,0,15.59127-.87718,15.59127-3.3435,0-2.13088-6.49533-4.33895-12.71428-5.3406-.87708-4.23814-8.72545-8.38177-17.57943-8.38177-1.76552,0-3.59907.03308-5.40617.10869-4.1699-3.32152-11.39826-5.67445-18.15784-5.67445-10.30192,0-24.53182,6.72807-24.53182,12.75688a2.45354,2.45354,0,0,0,.0189.33544C161.39537,205.68813,154.33712,208.20265,154.33712,210.40441Z" style="fill:#494a4d"/><path id="cloud1" d="M257.39368,214.86822c0,2.83-3.38,4.22-7.7,4.22h-23.92c-3.2,0-8.04-.2-8.04-2.52,0-1.41,2.12-3.33,4.51-4.64.22-5.82,6.41-11.5,13.45-11.5,6.95,0,15.01,3.03,15.49,8.63C254.47363,210.20825,257.39368,212.75823,257.39368,214.86822Z" style="fill:#454a51"/><path id="cloud0" d="M244.0456,213.61435c0,5.89,8.21559,10.67,18.35426,10.67h96.56231c7.72631,0,13.9934-4.12,13.9934-9.2,0-4.07995-4.04872-7.54-9.64948-8.74-3.686-8.82-15.51172-18.9-24.56231-18.9-7.69259,0-20.657,3.84-27.55667,9.44-1.22306-.07-2.47985-.1-3.75352-.1-13.16681,0-24.32616,3.47-28.14712,8.26a117.81723,117.81723,0,0,0-16.88661-2.1C252.26119,202.94431,244.0456,207.72434,244.0456,213.61435Z" style="fill:#494a4d"/></g><g id="skyClouds"><path id="cloud3" d="M159.01275,145.75288c0,2.56523-13.318,2.806-19.07181,2.806H74.42354c-7.78053,0-17.48646-.78719-17.48646-3.00049,0-1.91227,7.28487-3.89383,14.25975-4.79272.9837-3.80335,9.78607-7.52189,19.71628-7.52189,1.98013,0,4.03655.02968,6.06331.09754,4.67678-2.98077,12.78377-5.09232,20.365-5.09232,11.55417,0,27.51376,6.03785,27.51376,11.44817a1.76748,1.76748,0,0,1-.02119.301C151.09654,141.52044,159.01275,143.777,159.01275,145.75288Z" style="fill:#494a4d"/><path id="cloud2-2" data-name="cloud2" d="M59.49142,258.89876c0,3.73,10.17181,5.78,17.61954,5.78H125.1846v-.01a2.62865,2.62865,0,0,0,.27548.01c5.20319,0,18.76214-2.54,18.76214-7.05,0-3.94-10.335-8.07-16.42581-9.06-4.64208-5.07-17.14-9.33-26.822-9.33-11.3859,0-29.00538,7.92-31.07649,14.34C64.19477,255.12874,59.49142,257.09877,59.49142,258.89876Z" style="fill:#454a51"/><path id="cloud1-2" data-name="cloud1" d="M315.50974,272.94076c0,2.83,3.584,4.22,8.16465,4.22h25.36337c3.39311,0,8.52519-.2,8.52519-2.52,0-1.41-2.24792-3.33-4.78215-4.64-.23331-5.82-6.79683-11.5-14.26162-11.5-7.36939,0-15.91574,3.03-16.42469,8.63C318.606,268.28079,315.50974,270.83077,315.50974,272.94076Z" style="fill:#454a51"/><path id="cloud0-2" data-name="cloud0" d="M445.49142,167.07464c0,3.73-9.97,5.78-17.27,5.78h-47.12v-.01a2.52576,2.52576,0,0,1-.27.01c-5.1,0-18.38995-2.54-18.38995-7.05,0-3.94,10.12994-8.07,16.1-9.06,4.55-5.07,16.8-9.33,26.29-9.33,11.16,0,28.43,7.92,30.46,14.34C440.88138,163.30462,445.49142,165.27466,445.49142,167.07464Z" style="fill:#3e3e40"/></g></g></g></g></svg>