<svg xmlns="http://www.w3.org/2000/svg" viewBox="0 0 41 39"><g id="Layer_2" data-name="Layer 2"><g id="props"><path id="Smoke1" d="M41,23.16c0,5.8-5.63,10.5-12.58,10.5-.24,0-.49-.01-.73-.01C26.01,36.89,23.3,39,20.25,39c-3.93,0-7.28-3.48-8.62-8.39a11.40352,11.40352,0,0,1-2.29.22C4.22,30.83,0,27.78,0,24.08a5.68178,5.68178,0,0,1,2.06-4.21A4.84283,4.84283,0,0,1,.67,16.58c0-2.18,1.66-4.1,4.21-5.3C5.15,8.67,6.9,6.66,9.02,6.66a2.37719,2.37719,0,0,1,.53.05C10.69,2.78,13.48,0,16.75,0c2.98,0,5.58,2.32,6.86,5.72a8.76128,8.76128,0,0,1,7.15,7.12C36.59,13.76,41,18.03,41,23.16Z" style="fill:#26252a"/></g></g></svg>