<svg xmlns="http://www.w3.org/2000/svg" viewBox="0 0 44.5 36.33002"><g id="Layer_2" data-name="Layer 2"><g id="props"><path id="Smoke2" d="M40.24,13.88a9.59445,9.59445,0,0,1-1.66,3.57,10.95636,10.95636,0,0,1-14.86,16.1,7.86021,7.86021,0,0,1-12.89-6.03,7.70987,7.70987,0,0,1,.41-2.5C4.63,23.78,0,20.88,0,17.5c0-3.03,3.7-5.67,9.21-7.08A5.28569,5.28569,0,0,1,7.5,6.66C7.5,2.98,11.9,0,17.33,0c3.86,0,7.19,1.5,8.8,3.69A8.82338,8.82338,0,0,1,31.32,2a9.08542,9.08542,0,0,1,7.73,4.41c3.3.87006,5.45,2.3,5.45,3.91C44.5,11.73,42.86005,13,40.24,13.88Z" style="fill:#26252a"/></g></g></svg>