<svg xmlns="http://www.w3.org/2000/svg" viewBox="0 0 48.39996 38.46627"><g id="Layer_2" data-name="Layer 2"><g id="props"><path id="Smoke3" d="M44.98,18.1a9.32128,9.32128,0,0,1,.59,3.27c0,5.14-4.19,9.56-10.25,11.6a7.45118,7.45118,0,0,1-5.9,3.36,6.3525,6.3525,0,0,1-3.25-.91c-1.86,2.28-3.95,3.45-5.75,2.92-1.32-.39-2.28-1.62-2.83-3.4a9.29939,9.29939,0,0,1-5.06,1.39c-4.02,0-7.28-2.2-7.28-4.92A4.54659,4.54659,0,0,1,7.94,27.6C3.24,26.14,0,23.02,0,19.41,0,14.95,4.96,11.24,11.49,10.47a6.07828,6.07828,0,0,1-.64-2.72c0-4.28,4.48-7.75,10-7.75a10.90111,10.90111,0,0,1,8.41,3.58A18.33039,18.33039,0,0,1,35.07,2.66C42.44,2.66,48.4,6.8,48.4,11.91A7.90738,7.90738,0,0,1,44.98,18.1Z" style="fill:#26252a"/></g></g></svg>