<svg xmlns="http://www.w3.org/2000/svg" viewBox="0 0 173.89996 66.9479"><g id="Layer_2" data-name="Layer 2"><g id="props"><circle id="Cannon_Ball" data-name="Cannon Ball" cx="51.40997" cy="2.75" r="2.75" style="fill:#26252a"/><path id="Smoke1" d="M41,43.6416c0,5.80005-5.63,10.5-12.58,10.5-.24,0-.49-.00995-.73-.00995-1.68,3.24-4.39,5.35-7.44,5.35-3.93,0-7.28-3.48-8.62-8.39a11.40352,11.40352,0,0,1-2.29.22c-5.12,0-9.34-3.05-9.34-6.75a5.68178,5.68178,0,0,1,2.06-4.21,4.84283,4.84283,0,0,1-1.39-3.29c0-2.18,1.66-4.1,4.21-5.3.27-2.61,2.02-4.62006,4.14-4.62006a2.37719,2.37719,0,0,1,.53.05c1.14-3.93,3.93-6.71,7.2-6.71,2.98,0,5.58,2.32,6.86,5.72a8.76128,8.76128,0,0,1,7.15,7.12C36.59,34.24164,41,38.51166,41,43.6416Z" style="fill:#26252a"/><path id="Smoke2" d="M107.08,42.36164a9.59449,9.59449,0,0,1-1.66,3.57,10.95636,10.95636,0,0,1-14.86,16.1,7.86022,7.86022,0,0,1-12.89-6.03,7.70988,7.70988,0,0,1,.41-2.5c-6.61-1.24-11.24-4.14-11.24-7.52,0-3.03,3.7-5.67,9.21-7.08a5.28569,5.28569,0,0,1-1.71-3.76c0-3.68,4.4-6.66,9.83-6.66,3.86,0,7.19,1.5,8.8,3.69a8.82335,8.82335,0,0,1,5.19-1.69,9.08541,9.08541,0,0,1,7.73,4.41c3.3.87006,5.45,2.30005,5.45,3.91C111.34,40.21161,109.7,41.48163,107.08,42.36164Z" style="fill:#26252a"/><path id="Smoke3" d="M170.48,46.58161a9.32128,9.32128,0,0,1,.59,3.27c0,5.14-4.19,9.56-10.25,11.6a7.45118,7.45118,0,0,1-5.9,3.36,6.3525,6.3525,0,0,1-3.25-.91c-1.86,2.28-3.95,3.45-5.75,2.92-1.32-.39-2.28-1.62-2.83-3.4a9.29939,9.29939,0,0,1-5.06,1.39c-4.02,0-7.28-2.2-7.28-4.92005a4.54659,4.54659,0,0,1,2.69-3.81c-4.7-1.46-7.94-4.58-7.94-8.19,0-4.46,4.96-8.17,11.49-8.93994a6.07828,6.07828,0,0,1-.64-2.72c0-4.28,4.48-7.75,10-7.75a10.90111,10.90111,0,0,1,8.41,3.58,18.33039,18.33039,0,0,1,5.81-.92c7.37,0,13.32995,4.14,13.32995,9.25A7.90738,7.90738,0,0,1,170.48,46.58161Z" style="fill:#26252a"/></g>
</g>
</svg>