<svg xmlns="http://www.w3.org/2000/svg" viewBox="0 0 81.59 68.57"><defs><style>.cls-1{fill:#110c6e;}.cls-2{fill:#8d81f2;}.cls-3{fill:#7161ef;}.cls-4{fill:#9b90f4;}.cls-5{fill:#bdb5f8;}.cls-6{fill:#aaa0f5;}</style></defs><g id="Layer_2" data-name="Layer 2"><g id="Layer_1-2" data-name="Layer 1"><path class="cls-1" d="M81.36,16.88,64.93.44,63.86,0H15.58L14.44.52.06,17,0,18.89l29.79,38,.43.37L49.74,68.57,51.8,68l29.79-49.3Zm-17-12.75L76.19,16,65.34,14.86l-5.72-.59,1.43-3.1ZM61.48,3l-3.55,7.66-1.57,3.39-33.6,1.53L19.78,8l-2-5ZM55.6,17.15,53.54,32.76l-8.95-.67-7.43-.55-12.07-13,15.7-.71ZM5.91,14.86,15.08,4.39l2.34,6,2.13,5.4-14.9.56Zm5.22,13.3-6.9-8.81,16.87-.62L34.8,33.45l-1.26,5.28-3.3,13.81ZM51.3,49.71l-2,15.09L32.72,55.2l3-12.69,1.89-7.89,15.5,1.16ZM53,60.25,54.86,45.9h0l3.8-28.68,7.65.8L77.76,19.2Z"/><polygon class="cls-2" points="57.93 10.69 56.36 14.08 22.76 15.61 19.78 8.04 57.93 10.69"/><polygon class="cls-3" points="61.48 3.03 57.93 10.69 19.78 8.04 17.81 3.03 61.48 3.03"/><polygon class="cls-2" points="65.34 14.86 59.62 14.27 61.05 11.17 65.34 14.86"/><polygon class="cls-4" points="76.19 16 65.34 14.86 61.05 11.17 64.32 4.13 76.19 16"/><polygon class="cls-2" points="19.55 15.74 4.65 16.3 5.91 14.86 17.42 10.34 19.55 15.74"/><polygon class="cls-5" points="17.42 10.34 5.91 14.86 15.08 4.39 17.42 10.34"/><polygon class="cls-2" points="34.8 33.45 33.54 38.73 11.13 28.16 4.23 19.35 21.1 18.73 34.8 33.45"/><polygon class="cls-3" points="33.54 38.73 30.24 52.54 11.13 28.16 33.54 38.73"/><polygon class="cls-2" points="53.14 35.77 51.3 49.71 35.76 42.51 37.64 34.62 53.14 35.77"/><polygon class="cls-5" points="51.3 49.71 49.3 64.8 32.72 55.2 35.76 42.51 51.3 49.71"/><polygon class="cls-2" points="44.59 32.09 37.16 31.54 25.09 18.55 40.79 17.83 44.59 32.09"/><polygon class="cls-6" points="55.6 17.15 53.54 32.76 44.59 32.09 40.79 17.83 55.6 17.15"/><polygon class="cls-2" points="66.31 18.01 54.86 45.89 58.66 17.21 66.31 18.01"/><polygon class="cls-3" points="77.76 19.2 52.95 60.25 54.86 45.9 54.86 45.89 66.31 18.01 77.76 19.2"/></g></g></svg>