<svg xmlns="http://www.w3.org/2000/svg" viewBox="0 0 142.83 109.58"><defs><style>.cls-1{fill:#ca9a7d;}.cls-2,.cls-4{fill:#b47249;}.cls-10,.cls-12,.cls-14,.cls-3,.cls-6{fill:none;}.cls-10,.cls-12,.cls-13,.cls-14,.cls-15,.cls-3,.cls-4{stroke:#2e2e38;}.cls-10,.cls-12,.cls-15,.cls-3,.cls-4{stroke-miterlimit:10;}.cls-15,.cls-5,.cls-9{fill:#2e2e38;}.cls-7{fill:#ffd62e;}.cls-8{fill:#ffe785;}.cls-9{opacity:0.43;}.cls-10,.cls-13,.cls-14{stroke-linecap:round;}.cls-10{stroke-width:1.25px;}.cls-11{fill:#fdbd3b;}.cls-12{stroke-width:2px;}.cls-13{fill:#f5f4f6;}.cls-13,.cls-14{stroke-linejoin:round;stroke-width:3px;}.cls-16{fill:#fff;}.cls-17{fill:#545464;}</style></defs><g id="Layer_2" data-name="Layer 2"><g id="chest"><g id="bottom"><g id="wood"><path class="cls-1" d="M116.09,82.49c0,.43-.11.85-.16,1.27H26.59l-.15-1.27Z"/><g id="wood_bg" data-name="wood bg"><path class="cls-2" d="M118.05,52.82c-.12,7.07-.47,14.21-1,20.91a27.84,27.84,0,0,0-11.89-2.06A61.59,61.59,0,0,0,90.7,74.24c-5.4,1.5-10.74,3.25-16,5.25H42.94c-5.7-1.31-11.35-3.19-17.16-3.43-.14-1.43-.26-2.87-.37-4.34-.45-6.13-.73-12.55-.82-18.9Z"/><path class="cls-2" d="M25.78,76.06c5.81.24,11.46,2.12,17.16,3.43H26.11C26,78.36,25.88,77.22,25.78,76.06Z"/><path class="cls-2" d="M117,73.73c-.17,2-.35,3.89-.56,5.76H74.72c5.24-2,10.58-3.75,16-5.25a61.59,61.59,0,0,1,14.41-2.57A27.84,27.84,0,0,1,117,73.73Z"/><path class="cls-2" d="M116,94.07H28.21q-.59-3-1.08-6.44-.28-1.87-.54-3.87h89.34l-.18,1.33h0c-.16,1.18-.33,2.32-.51,3.44-.28,1.81-.59,3.55-.91,5.2Z"/></g><g id="wood_stripes" data-name="wood stripes"><path class="cls-3" d="M74.72,79.49c17.35-6.6,32.94-10.65,42.28-5.76"/><path class="cls-4" d="M25.78,76.06c4.52-.44,10.58,1.16,17.16,3.43"/><path class="cls-3" d="M29.36,68.22c3.38.08,6.43,1.91,9.63,3a22.5,22.5,0,0,0,9.32,1.11,15.81,15.81,0,0,0,6-1.66,9.93,9.93,0,0,0,4.36-4.36"/><path class="cls-3" d="M24.27,71.6c5.54.54,11,1.77,16.51,2.6s11.18,1.23,16.64.11,10.75-3.89,14-8.42"/><path class="cls-3" d="M42.94,79.49a41.2,41.2,0,0,0,10.4,1.28"/><path class="cls-3" d="M25.78,76.06l-.87,0"/><path class="cls-3" d="M60.17,80.67c3.74-.69,7.56-1.4,10.9-3.23a36.47,36.47,0,0,0,5.82-4.33,33,33,0,0,1,5.86-4.27,11.45,11.45,0,0,1,7-1.41"/><path class="cls-3" d="M119.24,74.85A20.34,20.34,0,0,0,117,73.73"/><path class="cls-3" d="M74.72,79.49c-.93.35-1.86.71-2.78,1.08"/><path class="cls-3" d="M82.49,80.61c4.43-2.24,9-4.51,13.9-5.14A20.41,20.41,0,0,1,108,77.36c1.57.79,3,1.8,4.59,2.63a10.81,10.81,0,0,0,5,1.49"/><path class="cls-3" d="M92.49,80.94a15.09,15.09,0,0,1,5.17-2.74,7.67,7.67,0,0,1,7.5,2.61"/><path class="cls-3" d="M35.5,81.14a3.94,3.94,0,0,0-1.39.77,1.34,1.34,0,0,0-.36,1.46,1.88,1.88,0,0,0,1.4.81A15.73,15.73,0,0,0,48.4,80.81"/><path class="cls-3" d="M28.43,82a3,3,0,0,0,1.5,3.17,8.22,8.22,0,0,0,3.6,1,45.71,45.71,0,0,0,12.69-.08,22.1,22.1,0,0,0,11.37-5.3"/><path class="cls-3" d="M26.26,87.38a50.26,50.26,0,0,0,18.56,1.7,151,151,0,0,0,18.51-3l22.31-4.51"/><path class="cls-3" d="M41.6,93.41c15.65-4,31.82-8,47.79-5.53,4.61.71,9.15,2,13.8,2.37s9.56,0,13.53-2.52"/><path class="cls-3" d="M61.23,93.7c5.27-3,11.59-3.92,17.66-3.4a67.27,67.27,0,0,1,17.65,4.5"/><path class="cls-3" d="M104.28,81.34a7.44,7.44,0,0,0-4.91,2.42,2.82,2.82,0,0,0-.64,1A1.23,1.23,0,0,0,99,86a1.91,1.91,0,0,0,1.17.44,47.44,47.44,0,0,0,11,.1,12.15,12.15,0,0,0,3.78-.9,4.8,4.8,0,0,0,2.62-2.74"/><path class="cls-3" d="M108.47,81.8A7,7,0,0,0,105.75,83c-.22.17-.46.39-.44.66s.49.54.87.59a15.18,15.18,0,0,0,4,0,5.09,5.09,0,0,0,2.41-.81,2.21,2.21,0,0,0,1-2.23"/></g><path class="cls-5" d="M121.05,52.82c-.16,9.76-.76,19.64-1.77,28.35-.54,4.66-1.2,9-2,12.9,0,.09,0,.17,0,.25L116,94.07l-1.67-.33c.32-1.65.63-3.39.91-5.2.18-1.12.35-2.26.51-3.44h0l.18-1.33c0-.42.11-.84.16-1.27H26.44l.15,1.27q.26,2,.54,3.87.5,3.42,1.08,6.44l.12.59-2.94.59c-.08-.39-.15-.78-.23-1.18-.73-3.83-1.36-8.17-1.89-12.91-1-8.77-1.54-18.64-1.67-28.34h3c.09,6.35.37,12.77.82,18.9.11,1.47.23,2.91.37,4.34.1,1.16.21,2.3.33,3.43h90.33c.21-1.87.39-3.8.56-5.76.58-6.7.93-13.84,1-20.91Z"/><line class="cls-6" x1="116.29" y1="83.76" x2="115.93" y2="83.76"/><line class="cls-6" x1="26.59" y1="83.76" x2="26.22" y2="83.76"/></g><g id="gold"><path class="cls-7" d="M26.43,93.37a376.21,376.21,0,0,1-3.59-39.8H7.58c.15,3.18.35,6.39.6,9.59A297.57,297.57,0,0,0,12,93.49c0,.19.07.39.11.58H26.53C26.5,93.84,26.46,93.6,26.43,93.37Zm-1.64-.8H13.38A293.51,293.51,0,0,1,9.69,63.16q-.33-4-.54-8.09H21.39c.18,4.6.46,9.32.84,14.06a.41.41,0,0,0,0,.12c.52,6.7,1.22,13.43,2.08,19.89C24.47,90.29,24.63,91.44,24.79,92.57Z"/><path class="cls-5" d="M27.94,93.37c-.2-1.33-.38-2.69-.56-4.05,0-.26-.08-.52-.11-.78l-.12-.91c-.22-1.69-.43-3.41-.63-5.14l-.33-3c-.12-1.14-.23-2.28-.34-3.42,0,0,0,0,0,0-.15-1.44-.28-2.89-.4-4.33-.09-1-.17-2.08-.25-3.12a.45.45,0,0,1,0-.11c-.39-5.07-.68-10.1-.85-15a1.4,1.4,0,0,0-.21-.7,1.48,1.48,0,0,0-1.29-.75H7.58a1.5,1.5,0,0,0-1.09.47,1.48,1.48,0,0,0-.41,1.1c.15,3.16.34,6.34.59,9.52A296.2,296.2,0,0,0,10.6,94l.06.36a1.42,1.42,0,0,0,.66,1,1.47,1.47,0,0,0,.82.25H26.53a1.49,1.49,0,0,0,1.13-.52,1.18,1.18,0,0,0,.13-.18l.06-.11a1.49,1.49,0,0,0,.16-.91C28,93.69,28,93.53,27.94,93.37Zm-3.15-.8H13.38A293.51,293.51,0,0,1,9.69,63.16q-.33-4-.54-8.09H21.39c.18,4.6.46,9.32.84,14.06a.41.41,0,0,0,0,.12c.52,6.7,1.22,13.43,2.08,19.89C24.47,90.29,24.63,91.44,24.79,92.57Z"/><path class="cls-8" d="M17.47,92.57H13.38A293.51,293.51,0,0,1,9.69,63.16q-.33-4-.54-8.09h4.5Z"/><path class="cls-7" d="M24.79,92.57H17.47Q14.65,73,13.65,55.07h7.74c.18,4.6.46,9.32.84,14.06a.41.41,0,0,0,0,.12c.52,6.7,1.22,13.43,2.08,19.89C24.47,90.29,24.63,91.44,24.79,92.57Z"/><path class="cls-7" d="M119.48,54a378.41,378.41,0,0,1-3.57,39.74c0,.25-.07.51-.11.76h14.39c0-.24.09-.47.13-.71A307.8,307.8,0,0,0,134.75,54Zm1.44,1.5h5.9c0,11.49-2.82,24.18-7.15,37.5h-2.14A376.33,376.33,0,0,0,120.92,55.45Z"/><path class="cls-5" d="M135.83,52.91a1.51,1.51,0,0,0-1.08-.46H119.48a1.5,1.5,0,0,0-1.5,1.44,378.22,378.22,0,0,1-3.59,39.79c0,.18,0,.37-.08.55a1.5,1.5,0,0,0,.18,1,1.38,1.38,0,0,0,.17.25,1.51,1.51,0,0,0,1.14.52h14.39a1.51,1.51,0,0,0,1.47-1.23c.06-.29.11-.59.16-.88A304.86,304.86,0,0,0,136.25,54,1.49,1.49,0,0,0,135.83,52.91Zm-6.89,40H117.53a376.33,376.33,0,0,0,3.39-37.5h12.25A302.65,302.65,0,0,1,128.94,93Z"/><path class="cls-8" d="M126.82,55.45c0,11.49-2.82,24.18-7.15,37.5h-2.14a376.33,376.33,0,0,0,3.39-37.5Z"/><path class="cls-7" d="M137.89,53.57H5.22c-1.53,0-3.34,5.79-2.42,10.09a4.93,4.93,0,0,0,4.84,3.86H136.53a4.22,4.22,0,0,0,3.93-2.63C142.09,60.78,140.43,53.57,137.89,53.57ZM4.7,56.85a2.51,2.51,0,0,1,2.39-1.78H137.85c.09,0,.44.3.83,1.14a10.22,10.22,0,0,1,.75,2.61,3.93,3.93,0,0,0-3.36-1.57L7.58,57.72a5.26,5.26,0,0,0-3.52,2.73A14.5,14.5,0,0,1,4.7,56.85Z"/><path class="cls-5" d="M140.8,53.87a3.49,3.49,0,0,0-2.91-1.8H5.23a2.58,2.58,0,0,0-2,1.11C1.64,55.11.48,60,1.33,64a6.45,6.45,0,0,0,6.31,5H136.53a5.68,5.68,0,0,0,5.32-3.58C143.33,61.72,142.48,56.35,140.8,53.87ZM136.53,66H7.64a3.45,3.45,0,0,1-3.38-2.68A10.72,10.72,0,0,1,4,61.07c0-.2,0-.41,0-.61h0a14.5,14.5,0,0,1,.64-3.6,2.51,2.51,0,0,1,2.39-1.78H137.85c.09,0,.44.3.83,1.14a10.22,10.22,0,0,1,.75,2.61c0,.27.08.54.11.82a10.24,10.24,0,0,1-.48,4.69A2.73,2.73,0,0,1,136.53,66Z"/><path class="cls-8" d="M139.43,58.82a3.93,3.93,0,0,0-3.36-1.57L7.58,57.72a5.26,5.26,0,0,0-3.52,2.73,14.5,14.5,0,0,1,.64-3.6,2.51,2.51,0,0,1,2.39-1.78H137.85c.09,0,.44.3.83,1.14A10.22,10.22,0,0,1,139.43,58.82Z"/><path class="cls-7" d="M134.08,97.92a3.24,3.24,0,0,0-3.18-2.68L27.29,94.87h-2l-11.7,0a5.36,5.36,0,0,0-5.41,5.59A12.18,12.18,0,0,0,10,106.65a3.24,3.24,0,0,0,2.7,1.43H130.35a3.23,3.23,0,0,0,2.9-1.78A13.48,13.48,0,0,0,134.08,97.92ZM10.73,97.55a4,4,0,0,1,2.86-1.23h0l117.29.42a1.74,1.74,0,0,1,1.71,1.43,15.49,15.49,0,0,1,.21,1.72,2.7,2.7,0,0,0-2.69-1.69H13.75a4.54,4.54,0,0,0-4.06,2.12A3.74,3.74,0,0,1,10.73,97.55Z"/><path class="cls-5" d="M135.56,97.67a4.73,4.73,0,0,0-4.65-3.93h-.45l-13.07,0h-3L93.19,93.6l-31.58-.11-33.53-.12H25l-11.42,0a7.5,7.5,0,0,0-1.58.17,7,7,0,0,0-3.47,2,6.7,6.7,0,0,0-1.86,5,13.75,13.75,0,0,0,2.1,7,4.73,4.73,0,0,0,3.94,2.09H130.35A4.78,4.78,0,0,0,134.6,107,14.85,14.85,0,0,0,135.56,97.67Zm-5.21,8.91H12.74a1.71,1.71,0,0,1-1.45-.77,10.73,10.73,0,0,1-1.6-5.49,3.74,3.74,0,0,1,1-2.77,4,4,0,0,1,2.86-1.23h0l117.29.42a1.74,1.74,0,0,1,1.71,1.43,15.49,15.49,0,0,1,.21,1.72h0a10.81,10.81,0,0,1-.92,5.74A1.73,1.73,0,0,1,130.35,106.58Z"/><path class="cls-8" d="M132.81,99.89a2.7,2.7,0,0,0-2.69-1.69H13.75a4.54,4.54,0,0,0-4.06,2.12,3.74,3.74,0,0,1,1-2.77,4,4,0,0,1,2.86-1.23h0l117.29.42a1.74,1.74,0,0,1,1.71,1.43A15.49,15.49,0,0,1,132.81,99.89Z"/><line class="cls-6" x1="17.56" y1="93.41" x2="17.47" y2="92.57"/><line class="cls-6" x1="13.65" y1="55.07" x2="13.54" y2="53.95"/><polygon class="cls-9" points="10.33 71.09 132.04 71.09 135.2 69.02 7.17 69.02 10.33 71.09"/></g><g id="fg"><path class="cls-10" d="M15.73,94.07a51.89,51.89,0,0,1-1.27-7.52"/><path class="cls-10" d="M18.62,87.6a37.77,37.77,0,0,0,.8,5.81"/><path class="cls-10" d="M18.58,86.55c0,.35,0,.7,0,1"/><line class="cls-10" x1="87.35" y1="103.15" x2="95.59" y2="103.15"/><line class="cls-10" x1="45.06" y1="99.34" x2="54.56" y2="99.34"/><line class="cls-10" x1="124.43" y1="101.44" x2="134.37" y2="101.44"/><line class="cls-10" x1="3.69" y1="63.16" x2="11.8" y2="63.16"/><line class="cls-10" x1="140.11" y1="57.7" x2="131.15" y2="57.7"/><line class="cls-10" x1="140.85" y1="61.63" x2="135.63" y2="61.63"/></g></g><g id="top"><g id="wood-2" data-name="wood"><path class="cls-1" d="M115.5,15.09h-89c0-.14.05-.28.08-.42.07-.38.14-.74.22-1.1h88.43c.07.37.14.75.22,1.14Z"/><path class="cls-1" d="M113.77,8H28.39a17.26,17.26,0,0,1,.69-1.61h84.06c.21.46.41,1,.61,1.54A.19.19,0,0,1,113.77,8Z"/><g id="background"><path class="cls-2" d="M117.63,53H24.17c-.1-6.8,0-13.52.36-19.71,0-.77.08-1.53.13-2.28s.09-1.29.13-1.92h92.3c.07.88.12,1.77.17,2.67C117.64,38.37,117.76,45.63,117.63,53Z"/><path class="cls-2" d="M116.75,24.79H25.15c.05-.55.11-1.09.17-1.61s.11-1,.16-1.48c.12-.92.23-1.81.35-2.67q.09-.6.18-1.17c0-.23.07-.46.11-.69s0-.2.05-.3c.08-.5.16-1,.25-1.44a3.4,3.4,0,0,1,.07-.34h89l.12.64c.13.84.27,1.71.39,2.62l.18,1.31.12.9c.07.61.14,1.23.21,1.87,0,.31.07.63.1,1S116.71,24.32,116.75,24.79Z"/><path class="cls-2" d="M114.54,10.57h-87c.11-.4.23-.79.35-1.16s.33-1,.51-1.43h85.38l.18.54c.07.21.13.42.2.64s.13.45.19.69S114.47,10.32,114.54,10.57Z"/><path class="cls-1" d="M117.09,29.06H24.79c0-.43.07-.85.1-1.27H117Z"/><line class="cls-6" x1="118.05" y1="29.06" x2="117.09" y2="29.06"/><line class="cls-6" x1="24.79" y1="29.06" x2="24.13" y2="29.06"/><polyline class="cls-6" points="25.3 15.09 26.48 15.09 26.49 15.09"/><polyline class="cls-6" points="115.5 15.09 115.51 15.09 116.34 15.09"/><line class="cls-6" x1="114.91" y1="7.98" x2="113.77" y2="7.98"/><line class="cls-6" x1="28.39" y1="7.98" x2="27.53" y2="7.98"/></g><g id="stripes"><path class="cls-3" d="M27.33,9.43A46.83,46.83,0,0,0,36,8.28a82.07,82.07,0,0,0,10.29-2.5"/><path class="cls-3" d="M26.35,15.43a31.76,31.76,0,0,0,5.93-.34,10.8,10.8,0,0,0,5.35-2.43"/><path class="cls-3" d="M25.51,19c5.31.32,10.53-1.26,15.62-2.81l13-4"/><path class="cls-3" d="M51.68,11.69a13,13,0,0,1,9.21-3.82C64,7.88,67,9,69.88,10s6,1.83,9.09,1.32"/><path class="cls-3" d="M77,5.91a5.75,5.75,0,0,0,1.46.85,21.81,21.81,0,0,0,10.3,1.79,21.85,21.85,0,0,0,9.94-3.24"/><path class="cls-3" d="M90,11.69c3.94.1,7.62-1.79,11.4-2.89a29.6,29.6,0,0,1,13.49-.72"/><path class="cls-3" d="M37.83,11.23C42.16,9.68,46.57,8.4,51,7.12a32.79,32.79,0,0,1,6.9-1.48"/><path class="cls-3" d="M25,21.68c5.72.31,11.39-.89,17-2.09l36.25-7.72"/><path class="cls-3" d="M33.64,25.46l15.54-4.18c3.28-.88,6.55-1.77,9.88-2.41a48.08,48.08,0,0,1,5.07-.77,34.86,34.86,0,0,1,9,.33,28.13,28.13,0,0,1,8,3.12c3.31,1.74,6.6,3.68,10.28,4.32"/><path class="cls-3" d="M99,26.19c2.84-.16,5.23-2.1,7.88-3.12a12.73,12.73,0,0,1,10.52.71"/><path class="cls-3" d="M99.49,13.05a6.46,6.46,0,0,1,2.83,1,17.16,17.16,0,0,1,2.56,2.18,16.23,16.23,0,0,0,8.15,4,4.8,4.8,0,0,0,2.44-.08,2,2,0,0,0,1.38-1.84"/><path class="cls-3" d="M106.34,12.84l3.33,2.21a6.76,6.76,0,0,0,2.21,1.11A3.51,3.51,0,0,0,115.8,14"/><path class="cls-3" d="M51.13,25.27a50,50,0,0,1,9.66-3.67A17,17,0,0,1,71,22.09a24.89,24.89,0,0,1,5.54,3.5"/><path class="cls-3" d="M59.21,25.35A13.65,13.65,0,0,1,61.89,24a5.51,5.51,0,0,1,3.16-.58,8.83,8.83,0,0,1,3.45,1.2A6.09,6.09,0,0,0,72,25.78"/><ellipse class="cls-3" cx="90.53" cy="16.8" rx="1.71" ry="6.07" transform="translate(61.51 104.18) rotate(-82.14)"/><ellipse class="cls-3" cx="90.29" cy="16.89" rx="4.05" ry="12.98" transform="translate(61.21 104.02) rotate(-82.14)"/><path class="cls-3" d="M83.07,27.29a15.17,15.17,0,0,0,21.81-.35"/><path class="cls-3" d="M92.22,27.54a13.7,13.7,0,0,0,2.42,1.14,4.54,4.54,0,0,0,2.63.13,2.77,2.77,0,0,0,1.9-1.73"/><path class="cls-3" d="M64.82,27.23c2.22.66,4.42,1.37,6.64,2l7.6,2.18C84.47,33,90,34.52,95.61,34.3s11.47-2.55,14.53-7.28"/><path class="cls-3" d="M118.08,30.44a13,13,0,0,1-5,4.84,31.61,31.61,0,0,1-12.15,4.31"/><path class="cls-3" d="M34.32,39.09a50.91,50.91,0,0,1,39.35-5C80.37,36,87,39.4,93.92,38.53"/><path class="cls-3" d="M46.81,38.63a18.13,18.13,0,0,1,9.1-3.31c8.56-.66,16.7,4.76,25.26,4.21"/><path class="cls-3" d="M23.77,32.74C26.63,35,30.52,35.5,34.11,35a40.64,40.64,0,0,0,10.28-3.43l12.38-5.4"/><path class="cls-3" d="M23.74,29.34a3.89,3.89,0,0,0,2.34,2.6,7.53,7.53,0,0,0,3.59.41,14.15,14.15,0,0,0,9.47-5.05"/></g><path id="wood_casing" data-name="wood casing" class="cls-5" d="M120,27.79h0l-.14-1.62a111.1,111.1,0,0,0-2-14.42h0l-.26-1.17h0a26.88,26.88,0,0,0-2.25-6.43c-.1-.18-.2-.35-.31-.52V3.37H26.94v.71h0a25.16,25.16,0,0,0-2.51,6.5h0l-.27,1.15A106,106,0,0,0,22,26.16l-.14,1.63h0c-.6,7.61-.83,16.33-.7,25.18h3c-.1-6.8,0-13.52.36-19.71,0-.77.08-1.53.13-2.28s.09-1.29.13-1.92c0-.43.07-.85.1-1.27H117l.09,1.27c.07.88.12,1.77.17,2.67.38,6.64.5,13.9.37,21.24h3C120.78,44.16,120.57,35.45,120,27.79ZM27.88,9.41c.17-.51.33-1,.51-1.43a17.26,17.26,0,0,1,.69-1.61h84.06c.21.46.41,1,.61,1.54a.19.19,0,0,1,0,.07l.18.54c.07.21.13.42.2.64s.13.45.19.69.13.47.2.72h-87C27.64,10.17,27.76,9.78,27.88,9.41ZM25.15,24.79c.05-.55.11-1.08.17-1.61s.11-1,.16-1.48c.12-.92.23-1.81.35-2.67q.09-.6.18-1.17c0-.23.07-.46.11-.69s0-.2.05-.3c.07-.49.16-1,.25-1.44l.06-.34h0c0-.14.05-.28.08-.42.06-.38.14-.74.22-1.1h88.43c.07.37.14.75.22,1.14l.06.38h0c0,.21.07.42.11.64.13.84.27,1.71.39,2.62l.18,1.31.12.9c.07.61.14,1.23.21,1.87,0,.31.07.63.1,1s.09.93.13,1.4Z"/></g><g id="gold-2" data-name="gold"><path class="cls-7" d="M15.67,1.5a2.44,2.44,0,0,0-2,1.08C9.56,8.75,7.74,21.9,7.53,37.33c0,.5,0,1,0,1.5H22.89l0-1.5c.35-16,2.38-29.73,7.16-35.83Zm5.74,35.83H9c.24-16.52,2.31-28.54,5.86-33.92A.92.92,0,0,1,15.67,3H27.32C23.75,9.51,21.77,21,21.41,37.33Z"/><path class="cls-5" d="M31.43.85A1.52,1.52,0,0,0,30.08,0H15.67a3.94,3.94,0,0,0-3.3,1.76C7.46,9.2,6.19,25,6,37.43c0,.47,0,.93,0,1.39A.57.57,0,0,0,6,39a1.46,1.46,0,0,0,.42.94,1.52,1.52,0,0,0,1.07.44H22.89a1.5,1.5,0,0,0,1.5-1.47v0l0-1.5c.39-17.59,2.74-29.63,6.81-34.86l0,0A1.51,1.51,0,0,0,31.43.85ZM9,37.33c.24-16.52,2.31-28.54,5.86-33.92A.92.92,0,0,1,15.67,3H27.32c-3.57,6.51-5.55,18-5.91,34.33Z"/><path class="cls-8" d="M20.92,3c-5,9.53-7.2,21.29-7.74,34.33H9c.24-16.52,2.31-28.54,5.86-33.92A.92.92,0,0,1,15.67,3Z"/><path class="cls-11" d="M135.43,37.33c-.21-15.31-2-28.37-6-34.6a2.73,2.73,0,0,0-2.31-1.23H112.87c4.79,6.1,6.81,19.85,7.16,35.83l0,1.5h15.39C135.45,38.33,135.44,37.83,135.43,37.33Zm-13.9,0C121.17,21,119.19,9.5,115.63,3h11.48a1.23,1.23,0,0,1,1,.54c3.5,5.45,5.54,17.42,5.78,33.79Z"/><path class="cls-5" d="M136.94,37.37C136.76,25,135.5,9.42,130.68,1.92A4.22,4.22,0,0,0,127.11,0H112.87a1.49,1.49,0,0,0-1.35.85,1.47,1.47,0,0,0,.12,1.51l0,.07c4.08,5.2,6.45,17.26,6.84,34.9l0,1.5v0a1.5,1.5,0,0,0,1.5,1.47h15.39a1.5,1.5,0,0,0,1.06-.44,1.48,1.48,0,0,0,.43-1,.13.13,0,0,0,0-.06C137,38.34,136.94,37.86,136.94,37.37ZM127.11,3a1.23,1.23,0,0,1,1,.54c3.5,5.45,5.54,17.42,5.78,33.79h-12.4C121.17,21,119.19,9.5,115.63,3Z"/><path class="cls-7" d="M133.93,37.33h-5.29c0-13-1.24-25.25-7.36-34.33h5.83a1.23,1.23,0,0,1,1,.54C131.65,9,133.69,21,133.93,37.33Z"/><path class="cls-7" d="M140.45,41.59a4.42,4.42,0,0,0-4.14-2.76H7.17A5.62,5.62,0,0,0,1.54,44c-.29,4.09,1.19,9,2.56,9H138.52C141.21,53,142.19,46,140.45,41.59ZM7.17,40.33H136.31a2.93,2.93,0,0,1,2.74,1.81,11.33,11.33,0,0,1,.55,2c-.75-1.32-2.15-1.73-3.83-1.83H6.32c-1.72,0-2.81.61-3.29,1.84A4.12,4.12,0,0,1,7.17,40.33Z"/><path class="cls-5" d="M141.84,41.05a5.88,5.88,0,0,0-4.9-3.68,4.44,4.44,0,0,0-.63,0H7.17a6.23,6.23,0,0,0-1.15.1,7.09,7.09,0,0,0-6,6.48C-.22,47.57.82,52,2.32,53.62a2.41,2.41,0,0,0,1.78.85H138.52a3.41,3.41,0,0,0,2.81-1.65C143.1,50.22,143.34,44.83,141.84,41.05ZM139,50.87c-.25.46-1.12.59-1.16.6H4.42c-.6-.79-1.62-4-1.39-7.36a4.12,4.12,0,0,1,4.14-3.78H136.31a2.93,2.93,0,0,1,2.74,1.81,11.33,11.33,0,0,1,.55,2h0A11.78,11.78,0,0,1,139,50.87Z"/><path class="cls-8" d="M139.6,44.1c-.75-1.32-2.15-1.73-3.83-1.83H6.32c-1.72,0-2.81.61-3.29,1.84a4.12,4.12,0,0,1,4.14-3.78H136.31a2.93,2.93,0,0,1,2.74,1.81A11.33,11.33,0,0,1,139.6,44.1Z"/><path class="cls-12" d="M113.46,1.81q-1.18-2.34-2.39,2.4"/><path class="cls-12" d="M29.36,1.81q1.2-2.34,2.4,2.4"/><path class="cls-7" d="M139.6,44.1H3c.48-1.23,1.57-1.83,3.29-1.84H135.77C137.45,42.37,138.85,42.78,139.6,44.1Z"/><path class="cls-7" d="M27.32,3c-3.57,6.51-5.55,18-5.91,34.33H13.18c.54-13,2.72-24.8,7.74-34.33Z"/><path class="cls-8" d="M128.64,37.33h-7.11C121.17,21,119.19,9.5,115.63,3h5.65C127.4,12.08,128.65,24.3,128.64,37.33Z"/></g><g id="fg-2" data-name="fg"><path class="cls-13" d="M56.12,61.85h6.64v8.79H80.65V61.85h7.29V50.32c0-17.78-31.82-17.78-31.82,0Z"/><line class="cls-14" x1="68.68" y1="61.39" x2="68.68" y2="70.64"/><line class="cls-14" x1="74.73" y1="61.39" x2="74.73" y2="70.64"/><rect class="cls-15" x="62.2" y="48.5" width="8.23" height="8.23" rx="2.59"/><rect class="cls-15" x="73" y="48.5" width="8.23" height="8.23" rx="2.59"/><path class="cls-16" d="M69.47,40.66c-3.8-.64-7.78.86-8.51,4.22a.39.39,0,0,0,.63.38,34,34,0,0,1,7.94-3.79A.42.42,0,0,0,69.47,40.66Z"/><path class="cls-17" d="M69.21,54.1a.55.55,0,0,1,.51.77A2.35,2.35,0,0,1,68,56.22H65a2.15,2.15,0,0,1-1.86-1.35.56.56,0,0,1,.52-.77Z"/><path class="cls-17" d="M79.88,54.1a.55.55,0,0,1,.51.77,2.35,2.35,0,0,1-1.72,1.35h-3a2.13,2.13,0,0,1-1.85-1.35.55.55,0,0,1,.51-.77Z"/><line class="cls-6" x1="62.96" y1="54.1" x2="62.95" y2="54.1"/></g></g></g></g></svg>