<svg width="96" height="96" viewBox="0 0 96 96" fill="none" xmlns="http://www.w3.org/2000/svg">
<g clip-path="url(#clip0_2_609)">
<rect width="96" height="96" fill="white"/>
<rect width="4" height="4" fill="black"/>
<rect x="8" width="4" height="4" fill="black"/>
<rect x="16" width="4" height="4" fill="black"/>
<rect x="24" width="4" height="4" fill="black"/>
<rect x="32" width="4" height="4" fill="black"/>
<rect x="40" width="4" height="4" fill="black"/>
<rect x="48" width="4" height="4" fill="black"/>
<rect x="56" width="4" height="4" fill="black"/>
<rect x="64" width="4" height="4" fill="black"/>
<rect x="72" width="4" height="4" fill="black"/>
<rect x="80" width="4" height="4" fill="black"/>
<rect x="88" width="4" height="4" fill="black"/>
<rect x="4" y="4" width="4" height="4" fill="black"/>
<rect x="12" y="4" width="4" height="4" fill="black"/>
<rect x="20" y="4" width="4" height="4" fill="black"/>
<rect x="28" y="4" width="4" height="4" fill="black"/>
<rect x="36" y="4" width="4" height="4" fill="black"/>
<rect x="44" y="4" width="4" height="4" fill="black"/>
<rect x="52" y="4" width="4" height="4" fill="black"/>
<rect x="60" y="4" width="4" height="4" fill="black"/>
<rect x="68" y="4" width="4" height="4" fill="black"/>
<rect x="76" y="4" width="4" height="4" fill="black"/>
<rect x="84" y="4" width="4" height="4" fill="black"/>
<rect x="92" y="4" width="4" height="4" fill="black"/>
<rect y="8" width="4" height="4" fill="black"/>
<rect x="8" y="8" width="4" height="4" fill="black"/>
<rect x="16" y="8" width="4" height="4" fill="black"/>
<rect x="24" y="8" width="4" height="4" fill="black"/>
<rect x="32" y="8" width="4" height="4" fill="black"/>
<rect x="40" y="8" width="4" height="4" fill="black"/>
<rect x="48" y="8" width="4" height="4" fill="black"/>
<rect x="56" y="8" width="4" height="4" fill="black"/>
<rect x="64" y="8" width="4" height="4" fill="black"/>
<rect x="72" y="8" width="4" height="4" fill="black"/>
<rect x="80" y="8" width="4" height="4" fill="black"/>
<rect x="88" y="8" width="4" height="4" fill="black"/>
<rect x="4" y="12" width="4" height="4" fill="black"/>
<rect x="12" y="12" width="4" height="4" fill="black"/>
<rect x="20" y="12" width="4" height="4" fill="black"/>
<rect x="28" y="12" width="4" height="4" fill="black"/>
<rect x="36" y="12" width="4" height="4" fill="black"/>
<rect x="44" y="12" width="4" height="4" fill="black"/>
<rect x="52" y="12" width="4" height="4" fill="black"/>
<rect x="60" y="12" width="4" height="4" fill="black"/>
<rect x="68" y="12" width="4" height="4" fill="black"/>
<rect x="76" y="12" width="4" height="4" fill="black"/>
<rect x="84" y="12" width="4" height="4" fill="black"/>
<rect x="92" y="12" width="4" height="4" fill="black"/>
<rect y="16" width="4" height="4" fill="black"/>
<rect x="8" y="16" width="4" height="4" fill="black"/>
<rect x="16" y="16" width="4" height="4" fill="black"/>
<rect x="24" y="16" width="4" height="4" fill="black"/>
<rect x="32" y="16" width="4" height="4" fill="black"/>
<rect x="40" y="16" width="4" height="4" fill="black"/>
<rect x="48" y="16" width="4" height="4" fill="black"/>
<rect x="56" y="16" width="4" height="4" fill="black"/>
<rect x="64" y="16" width="4" height="4" fill="black"/>
<rect x="72" y="16" width="4" height="4" fill="black"/>
<rect x="80" y="16" width="4" height="4" fill="black"/>
<rect x="88" y="16" width="4" height="4" fill="black"/>
<rect x="4" y="20" width="4" height="4" fill="black"/>
<rect x="12" y="20" width="4" height="4" fill="black"/>
<rect x="20" y="20" width="4" height="4" fill="black"/>
<rect x="28" y="20" width="4" height="4" fill="black"/>
<rect x="36" y="20" width="4" height="4" fill="black"/>
<rect x="44" y="20" width="4" height="4" fill="black"/>
<rect x="52" y="20" width="4" height="4" fill="black"/>
<rect x="60" y="20" width="4" height="4" fill="black"/>
<rect x="68" y="20" width="4" height="4" fill="black"/>
<rect x="76" y="20" width="4" height="4" fill="black"/>
<rect x="84" y="20" width="4" height="4" fill="black"/>
<rect x="92" y="20" width="4" height="4" fill="black"/>
<rect y="24" width="4" height="4" fill="black"/>
<rect x="8" y="24" width="4" height="4" fill="black"/>
<rect x="16" y="24" width="4" height="4" fill="black"/>
<rect x="24" y="24" width="4" height="4" fill="black"/>
<rect x="32" y="24" width="4" height="4" fill="black"/>
<rect x="40" y="24" width="4" height="4" fill="black"/>
<rect x="48" y="24" width="4" height="4" fill="black"/>
<rect x="56" y="24" width="4" height="4" fill="black"/>
<rect x="64" y="24" width="4" height="4" fill="black"/>
<rect x="72" y="24" width="4" height="4" fill="black"/>
<rect x="80" y="24" width="4" height="4" fill="black"/>
<rect x="88" y="24" width="4" height="4" fill="black"/>
<rect x="4" y="28" width="4" height="4" fill="black"/>
<rect x="12" y="28" width="4" height="4" fill="black"/>
<rect x="20" y="28" width="4" height="4" fill="black"/>
<rect x="28" y="28" width="4" height="4" fill="black"/>
<rect x="36" y="28" width="4" height="4" fill="black"/>
<rect x="44" y="28" width="4" height="4" fill="black"/>
<rect x="52" y="28" width="4" height="4" fill="black"/>
<rect x="60" y="28" width="4" height="4" fill="black"/>
<rect x="68" y="28" width="4" height="4" fill="black"/>
<rect x="76" y="28" width="4" height="4" fill="black"/>
<rect x="84" y="28" width="4" height="4" fill="black"/>
<rect x="92" y="28" width="4" height="4" fill="black"/>
<rect y="32" width="4" height="4" fill="black"/>
<rect x="8" y="32" width="4" height="4" fill="black"/>
<rect x="16" y="32" width="4" height="4" fill="black"/>
<rect x="24" y="32" width="4" height="4" fill="black"/>
<rect x="32" y="32" width="4" height="4" fill="black"/>
<rect x="40" y="32" width="4" height="4" fill="black"/>
<rect x="48" y="32" width="4" height="4" fill="black"/>
<rect x="56" y="32" width="4" height="4" fill="black"/>
<rect x="64" y="32" width="4" height="4" fill="black"/>
<rect x="72" y="32" width="4" height="4" fill="black"/>
<rect x="80" y="32" width="4" height="4" fill="black"/>
<rect x="88" y="32" width="4" height="4" fill="black"/>
<rect x="4" y="36" width="4" height="4" fill="black"/>
<rect x="12" y="36" width="4" height="4" fill="black"/>
<rect x="20" y="36" width="4" height="4" fill="black"/>
<rect x="28" y="36" width="4" height="4" fill="black"/>
<rect x="36" y="36" width="4" height="4" fill="black"/>
<rect x="44" y="36" width="4" height="4" fill="black"/>
<rect x="52" y="36" width="4" height="4" fill="black"/>
<rect x="60" y="36" width="4" height="4" fill="black"/>
<rect x="68" y="36" width="4" height="4" fill="black"/>
<rect x="76" y="36" width="4" height="4" fill="black"/>
<rect x="84" y="36" width="4" height="4" fill="black"/>
<rect x="92" y="36" width="4" height="4" fill="black"/>
<rect y="40" width="4" height="4" fill="black"/>
<rect x="8" y="40" width="4" height="4" fill="black"/>
<rect x="16" y="40" width="4" height="4" fill="black"/>
<rect x="24" y="40" width="4" height="4" fill="black"/>
<rect x="32" y="40" width="4" height="4" fill="black"/>
<rect x="40" y="40" width="4" height="4" fill="black"/>
<rect x="48" y="40" width="4" height="4" fill="black"/>
<rect x="56" y="40" width="4" height="4" fill="black"/>
<rect x="64" y="40" width="4" height="4" fill="black"/>
<rect x="72" y="40" width="4" height="4" fill="black"/>
<rect x="80" y="40" width="4" height="4" fill="black"/>
<rect x="88" y="40" width="4" height="4" fill="black"/>
<rect x="4" y="44" width="4" height="4" fill="black"/>
<rect x="12" y="44" width="4" height="4" fill="black"/>
<rect x="20" y="44" width="4" height="4" fill="black"/>
<rect x="28" y="44" width="4" height="4" fill="black"/>
<rect x="36" y="44" width="4" height="4" fill="black"/>
<rect x="44" y="44" width="4" height="4" fill="black"/>
<rect x="52" y="44" width="4" height="4" fill="black"/>
<rect x="60" y="44" width="4" height="4" fill="black"/>
<rect x="68" y="44" width="4" height="4" fill="black"/>
<rect x="76" y="44" width="4" height="4" fill="black"/>
<rect x="84" y="44" width="4" height="4" fill="black"/>
<rect x="92" y="44" width="4" height="4" fill="black"/>
<rect y="48" width="4" height="4" fill="black"/>
<rect x="8" y="48" width="4" height="4" fill="black"/>
<rect x="16" y="48" width="4" height="4" fill="black"/>
<rect x="24" y="48" width="4" height="4" fill="black"/>
<rect x="32" y="48" width="4" height="4" fill="black"/>
<rect x="40" y="48" width="4" height="4" fill="black"/>
<rect x="48" y="48" width="4" height="4" fill="black"/>
<rect x="56" y="48" width="4" height="4" fill="black"/>
<rect x="64" y="48" width="4" height="4" fill="black"/>
<rect x="72" y="48" width="4" height="4" fill="black"/>
<rect x="80" y="48" width="4" height="4" fill="black"/>
<rect x="88" y="48" width="4" height="4" fill="black"/>
<rect x="4" y="52" width="4" height="4" fill="black"/>
<rect x="12" y="52" width="4" height="4" fill="black"/>
<rect x="20" y="52" width="4" height="4" fill="black"/>
<rect x="28" y="52" width="4" height="4" fill="black"/>
<rect x="36" y="52" width="4" height="4" fill="black"/>
<rect x="44" y="52" width="4" height="4" fill="black"/>
<rect x="52" y="52" width="4" height="4" fill="black"/>
<rect x="60" y="52" width="4" height="4" fill="black"/>
<rect x="68" y="52" width="4" height="4" fill="black"/>
<rect x="76" y="52" width="4" height="4" fill="black"/>
<rect x="84" y="52" width="4" height="4" fill="black"/>
<rect x="92" y="52" width="4" height="4" fill="black"/>
<rect y="56" width="4" height="4" fill="black"/>
<rect x="8" y="56" width="4" height="4" fill="black"/>
<rect x="16" y="56" width="4" height="4" fill="black"/>
<rect x="24" y="56" width="4" height="4" fill="black"/>
<rect x="32" y="56" width="4" height="4" fill="black"/>
<rect x="40" y="56" width="4" height="4" fill="black"/>
<rect x="48" y="56" width="4" height="4" fill="black"/>
<rect x="56" y="56" width="4" height="4" fill="black"/>
<rect x="64" y="56" width="4" height="4" fill="black"/>
<rect x="72" y="56" width="4" height="4" fill="black"/>
<rect x="80" y="56" width="4" height="4" fill="black"/>
<rect x="88" y="56" width="4" height="4" fill="black"/>
<rect x="4" y="60" width="4" height="4" fill="black"/>
<rect x="12" y="60" width="4" height="4" fill="black"/>
<rect x="20" y="60" width="4" height="4" fill="black"/>
<rect x="28" y="60" width="4" height="4" fill="black"/>
<rect x="36" y="60" width="4" height="4" fill="black"/>
<rect x="44" y="60" width="4" height="4" fill="black"/>
<rect x="52" y="60" width="4" height="4" fill="black"/>
<rect x="60" y="60" width="4" height="4" fill="black"/>
<rect x="68" y="60" width="4" height="4" fill="black"/>
<rect x="76" y="60" width="4" height="4" fill="black"/>
<rect x="84" y="60" width="4" height="4" fill="black"/>
<rect x="92" y="60" width="4" height="4" fill="black"/>
<rect y="64" width="4" height="4" fill="black"/>
<rect x="8" y="64" width="4" height="4" fill="black"/>
<rect x="16" y="64" width="4" height="4" fill="black"/>
<rect x="24" y="64" width="4" height="4" fill="black"/>
<rect x="32" y="64" width="4" height="4" fill="black"/>
<rect x="40" y="64" width="4" height="4" fill="black"/>
<rect x="48" y="64" width="4" height="4" fill="black"/>
<rect x="56" y="64" width="4" height="4" fill="black"/>
<rect x="64" y="64" width="4" height="4" fill="black"/>
<rect x="72" y="64" width="4" height="4" fill="black"/>
<rect x="80" y="64" width="4" height="4" fill="black"/>
<rect x="88" y="64" width="4" height="4" fill="black"/>
<rect x="4" y="68" width="4" height="4" fill="black"/>
<rect x="12" y="68" width="4" height="4" fill="black"/>
<rect x="20" y="68" width="4" height="4" fill="black"/>
<rect x="28" y="68" width="4" height="4" fill="black"/>
<rect x="36" y="68" width="4" height="4" fill="black"/>
<rect x="44" y="68" width="4" height="4" fill="black"/>
<rect x="52" y="68" width="4" height="4" fill="black"/>
<rect x="60" y="68" width="4" height="4" fill="black"/>
<rect x="68" y="68" width="4" height="4" fill="black"/>
<rect x="76" y="68" width="4" height="4" fill="black"/>
<rect x="84" y="68" width="4" height="4" fill="black"/>
<rect x="92" y="68" width="4" height="4" fill="black"/>
<rect y="72" width="4" height="4" fill="black"/>
<rect x="8" y="72" width="4" height="4" fill="black"/>
<rect x="16" y="72" width="4" height="4" fill="black"/>
<rect x="24" y="72" width="4" height="4" fill="black"/>
<rect x="32" y="72" width="4" height="4" fill="black"/>
<rect x="40" y="72" width="4" height="4" fill="black"/>
<rect x="48" y="72" width="4" height="4" fill="black"/>
<rect x="56" y="72" width="4" height="4" fill="black"/>
<rect x="64" y="72" width="4" height="4" fill="black"/>
<rect x="72" y="72" width="4" height="4" fill="black"/>
<rect x="80" y="72" width="4" height="4" fill="black"/>
<rect x="88" y="72" width="4" height="4" fill="black"/>
<rect x="4" y="76" width="4" height="4" fill="black"/>
<rect x="12" y="76" width="4" height="4" fill="black"/>
<rect x="20" y="76" width="4" height="4" fill="black"/>
<rect x="28" y="76" width="4" height="4" fill="black"/>
<rect x="36" y="76" width="4" height="4" fill="black"/>
<rect x="44" y="76" width="4" height="4" fill="black"/>
<rect x="52" y="76" width="4" height="4" fill="black"/>
<rect x="60" y="76" width="4" height="4" fill="black"/>
<rect x="68" y="76" width="4" height="4" fill="black"/>
<rect x="76" y="76" width="4" height="4" fill="black"/>
<rect x="84" y="76" width="4" height="4" fill="black"/>
<rect x="92" y="76" width="4" height="4" fill="black"/>
<rect y="80" width="4" height="4" fill="black"/>
<rect x="8" y="80" width="4" height="4" fill="black"/>
<rect x="16" y="80" width="4" height="4" fill="black"/>
<rect x="24" y="80" width="4" height="4" fill="black"/>
<rect x="32" y="80" width="4" height="4" fill="black"/>
<rect x="40" y="80" width="4" height="4" fill="black"/>
<rect x="48" y="80" width="4" height="4" fill="black"/>
<rect x="56" y="80" width="4" height="4" fill="black"/>
<rect x="64" y="80" width="4" height="4" fill="black"/>
<rect x="72" y="80" width="4" height="4" fill="black"/>
<rect x="80" y="80" width="4" height="4" fill="black"/>
<rect x="88" y="80" width="4" height="4" fill="black"/>
<rect x="4" y="84" width="4" height="4" fill="black"/>
<rect x="12" y="84" width="4" height="4" fill="black"/>
<rect x="20" y="84" width="4" height="4" fill="black"/>
<rect x="28" y="84" width="4" height="4" fill="black"/>
<rect x="36" y="84" width="4" height="4" fill="black"/>
<rect x="44" y="84" width="4" height="4" fill="black"/>
<rect x="52" y="84" width="4" height="4" fill="black"/>
<rect x="60" y="84" width="4" height="4" fill="black"/>
<rect x="68" y="84" width="4" height="4" fill="black"/>
<rect x="76" y="84" width="4" height="4" fill="black"/>
<rect x="84" y="84" width="4" height="4" fill="black"/>
<rect x="92" y="84" width="4" height="4" fill="black"/>
<rect y="88" width="4" height="4" fill="black"/>
<rect x="8" y="88" width="4" height="4" fill="black"/>
<rect x="16" y="88" width="4" height="4" fill="black"/>
<rect x="24" y="88" width="4" height="4" fill="black"/>
<rect x="32" y="88" width="4" height="4" fill="black"/>
<rect x="40" y="88" width="4" height="4" fill="black"/>
<rect x="48" y="88" width="4" height="4" fill="black"/>
<rect x="56" y="88" width="4" height="4" fill="black"/>
<rect x="64" y="88" width="4" height="4" fill="black"/>
<rect x="72" y="88" width="4" height="4" fill="black"/>
<rect x="80" y="88" width="4" height="4" fill="black"/>
<rect x="88" y="88" width="4" height="4" fill="black"/>
<rect x="4" y="92" width="4" height="4" fill="black"/>
<rect x="12" y="92" width="4" height="4" fill="black"/>
<rect x="20" y="92" width="4" height="4" fill="black"/>
<rect x="28" y="92" width="4" height="4" fill="black"/>
<rect x="36" y="92" width="4" height="4" fill="black"/>
<rect x="44" y="92" width="4" height="4" fill="black"/>
<rect x="52" y="92" width="4" height="4" fill="black"/>
<rect x="60" y="92" width="4" height="4" fill="black"/>
<rect x="68" y="92" width="4" height="4" fill="black"/>
<rect x="76" y="92" width="4" height="4" fill="black"/>
<rect x="84" y="92" width="4" height="4" fill="black"/>
<rect x="92" y="92" width="4" height="4" fill="black"/>
</g>
<defs>
<clipPath id="clip0_2_609">
<rect width="96" height="96" fill="white"/>
</clipPath>
</defs>
</svg>
