<svg width="100" height="100" viewBox="0 0 100 100" fill="none" xmlns="http://www.w3.org/2000/svg">
<rect width="100" height="10" fill="white"/>
<circle cx="3" cy="5" r="3" fill="black"/>
<circle cx="3" cy="5" r="3" fill="black"/>
<circle cx="3" cy="5" r="3" fill="black"/>
<circle cx="3" cy="5" r="3" fill="black"/>
<circle cx="3" cy="5" r="3" fill="black"/>
<circle cx="20" cy="5" r="3" fill="black"/>
<circle cx="20" cy="5" r="3" fill="black"/>
<circle cx="20" cy="5" r="3" fill="black"/>
<circle cx="20" cy="5" r="3" fill="black"/>
<circle cx="20" cy="5" r="3" fill="black"/>
<circle cx="37" cy="5" r="3" fill="black"/>
<circle cx="37" cy="5" r="3" fill="black"/>
<circle cx="37" cy="5" r="3" fill="black"/>
<circle cx="37" cy="5" r="3" fill="black"/>
<circle cx="37" cy="5" r="3" fill="black"/>
<circle cx="54" cy="5" r="3" fill="black"/>
<circle cx="54" cy="5" r="3" fill="black"/>
<circle cx="54" cy="5" r="3" fill="black"/>
<circle cx="54" cy="5" r="3" fill="black"/>
<circle cx="54" cy="5" r="3" fill="black"/>
<circle cx="71" cy="5" r="3" fill="black"/>
<circle cx="71" cy="5" r="3" fill="black"/>
<circle cx="71" cy="5" r="3" fill="black"/>
<circle cx="71" cy="5" r="3" fill="black"/>
<circle cx="71" cy="5" r="3" fill="black"/>
<circle cx="88" cy="5" r="3" fill="black"/>
<circle cx="88" cy="5" r="3" fill="black"/>
<circle cx="88" cy="5" r="3" fill="black"/>
<circle cx="88" cy="5" r="3" fill="black"/>
<circle cx="88" cy="5" r="3" fill="black"/>
<rect width="100" height="10" transform="translate(0 10)" fill="white"/>
<circle cx="17" cy="15" r="3" fill="black"/>
<circle cx="17" cy="15" r="3" fill="black"/>
<circle cx="17" cy="15" r="3" fill="black"/>
<circle cx="17" cy="15" r="3" fill="black"/>
<circle cx="17" cy="15" r="3" fill="black"/>
<circle cx="33" cy="15" r="3" fill="black"/>
<circle cx="33" cy="15" r="3" fill="black"/>
<circle cx="33" cy="15" r="3" fill="black"/>
<circle cx="33" cy="15" r="3" fill="black"/>
<circle cx="33" cy="15" r="3" fill="black"/>
<circle cx="49" cy="15" r="3" fill="black"/>
<circle cx="49" cy="15" r="3" fill="black"/>
<circle cx="49" cy="15" r="3" fill="black"/>
<circle cx="49" cy="15" r="3" fill="black"/>
<circle cx="49" cy="15" r="3" fill="black"/>
<circle cx="65" cy="15" r="3" fill="black"/>
<circle cx="65" cy="15" r="3" fill="black"/>
<circle cx="65" cy="15" r="3" fill="black"/>
<circle cx="65" cy="15" r="3" fill="black"/>
<circle cx="65" cy="15" r="3" fill="black"/>
<circle cx="81" cy="15" r="3" fill="black"/>
<circle cx="81" cy="15" r="3" fill="black"/>
<circle cx="81" cy="15" r="3" fill="black"/>
<circle cx="81" cy="15" r="3" fill="black"/>
<circle cx="81" cy="15" r="3" fill="black"/>
<circle cx="97" cy="15" r="3" fill="black"/>
<circle cx="97" cy="15" r="3" fill="black"/>
<circle cx="97" cy="15" r="3" fill="black"/>
<circle cx="97" cy="15" r="3" fill="black"/>
<circle cx="97" cy="15" r="3" fill="black"/>
<rect width="100" height="10" transform="translate(0 20)" fill="white"/>
<circle cx="3" cy="25" r="3" fill="black"/>
<circle cx="3" cy="25" r="3" fill="black"/>
<circle cx="3" cy="25" r="3" fill="black"/>
<circle cx="3" cy="25" r="3" fill="black"/>
<circle cx="3" cy="25" r="3" fill="black"/>
<circle cx="20" cy="25" r="3" fill="black"/>
<circle cx="20" cy="25" r="3" fill="black"/>
<circle cx="20" cy="25" r="3" fill="black"/>
<circle cx="20" cy="25" r="3" fill="black"/>
<circle cx="20" cy="25" r="3" fill="black"/>
<circle cx="37" cy="25" r="3" fill="black"/>
<circle cx="37" cy="25" r="3" fill="black"/>
<circle cx="37" cy="25" r="3" fill="black"/>
<circle cx="37" cy="25" r="3" fill="black"/>
<circle cx="37" cy="25" r="3" fill="black"/>
<circle cx="54" cy="25" r="3" fill="black"/>
<circle cx="54" cy="25" r="3" fill="black"/>
<circle cx="54" cy="25" r="3" fill="black"/>
<circle cx="54" cy="25" r="3" fill="black"/>
<circle cx="54" cy="25" r="3" fill="black"/>
<circle cx="71" cy="25" r="3" fill="black"/>
<circle cx="71" cy="25" r="3" fill="black"/>
<circle cx="71" cy="25" r="3" fill="black"/>
<circle cx="71" cy="25" r="3" fill="black"/>
<circle cx="71" cy="25" r="3" fill="black"/>
<circle cx="88" cy="25" r="3" fill="black"/>
<circle cx="88" cy="25" r="3" fill="black"/>
<circle cx="88" cy="25" r="3" fill="black"/>
<circle cx="88" cy="25" r="3" fill="black"/>
<circle cx="88" cy="25" r="3" fill="black"/>
<rect width="100" height="10" transform="translate(0 30)" fill="white"/>
<circle cx="17" cy="35" r="3" fill="black"/>
<circle cx="17" cy="35" r="3" fill="black"/>
<circle cx="17" cy="35" r="3" fill="black"/>
<circle cx="17" cy="35" r="3" fill="black"/>
<circle cx="17" cy="35" r="3" fill="black"/>
<circle cx="33" cy="35" r="3" fill="black"/>
<circle cx="33" cy="35" r="3" fill="black"/>
<circle cx="33" cy="35" r="3" fill="black"/>
<circle cx="33" cy="35" r="3" fill="black"/>
<circle cx="33" cy="35" r="3" fill="black"/>
<circle cx="49" cy="35" r="3" fill="black"/>
<circle cx="49" cy="35" r="3" fill="black"/>
<circle cx="49" cy="35" r="3" fill="black"/>
<circle cx="49" cy="35" r="3" fill="black"/>
<circle cx="49" cy="35" r="3" fill="black"/>
<circle cx="65" cy="35" r="3" fill="black"/>
<circle cx="65" cy="35" r="3" fill="black"/>
<circle cx="65" cy="35" r="3" fill="black"/>
<circle cx="65" cy="35" r="3" fill="black"/>
<circle cx="65" cy="35" r="3" fill="black"/>
<circle cx="81" cy="35" r="3" fill="black"/>
<circle cx="81" cy="35" r="3" fill="black"/>
<circle cx="81" cy="35" r="3" fill="black"/>
<circle cx="81" cy="35" r="3" fill="black"/>
<circle cx="81" cy="35" r="3" fill="black"/>
<circle cx="97" cy="35" r="3" fill="black"/>
<circle cx="97" cy="35" r="3" fill="black"/>
<circle cx="97" cy="35" r="3" fill="black"/>
<circle cx="97" cy="35" r="3" fill="black"/>
<circle cx="97" cy="35" r="3" fill="black"/>
<rect width="100" height="10" transform="translate(0 40)" fill="white"/>
<circle cx="3" cy="45" r="3" fill="black"/>
<circle cx="3" cy="45" r="3" fill="black"/>
<circle cx="3" cy="45" r="3" fill="black"/>
<circle cx="3" cy="45" r="3" fill="black"/>
<circle cx="3" cy="45" r="3" fill="black"/>
<circle cx="20" cy="45" r="3" fill="black"/>
<circle cx="20" cy="45" r="3" fill="black"/>
<circle cx="20" cy="45" r="3" fill="black"/>
<circle cx="20" cy="45" r="3" fill="black"/>
<circle cx="20" cy="45" r="3" fill="black"/>
<circle cx="37" cy="45" r="3" fill="black"/>
<circle cx="37" cy="45" r="3" fill="black"/>
<circle cx="37" cy="45" r="3" fill="black"/>
<circle cx="37" cy="45" r="3" fill="black"/>
<circle cx="37" cy="45" r="3" fill="black"/>
<circle cx="54" cy="45" r="3" fill="black"/>
<circle cx="54" cy="45" r="3" fill="black"/>
<circle cx="54" cy="45" r="3" fill="black"/>
<circle cx="54" cy="45" r="3" fill="black"/>
<circle cx="54" cy="45" r="3" fill="black"/>
<circle cx="71" cy="45" r="3" fill="black"/>
<circle cx="71" cy="45" r="3" fill="black"/>
<circle cx="71" cy="45" r="3" fill="black"/>
<circle cx="71" cy="45" r="3" fill="black"/>
<circle cx="71" cy="45" r="3" fill="black"/>
<circle cx="88" cy="45" r="3" fill="black"/>
<circle cx="88" cy="45" r="3" fill="black"/>
<circle cx="88" cy="45" r="3" fill="black"/>
<circle cx="88" cy="45" r="3" fill="black"/>
<circle cx="88" cy="45" r="3" fill="black"/>
<rect width="100" height="10" transform="translate(0 50)" fill="white"/>
<circle cx="17" cy="55" r="3" fill="black"/>
<circle cx="17" cy="55" r="3" fill="black"/>
<circle cx="17" cy="55" r="3" fill="black"/>
<circle cx="17" cy="55" r="3" fill="black"/>
<circle cx="17" cy="55" r="3" fill="black"/>
<circle cx="33" cy="55" r="3" fill="black"/>
<circle cx="33" cy="55" r="3" fill="black"/>
<circle cx="33" cy="55" r="3" fill="black"/>
<circle cx="33" cy="55" r="3" fill="black"/>
<circle cx="33" cy="55" r="3" fill="black"/>
<circle cx="49" cy="55" r="3" fill="black"/>
<circle cx="49" cy="55" r="3" fill="black"/>
<circle cx="49" cy="55" r="3" fill="black"/>
<circle cx="49" cy="55" r="3" fill="black"/>
<circle cx="49" cy="55" r="3" fill="black"/>
<circle cx="65" cy="55" r="3" fill="black"/>
<circle cx="65" cy="55" r="3" fill="black"/>
<circle cx="65" cy="55" r="3" fill="black"/>
<circle cx="65" cy="55" r="3" fill="black"/>
<circle cx="65" cy="55" r="3" fill="black"/>
<circle cx="81" cy="55" r="3" fill="black"/>
<circle cx="81" cy="55" r="3" fill="black"/>
<circle cx="81" cy="55" r="3" fill="black"/>
<circle cx="81" cy="55" r="3" fill="black"/>
<circle cx="81" cy="55" r="3" fill="black"/>
<circle cx="97" cy="55" r="3" fill="black"/>
<circle cx="97" cy="55" r="3" fill="black"/>
<circle cx="97" cy="55" r="3" fill="black"/>
<circle cx="97" cy="55" r="3" fill="black"/>
<circle cx="97" cy="55" r="3" fill="black"/>
<rect width="100" height="10" transform="translate(0 60)" fill="white"/>
<circle cx="3" cy="65" r="3" fill="black"/>
<circle cx="3" cy="65" r="3" fill="black"/>
<circle cx="3" cy="65" r="3" fill="black"/>
<circle cx="3" cy="65" r="3" fill="black"/>
<circle cx="3" cy="65" r="3" fill="black"/>
<circle cx="20" cy="65" r="3" fill="black"/>
<circle cx="20" cy="65" r="3" fill="black"/>
<circle cx="20" cy="65" r="3" fill="black"/>
<circle cx="20" cy="65" r="3" fill="black"/>
<circle cx="20" cy="65" r="3" fill="black"/>
<circle cx="37" cy="65" r="3" fill="black"/>
<circle cx="37" cy="65" r="3" fill="black"/>
<circle cx="37" cy="65" r="3" fill="black"/>
<circle cx="37" cy="65" r="3" fill="black"/>
<circle cx="37" cy="65" r="3" fill="black"/>
<circle cx="54" cy="65" r="3" fill="black"/>
<circle cx="54" cy="65" r="3" fill="black"/>
<circle cx="54" cy="65" r="3" fill="black"/>
<circle cx="54" cy="65" r="3" fill="black"/>
<circle cx="54" cy="65" r="3" fill="black"/>
<circle cx="71" cy="65" r="3" fill="black"/>
<circle cx="71" cy="65" r="3" fill="black"/>
<circle cx="71" cy="65" r="3" fill="black"/>
<circle cx="71" cy="65" r="3" fill="black"/>
<circle cx="71" cy="65" r="3" fill="black"/>
<circle cx="88" cy="65" r="3" fill="black"/>
<circle cx="88" cy="65" r="3" fill="black"/>
<circle cx="88" cy="65" r="3" fill="black"/>
<circle cx="88" cy="65" r="3" fill="black"/>
<circle cx="88" cy="65" r="3" fill="black"/>
<rect width="100" height="10" transform="translate(0 70)" fill="white"/>
<circle cx="17" cy="75" r="3" fill="black"/>
<circle cx="17" cy="75" r="3" fill="black"/>
<circle cx="17" cy="75" r="3" fill="black"/>
<circle cx="17" cy="75" r="3" fill="black"/>
<circle cx="17" cy="75" r="3" fill="black"/>
<circle cx="33" cy="75" r="3" fill="black"/>
<circle cx="33" cy="75" r="3" fill="black"/>
<circle cx="33" cy="75" r="3" fill="black"/>
<circle cx="33" cy="75" r="3" fill="black"/>
<circle cx="33" cy="75" r="3" fill="black"/>
<circle cx="49" cy="75" r="3" fill="black"/>
<circle cx="49" cy="75" r="3" fill="black"/>
<circle cx="49" cy="75" r="3" fill="black"/>
<circle cx="49" cy="75" r="3" fill="black"/>
<circle cx="49" cy="75" r="3" fill="black"/>
<circle cx="65" cy="75" r="3" fill="black"/>
<circle cx="65" cy="75" r="3" fill="black"/>
<circle cx="65" cy="75" r="3" fill="black"/>
<circle cx="65" cy="75" r="3" fill="black"/>
<circle cx="65" cy="75" r="3" fill="black"/>
<circle cx="81" cy="75" r="3" fill="black"/>
<circle cx="81" cy="75" r="3" fill="black"/>
<circle cx="81" cy="75" r="3" fill="black"/>
<circle cx="81" cy="75" r="3" fill="black"/>
<circle cx="81" cy="75" r="3" fill="black"/>
<circle cx="97" cy="75" r="3" fill="black"/>
<circle cx="97" cy="75" r="3" fill="black"/>
<circle cx="97" cy="75" r="3" fill="black"/>
<circle cx="97" cy="75" r="3" fill="black"/>
<circle cx="97" cy="75" r="3" fill="black"/>
<rect width="100" height="10" transform="translate(0 80)" fill="white"/>
<circle cx="3" cy="85" r="3" fill="black"/>
<circle cx="3" cy="85" r="3" fill="black"/>
<circle cx="3" cy="85" r="3" fill="black"/>
<circle cx="3" cy="85" r="3" fill="black"/>
<circle cx="3" cy="85" r="3" fill="black"/>
<circle cx="20" cy="85" r="3" fill="black"/>
<circle cx="20" cy="85" r="3" fill="black"/>
<circle cx="20" cy="85" r="3" fill="black"/>
<circle cx="20" cy="85" r="3" fill="black"/>
<circle cx="20" cy="85" r="3" fill="black"/>
<circle cx="37" cy="85" r="3" fill="black"/>
<circle cx="37" cy="85" r="3" fill="black"/>
<circle cx="37" cy="85" r="3" fill="black"/>
<circle cx="37" cy="85" r="3" fill="black"/>
<circle cx="37" cy="85" r="3" fill="black"/>
<circle cx="54" cy="85" r="3" fill="black"/>
<circle cx="54" cy="85" r="3" fill="black"/>
<circle cx="54" cy="85" r="3" fill="black"/>
<circle cx="54" cy="85" r="3" fill="black"/>
<circle cx="54" cy="85" r="3" fill="black"/>
<circle cx="71" cy="85" r="3" fill="black"/>
<circle cx="71" cy="85" r="3" fill="black"/>
<circle cx="71" cy="85" r="3" fill="black"/>
<circle cx="71" cy="85" r="3" fill="black"/>
<circle cx="71" cy="85" r="3" fill="black"/>
<circle cx="88" cy="85" r="3" fill="black"/>
<circle cx="88" cy="85" r="3" fill="black"/>
<circle cx="88" cy="85" r="3" fill="black"/>
<circle cx="88" cy="85" r="3" fill="black"/>
<circle cx="88" cy="85" r="3" fill="black"/>
<rect width="100" height="10" transform="translate(0 90)" fill="white"/>
<circle cx="17" cy="95" r="3" fill="black"/>
<circle cx="17" cy="95" r="3" fill="black"/>
<circle cx="17" cy="95" r="3" fill="black"/>
<circle cx="17" cy="95" r="3" fill="black"/>
<circle cx="17" cy="95" r="3" fill="black"/>
<circle cx="33" cy="95" r="3" fill="black"/>
<circle cx="33" cy="95" r="3" fill="black"/>
<circle cx="33" cy="95" r="3" fill="black"/>
<circle cx="33" cy="95" r="3" fill="black"/>
<circle cx="33" cy="95" r="3" fill="black"/>
<circle cx="49" cy="95" r="3" fill="black"/>
<circle cx="49" cy="95" r="3" fill="black"/>
<circle cx="49" cy="95" r="3" fill="black"/>
<circle cx="49" cy="95" r="3" fill="black"/>
<circle cx="49" cy="95" r="3" fill="black"/>
<circle cx="65" cy="95" r="3" fill="black"/>
<circle cx="65" cy="95" r="3" fill="black"/>
<circle cx="65" cy="95" r="3" fill="black"/>
<circle cx="65" cy="95" r="3" fill="black"/>
<circle cx="65" cy="95" r="3" fill="black"/>
<circle cx="81" cy="95" r="3" fill="black"/>
<circle cx="81" cy="95" r="3" fill="black"/>
<circle cx="81" cy="95" r="3" fill="black"/>
<circle cx="81" cy="95" r="3" fill="black"/>
<circle cx="81" cy="95" r="3" fill="black"/>
<circle cx="97" cy="95" r="3" fill="black"/>
<circle cx="97" cy="95" r="3" fill="black"/>
<circle cx="97" cy="95" r="3" fill="black"/>
<circle cx="97" cy="95" r="3" fill="black"/>
<circle cx="97" cy="95" r="3" fill="black"/>
</svg>
