<svg xmlns="http://www.w3.org/2000/svg" viewBox="0 0 93 112.034"><g data-name="Layer 2"><g data-name="Original"><g data-name="Left Top" stroke="#214121" stroke-miterlimit="10" stroke-width="5"><path d="M84.699 59.677c0 27.507-23.387 51.103-37.192 49.806-15.098-1.417-37.192-22.299-37.192-49.806S2.582 13.795 47.507 9.871C88.74 6.269 84.699 32.17 84.699 59.677z" fill="#4da792"/><path fill="none" stroke-linecap="round" d="M81.245 22.413l6.811-4.955M3.833 28.177l5.974 4.24m0 33.711L2.5 63.089m19.778-32.792l4.222 6.272m34.667-10.666l-2.889 6.514M45.389 49.792l-1.333 7.555m21.796 1l-3.463 7.365m-37.037 0l5.37 6.857m22.222 8.223l-4.666 7.511M39.611 2.5l2.211 7.98m38.792 69.286l9.886-1.197"/></g></g></g></svg>