<svg xmlns="http://www.w3.org/2000/svg" viewBox="0 0 92.556 105"><g data-name="Layer 2"><g data-name="Original"><g data-name="Left Middle" stroke="#214121" stroke-miterlimit="10" stroke-width="5"><path d="M83.147 52.62c-1.45 5.696-15.831 49.88-35.36 49.88S14.958 66.79 12.425 52.62C7.468 24.892 5.073 6.67 47.786 2.74 86.99-.867 87.074 37.197 83.147 52.62z" fill="#4da792"/><path fill="none" stroke-linecap="round" d="M83.611 7.988l-4.889 5.042M15.167 2.5l3.777 5.488M11.31 46.159l-8.81-.452m79.417 10.982l8.139-1.201M24.722 23.926l4.667 5.326m30.889-7.111l-3.312 5.524M32.888 48.662l4.056 6.084m14.012 20.133l-3.66 6.338m12.76-35.284l-2.223 5.771"/></g></g></g></svg>