<svg id="Layer_1" data-name="Layer 1" xmlns="http://www.w3.org/2000/svg" viewBox="0 0 100 100"><title>Artboard 6</title><path d="M14.3,43.6a6.1,6.1,0,0,1,5.2,1.3A8.5,8.5,0,0,1,22,49.3c1,3.2,1.6,6.9,4.5,9s6.8-2.7,8.1-6,1.4-4.1,2.3-6a10.4,10.4,0,0,1,1.5-2.5,2.3,2.3,0,0,1,1.1-.9c.6-.2.7.2.9.7,1.4,4,1.7,8.3,3.9,11.9,1.1,1.8,2.6,3.6,4.8,3.7s3.8-1.5,4.6-3.3a20.5,20.5,0,0,0,1.6-6l.9-3.4.6-1.8a3.3,3.3,0,0,1,.7-1.6c.1-.1-.3-.3,0,0a1.1,1.1,0,0,1,.2.5l.6,1.9,1.3,4A33.2,33.2,0,0,0,62,55.7c1,1.9,2.8,4,5.2,3.2s3.8-2.6,4.9-4.4c2.4-4.1,2.5-9.4,5.6-13.1,1.2-1.5-.9-3.6-2.1-2.1-2.9,3.3-3.5,7.5-5,11.5a10.9,10.9,0,0,1-3.3,4.7c-.3.2-.8.7-1.2.6s-.7-.6-.9-.9a12,12,0,0,1-1.5-3c-.8-2.3-1.6-4.7-2.3-7s-1-4.5-3-5.1-3.5,1.2-4.2,3A32,32,0,0,0,52.3,50c-.4,1.8-.6,4.2-2,5.7s-3.5-1.7-4.1-3.1a29.1,29.1,0,0,1-1.9-5.9c-.5-1.9-.8-4.4-2.1-5.9s-3.6-1.1-5.1.1-2.5,3.2-3.3,5-1.4,4-2.2,6l-1.2,2.5c-.5.9-1.1,2.2-2.2,1.5s-2-2.9-2.5-4.5a32.2,32.2,0,0,0-1.8-5.5,9.1,9.1,0,0,0-10.4-5.2c-1.9.4-1.1,3.3.8,2.9Z"/></svg>