<svg id="Layer_1" data-name="Layer 1" xmlns="http://www.w3.org/2000/svg" viewBox="0 0 100 100"><title>Artboard 7</title><path d="M20,50.6c.3,3.4,1.7,7.7,4.8,9.5a3.6,3.6,0,0,0,4.6-.6c1.2-1.3,1.7-3.2,2.3-4.8s1.6-4.3,2.5-6.4,1.5-4,3.4-4.1,2.8,2.2,3,3.6.3,4,.8,6,1.2,3.5,2.9,4,3.2-1.1,4-2.5c1.7-3.2,1.9-7,3.8-10.1.4-.7.8-1.4,1.6-1.2s1.5,1.3,2,2a24.6,24.6,0,0,1,2,4.7c1,2.6,3,7.5,6.6,6.6s5.2-6.4,6.3-9.6c.3-1,.6-2,1-3a10.5,10.5,0,0,1,1.3-2.3c-.1.2-.4-.1-.1.2l.7.6,1.1,1.2A9.2,9.2,0,0,1,76,47.2c.5,1.8,3.4,1,2.9-.8a12.9,12.9,0,0,0-2.7-4.7c-1.1-1.2-2.6-2.6-4.3-2S69.6,42,69,43.4a46,46,0,0,0-1.9,5.2,15,15,0,0,1-2.2,4.6c-.4.5-1,1.4-1.7,1.1a5,5,0,0,1-1.5-2c-1.7-3-2.2-6.7-4.6-9.4s-2.9-2.3-4.6-1.8S49.8,43,49,44.5c-1.6,3.2-1.9,7-3.8,10.1l-.4.3c.2-.2.5.3.3,0a13.9,13.9,0,0,1-.6-1.3,7.9,7.9,0,0,1-.5-3,16.2,16.2,0,0,0-1.2-5.8c-1.5-3.2-5.4-4.7-8.3-2.4s-2.5,3.4-3.3,5.3l-2.7,7.1a8.8,8.8,0,0,1-1.2,2.6c-.7.7-1.5-.2-2-.8a11.1,11.1,0,0,1-2.3-6c-.1-1.9-3.1-2-3,0Z"/></svg>