<svg xmlns="http://www.w3.org/2000/svg" viewBox="0 0 502.20661 501.09161">
  <g id="e79bca45-a468-4c61-a166-8a2c83b0eded" data-name="Layer 2">
    <g id="b23ad7aa-3f4b-4f29-a34c-4011ee06ca3c" data-name="newe new">
      <g id="a27f0d20-8086-42ab-ad37-d98b8fbb4352" data-name="4">
        <path d="M345.57486,279.46068c.2571,4.19224.8121,13.24372,7.25641,20.55993,19.96595,22.66767,85.64808,16.40223,98.56638-19.95515,9.37534-26.386-10.67752-64.01274-38.0962-70.14531C378.95636,202.23833,343.54246,246.31806,345.57486,279.46068Z" style="fill:#4da792;stroke:#214121;stroke-linecap:round;stroke-miterlimit:10;stroke-width:5px"/>
        <line x1="421.71356" y1="317.9927" x2="418.76791" y2="308.69096" style="fill:#4da792;stroke:#214121;stroke-linecap:round;stroke-miterlimit:10;stroke-width:5px"/>
        <line x1="433.71356" y1="205.10288" x2="427.08629" y2="215.9315" style="fill:#4da792;stroke:#214121;stroke-linecap:round;stroke-miterlimit:10;stroke-width:5px"/>
        <line x1="355.49134" y1="221.10288" x2="365.22981" y2="230.01856" style="fill:#4da792;stroke:#214121;stroke-linecap:round;stroke-miterlimit:10;stroke-width:5px"/>
        <line x1="462.158" y1="267.13416" x2="453.73604" y2="267.13416" style="fill:#4da792;stroke:#214121;stroke-linecap:round;stroke-miterlimit:10;stroke-width:5px"/>
        <line x1="402.158" y1="231.99176" x2="397.82467" y2="246.49631" style="fill:#4da792;stroke:#214121;stroke-linecap:round;stroke-miterlimit:10;stroke-width:5px"/>
        <line x1="414.49134" y1="267.13416" x2="427.08629" y2="269.99176" style="fill:#4da792;stroke:#214121;stroke-linecap:round;stroke-miterlimit:10;stroke-width:5px"/>
        <line x1="381.158" y1="272.68677" x2="378.49134" y2="285.3251" style="fill:#4da792;stroke:#214121;stroke-linecap:round;stroke-miterlimit:10;stroke-width:5px"/>
      </g>
      <g id="b827292b-8841-4975-84ec-0e3a96ac277d" data-name="3">
        <path id="b624cfdd-8c82-4d2c-8fa9-1b85ebc03564" data-name="3" d="M290.75367,257.77611c-34.2583,14.25756-70.50315,101.68554-48.93665,126.61132,2.1966,2.53858,7.83771,11.96241,22.49579,13.46875,32.97,3.38868,111.16406-72.3894,99.798-108.44458C355.57032,262.31981,317.97272,246.44823,290.75367,257.77611Z" style="fill:#4da792;stroke:#214121;stroke-linecap:round;stroke-miterlimit:10;stroke-width:5px"/>
        <line x1="229.33419" y1="329.31503" x2="238.18414" y2="332.60779" style="fill:#4da792;stroke:#214121;stroke-linecap:round;stroke-miterlimit:10;stroke-width:5px"/>
        <line x1="258.88087" y1="272.68677" x2="266.28754" y2="279.19261" style="fill:#4da792;stroke:#214121;stroke-linecap:round;stroke-miterlimit:10;stroke-width:5px"/>
        <line x1="339.19921" y1="246.49631" x2="335.72385" y2="258.24733" style="fill:#4da792;stroke:#214121;stroke-linecap:round;stroke-miterlimit:10;stroke-width:5px"/>
        <line x1="365.22981" y1="301.6376" x2="375.82467" y2="301.6376" style="fill:#4da792;stroke:#214121;stroke-linecap:round;stroke-miterlimit:10;stroke-width:5px"/>
        <line x1="327.98298" y1="361.31602" x2="338.60245" y2="366.43206" style="fill:#4da792;stroke:#214121;stroke-linecap:round;stroke-miterlimit:10;stroke-width:5px"/>
        <line x1="299.27724" y1="288.48108" x2="301.27724" y2="299.76954" style="fill:#4da792;stroke:#214121;stroke-linecap:round;stroke-miterlimit:10;stroke-width:5px"/>
        <line x1="328.70296" y1="315.71893" x2="318.50921" y2="320.26646" style="fill:#4da792;stroke:#214121;stroke-linecap:round;stroke-miterlimit:10;stroke-width:5px"/>
        <line x1="269.86883" y1="326.29151" x2="267.78052" y2="335.63131" style="fill:#4da792;stroke:#214121;stroke-linecap:round;stroke-miterlimit:10;stroke-width:5px"/>
        <line x1="278.50402" y1="364.55331" x2="290.14304" y2="363.19477" style="fill:#4da792;stroke:#214121;stroke-linecap:round;stroke-miterlimit:10;stroke-width:5px"/>
      </g>
      <g id="bc4fa00c-7c49-4a0d-8b1f-86dd5816fc8e" data-name="7">
        <path d="M296.64555,276.02865c-23.43,2.42023-60.63294-35.55193-54.75319-67.20649,5.15978-27.77862,42.78061-38.46338,62.61713-31.723,9.45821,3.21391,16.51306,12.30585,20.65884,23.75555,7.18228,19.83583,5.63354,46.74807-7.27561,62.43278C315.994,265.59435,308.40616,274.81382,296.64555,276.02865Z" style="fill:#4da792;stroke:#214121;stroke-linecap:round;stroke-miterlimit:10;stroke-width:5px"/>
        <line x1="278.50402" y1="165.10288" x2="280.73636" y2="175.14129" style="fill:#4da792;stroke:#214121;stroke-linecap:round;stroke-miterlimit:10;stroke-width:5px"/>
        <line x1="264.158" y1="207.76954" x2="273.49134" y2="212.88065" style="fill:#4da792;stroke:#214121;stroke-linecap:round;stroke-miterlimit:10;stroke-width:5px"/>
        <line x1="305.71356" y1="207.76954" x2="301.27724" y2="217.54732" style="fill:#4da792;stroke:#214121;stroke-linecap:round;stroke-miterlimit:10;stroke-width:5px"/>
        <line x1="287.04689" y1="240.65843" x2="297.26912" y2="248.43621" style="fill:#4da792;stroke:#214121;stroke-linecap:round;stroke-miterlimit:10;stroke-width:5px"/>
        <line x1="335.72385" y1="196.8251" x2="325.16833" y2="200.85474" style="fill:#4da792;stroke:#214121;stroke-linecap:round;stroke-miterlimit:10;stroke-width:5px"/>
        <line x1="243.49134" y1="254.07839" x2="251.6475" y2="246.49631" style="fill:#4da792;stroke:#214121;stroke-linecap:round;stroke-miterlimit:10;stroke-width:5px"/>
      </g>
      <g id="b6005ed2-a318-4509-b6c9-94bc451be202" data-name="6">
        <path d="M42.44885,267.15306c-24.81191.89266-41.05731,36.50893-39.8898,52.94541,1.86042,26.19106,70.2062,52.94989,94.15916,31.48968,9.558-8.56329,9.24233-22.29129,9.17384-24.10922C105.01563,304.222,69.93975,266.164,42.44885,267.15306Z" style="fill:#4da792;stroke:#214121;stroke-linecap:round;stroke-miterlimit:10;stroke-width:5px"/>
        <line x1="84.21344" y1="277.00593" x2="79.41235" y2="283.78967" style="fill:#4da792;stroke:#214121;stroke-linecap:round;stroke-miterlimit:10;stroke-width:5px"/>
        <line x1="20.158" y1="265.3251" x2="24.17409" y2="274.59219" style="fill:#4da792;stroke:#214121;stroke-linecap:round;stroke-miterlimit:10;stroke-width:5px"/>
        <line x1="2.5" y1="341.99176" x2="10.90746" y2="335.63131" style="fill:#4da792;stroke:#214121;stroke-linecap:round;stroke-miterlimit:10;stroke-width:5px"/>
        <line x1="45.158" y1="364.55331" x2="48.31739" y2="355.93672" style="fill:#4da792;stroke:#214121;stroke-linecap:round;stroke-miterlimit:10;stroke-width:5px"/>
        <line x1="28.158" y1="315.71893" x2="38.82467" y2="313.27102" style="fill:#4da792;stroke:#214121;stroke-linecap:round;stroke-miterlimit:10;stroke-width:5px"/>
        <line x1="69.82467" y1="313.27102" x2="72.158" y2="326.02226" style="fill:#4da792;stroke:#214121;stroke-linecap:round;stroke-miterlimit:10;stroke-width:5px"/>
      </g>
      <g id="f086a3e8-ddcd-47b8-bc1e-2c0d6811656c" data-name="1">
        <path d="M259.86109,374.99486c-22.04407-20.96753-65.43179-20.98365-88.628,1.18164-33.65283,32.15722-13.37241,100.07544,23.63412,117.57959,2.92829,1.38525,18.80625,8.53051,36.04206,2.36352C270.14008,482.083,293.718,407.198,259.86109,374.99486Z" style="fill:#4da792;stroke:#214121;stroke-linecap:round;stroke-miterlimit:10;stroke-width:5px"/>
        <line x1="215.12017" y1="347.3251" x2="215.12017" y2="359.40787" style="fill:#4da792;stroke:#214121;stroke-linecap:round;stroke-miterlimit:10;stroke-width:5px"/>
        <line x1="148.38023" y1="449.10288" x2="157.71356" y2="444.88562" style="fill:#4da792;stroke:#214121;stroke-linecap:round;stroke-miterlimit:10;stroke-width:5px"/>
        <line x1="268.82467" y1="380.99176" x2="276.1213" y2="375.3251" style="fill:#4da792;stroke:#214121;stroke-linecap:round;stroke-miterlimit:10;stroke-width:5px"/>
        <line x1="189.77116" y1="405.44416" x2="195.38727" y2="414.38771" style="fill:#4da792;stroke:#214121;stroke-linecap:round;stroke-miterlimit:10;stroke-width:5px"/>
        <line x1="238.72068" y1="442.21104" x2="229.33419" y2="447.56019" style="fill:#4da792;stroke:#214121;stroke-linecap:round;stroke-miterlimit:10;stroke-width:5px"/>
        <line x1="197.71356" y1="455.54732" x2="203.93578" y2="464.21399" style="fill:#4da792;stroke:#214121;stroke-linecap:round;stroke-miterlimit:10;stroke-width:5px"/>
        <line x1="238.18414" y1="397.07001" x2="232.4652" y2="405.44416" style="fill:#4da792;stroke:#214121;stroke-linecap:round;stroke-miterlimit:10;stroke-width:5px"/>
        <line x1="285.35142" y1="437.10288" x2="276.1213" y2="435.3251" style="fill:#4da792;stroke:#214121;stroke-linecap:round;stroke-miterlimit:10;stroke-width:5px"/>
        <line x1="153.04689" y1="376.65843" x2="163.96397" y2="384.8584" style="fill:#4da792;stroke:#214121;stroke-linecap:round;stroke-miterlimit:10;stroke-width:5px"/>
      </g>
      <g id="a2ff69d6-c6e7-49fe-809a-fed50ba866c9" data-name="2">
        <path id="ebc4592b-5e64-4271-a3ca-62193811fcea" data-name="2" d="M155.49134,302.8806c-32.76575-7.3728-65.92328,19.45141-67.55554,43.55566-2.14576,31.68677,49.83264,63.917,84,52,2.102-.73315,18.3511-6.68042,24.88888-22.66675C207.15088,350.51951,189.07349,310.437,155.49134,302.8806Z" style="fill:#4da792;stroke:#214121;stroke-linecap:round;stroke-miterlimit:10;stroke-width:5px"/>
        <line x1="84.21344" y1="374.1781" x2="92.73929" y2="369.02081" style="fill:#4da792;stroke:#214121;stroke-linecap:round;stroke-miterlimit:10;stroke-width:5px"/>
        <line x1="148.38023" y1="291.3251" x2="148.38023" y2="299.76954" style="fill:#4da792;stroke:#214121;stroke-linecap:round;stroke-miterlimit:10;stroke-width:5px"/>
        <line x1="199.72298" y1="326.02226" x2="192.57922" y2="332.60779" style="fill:#4da792;stroke:#214121;stroke-linecap:round;stroke-miterlimit:10;stroke-width:5px"/>
        <line x1="131.55669" y1="407.76954" x2="133.84426" y2="397.07001" style="fill:#4da792;stroke:#214121;stroke-linecap:round;stroke-miterlimit:10;stroke-width:5px"/>
        <line x1="111.00529" y1="356.39816" x2="123.00529" y2="358.45991" style="fill:#4da792;stroke:#214121;stroke-linecap:round;stroke-miterlimit:10;stroke-width:5px"/>
        <line x1="146.49134" y1="330.96141" x2="146.49134" y2="340.73919" style="fill:#4da792;stroke:#214121;stroke-linecap:round;stroke-miterlimit:10;stroke-width:5px"/>
        <line x1="170.04864" y1="359.41527" x2="169.13101" y2="369.69135" style="fill:#4da792;stroke:#214121;stroke-linecap:round;stroke-miterlimit:10;stroke-width:5px"/>
        <line x1="106.37342" y1="301.27262" x2="112.4106" y2="309.88839" style="fill:#4da792;stroke:#214121;stroke-linecap:round;stroke-miterlimit:10;stroke-width:5px"/>
      </g>
      <g id="aa6f5e60-c51c-470e-97c8-ab991683ee7e" data-name="5">
        <path d="M140.61414,319.1245c-31.45813-13.637-44.54468-95.57422-5.33331-122.66651,18.92889-13.07861,49.69037-13.13086,66,2,29.19049,27.08081,8.99277,99.92725-30.66669,118C166.264,318.44041,152.98993,324.48924,140.61414,319.1245Z" style="fill:#4da792;stroke:#214121;stroke-linecap:round;stroke-miterlimit:10;stroke-width:5px"/>
        <line x1="218.82467" y1="269.99176" x2="209.38774" y2="268.56296" style="fill:#4da792;stroke:#214121;stroke-linecap:round;stroke-miterlimit:10;stroke-width:5px"/>
        <line x1="146.49134" y1="178.65843" x2="148.38023" y2="190.01758" style="fill:#4da792;stroke:#214121;stroke-linecap:round;stroke-miterlimit:10;stroke-width:5px"/>
        <line x1="101.158" y1="231.99176" x2="112.4106" y2="236.29173" style="fill:#4da792;stroke:#214121;stroke-linecap:round;stroke-miterlimit:10;stroke-width:5px"/>
        <line x1="215.12016" y1="196.8251" x2="206.89844" y2="205.10288" style="fill:#4da792;stroke:#214121;stroke-linecap:round;stroke-miterlimit:10;stroke-width:5px"/>
        <line x1="146.49134" y1="218.99176" x2="153.04689" y2="230.01856" style="fill:#4da792;stroke:#214121;stroke-linecap:round;stroke-miterlimit:10;stroke-width:5px"/>
        <line x1="189.77116" y1="239.24404" x2="177.82467" y2="246.49631" style="fill:#4da792;stroke:#214121;stroke-linecap:round;stroke-miterlimit:10;stroke-width:5px"/>
        <line x1="147.43578" y1="272.68677" x2="151.49134" y2="281.3251" style="fill:#4da792;stroke:#214121;stroke-linecap:round;stroke-miterlimit:10;stroke-width:5px"/>
        <line x1="183.79792" y1="269.99176" x2="175.49134" y2="279.19261" style="fill:#4da792;stroke:#214121;stroke-linecap:round;stroke-miterlimit:10;stroke-width:5px"/>
      </g>
      <circle cx="428.13885" cy="74.06775" r="46.02431" style="fill:#eb6751"/>
      <circle cx="428.13886" cy="74.06775" r="71.56775" style="fill:none;stroke:#eb6751;stroke-linecap:round;stroke-miterlimit:10;stroke-width:5px;stroke-dasharray:20.440513610839844,20.440513610839844"/>
    </g>
  </g>
</svg>