<svg xmlns="http://www.w3.org/2000/svg" viewBox="0 0 89.008 105"><g data-name="Layer 2"><g data-name="Flattened"><g data-name="Left Bottom" stroke="#214121" stroke-miterlimit="10" stroke-width="5"><path d="M82.278 52.5c-.102 12.6-14.55 50-34.664 50s-32.22-16.12-36.42-50C7.716 24.464 3.442 2.952 47.613 2.502c23.588-.24 34.796 33.62 34.664 49.999z" fill="#4da792"/><path fill="none" stroke-linecap="round" d="M25.167 21.601l2.889 6.667M56.126 23.268l-2.611 5.777M62.722 50.708L58.5 56.045M30.833 45.15l4.445 8.226M39.389 74.354l5.972 8.58M76.722 8.268l-4.889 6.222M77.842 72.399l8.666 1.931M7.611 72.422l8.631 3.406M2.5 26.268l6.666 5.555"/></g></g></g></svg>