<svg id="Layer_1" data-name="Layer 1" xmlns="http://www.w3.org/2000/svg" viewBox="0 0 68.6 18.3"><title>squiggle</title><path d="M19.6,56.2c.2-3.7.5-8.3,4-10.3a4,4,0,0,1,4.3-.2A6,6,0,0,1,30.2,49c1.1,2.7,1.9,5.8,4.4,7.6a7.1,7.1,0,0,0,9.5-1.5c1.9-2.5,2.2-5.8,3.5-8.5a7.1,7.1,0,0,1,1.2-1.8c.8-.8,1.4-.4,2.1.3a15.6,15.6,0,0,1,2.6,4.5c1.4,3.2,3.7,6.8,7.9,5.8s5.4-5.3,6.8-8.7c.7-1.7,1.9-4,4-4.2s3.5,2.1,4.1,3.8c1.6,3.8,2.4,8.8,7.1,10,1.9.4,2.7-2.4.8-2.9-4.1-1-4.2-6.9-5.9-10s-6-5.2-9.4-2.7a11.1,11.1,0,0,0-3.4,4.8c-.8,1.8-1.3,3.9-2.7,5.5s-3.2,2.2-4.7.7-1.8-3.3-2.6-4.9-4.9-7.6-8.5-4.4-3,5.8-4.2,8.8a5.6,5.6,0,0,1-2.7,3.3,3.9,3.9,0,0,1-4.7-1.2c-1.9-2.5-2.1-5.8-4-8.3s-6.8-3.6-10-1.3-4.5,7.9-4.8,12.5c-.1,1.9,2.9,1.9,3,0Z" transform="translate(-16.6 -39.6)"/></svg>