<svg xmlns="http://www.w3.org/2000/svg" viewBox="0 0 142.82 108.98"><defs><style>.cls-1{fill:#a67c52;}.cls-2,.cls-5,.cls-6{fill:none;}.cls-2,.cls-4,.cls-5,.cls-6,.cls-7,.cls-8,.cls-9{stroke:#00154d;}.cls-2,.cls-5,.cls-6,.cls-9{stroke-miterlimit:10;}.cls-3,.cls-9{fill:#00154d;}.cls-4{fill:#ffcd20;}.cls-4,.cls-7,.cls-8{stroke-linejoin:round;stroke-width:3px;}.cls-5{stroke-width:2px;}.cls-6,.cls-7,.cls-8{stroke-linecap:round;}.cls-6{stroke-width:1.5px;}.cls-7{fill:#fff;}.cls-8{fill:#f59375;}</style></defs><g id="Layer_2" data-name="Layer 2"><g id="wood"><g id="wood_bg" data-name="wood bg"><path class="cls-1" d="M115.17,9.82h-87a25.58,25.58,0,0,1,1.55-4.2h84.06A26.3,26.3,0,0,1,115.17,9.82Z"/><path class="cls-1" d="M116.65,78.89H26.32A304,304,0,0,1,25.52,27h92.11A303.76,303.76,0,0,1,116.65,78.89Z"/><path class="cls-1" d="M117.38,24H25.78a102.13,102.13,0,0,1,1.64-11.22h88.43A109.8,109.8,0,0,1,117.38,24Z"/><path class="cls-1" d="M114.54,93.14l1.67.33H28.42c-.67-3.45-1.26-7.33-1.77-11.58H116.3C115.8,85.94,115.21,89.72,114.54,93.14Z"/></g><g id="wood_stripes" data-name="wood stripes"><path class="cls-2" d="M28,8.67a45.87,45.87,0,0,0,8.64-1.14A83.42,83.42,0,0,0,46.9,5"/><path class="cls-2" d="M27,14.68a31.82,31.82,0,0,0,5.94-.34,10.77,10.77,0,0,0,5.35-2.44"/><path class="cls-2" d="M26.14,18.27c5.31.32,10.53-1.26,15.62-2.82l13-4"/><path class="cls-2" d="M52.31,10.94a13,13,0,0,1,9.22-3.82c3.09,0,6,1.12,9,2.1s6,1.83,9.08,1.32"/><path class="cls-2" d="M77.61,5.16A5.69,5.69,0,0,0,79.06,6,21.81,21.81,0,0,0,89.36,7.8,21.81,21.81,0,0,0,99.3,4.56"/><path class="cls-2" d="M90.6,10.94c3.94.1,7.62-1.79,11.4-2.89a29.6,29.6,0,0,1,13.49-.72"/><path class="cls-2" d="M38.46,10.48c4.33-1.55,8.75-2.83,13.16-4.11a33.54,33.54,0,0,1,6.91-1.49"/><path class="cls-2" d="M25.67,20.93c5.71.3,11.39-.9,17-2.09L78.9,11.12"/><path class="cls-2" d="M34.28,24.71l15.54-4.18c3.27-.88,6.54-1.77,9.87-2.41a48.47,48.47,0,0,1,5.07-.77,34.94,34.94,0,0,1,9,.33,28.19,28.19,0,0,1,7.94,3.12C85,22.54,88.32,24.48,92,25.12"/><path class="cls-2" d="M99.62,25.44c2.84-.16,5.23-2.1,7.89-3.12A12.71,12.71,0,0,1,118,23"/><path class="cls-2" d="M100.12,12.3a6.55,6.55,0,0,1,2.84,1,16.43,16.43,0,0,1,2.55,2.18,16.35,16.35,0,0,0,8.16,4,4.87,4.87,0,0,0,2.43-.08,2,2,0,0,0,1.38-1.84"/><path class="cls-2" d="M107,12.09l3.33,2.21a6.76,6.76,0,0,0,2.21,1.11,3.5,3.5,0,0,0,3.92-2.15"/><path class="cls-2" d="M51.77,24.52a49.51,49.51,0,0,1,9.66-3.67,17,17,0,0,1,10.17.49,24.89,24.89,0,0,1,5.54,3.5"/><path class="cls-2" d="M59.84,24.6a14.23,14.23,0,0,1,2.68-1.4,5.53,5.53,0,0,1,3.16-.58,8.83,8.83,0,0,1,3.45,1.2A6.12,6.12,0,0,0,72.66,25"/><ellipse class="cls-2" cx="91.16" cy="16.05" rx="1.71" ry="6.07" transform="translate(62.8 104.16) rotate(-82.14)"/><ellipse class="cls-2" cx="90.92" cy="16.14" rx="4.05" ry="12.98" transform="matrix(0.14, -0.99, 0.99, 0.14, 62.5, 104)"/><path class="cls-2" d="M83.7,26.54a15.17,15.17,0,0,0,21.81-.35"/><path class="cls-2" d="M92.86,26.79a13.6,13.6,0,0,0,2.41,1.14,4.63,4.63,0,0,0,2.63.13,2.77,2.77,0,0,0,1.9-1.73"/><path class="cls-2" d="M65.45,26.48c2.22.66,4.42,1.37,6.64,2l7.6,2.18c5.41,1.55,10.93,3.11,16.56,2.88s11.46-2.54,14.52-7.27"/><path class="cls-2" d="M118.72,29.69a13.05,13.05,0,0,1-5,4.84,31.37,31.37,0,0,1-12.15,4.3"/><path class="cls-2" d="M35,38.34a50.88,50.88,0,0,1,39.34-5c6.7,1.92,13.34,5.28,20.26,4.41"/><path class="cls-2" d="M47.44,37.88a18.17,18.17,0,0,1,9.11-3.31c8.55-.66,16.69,4.76,25.26,4.21"/><path class="cls-2" d="M24.4,32c2.87,2.22,6.76,2.76,10.34,2.24A40.64,40.64,0,0,0,45,30.8L57.4,25.4"/><path class="cls-2" d="M24.37,28.59a3.88,3.88,0,0,0,2.35,2.6,7.36,7.36,0,0,0,3.58.4,14,14,0,0,0,9.47-5.05"/><path class="cls-2" d="M29.57,67.62c3.38.08,6.43,1.91,9.63,3a22.56,22.56,0,0,0,9.33,1.11,15.86,15.86,0,0,0,6-1.66,9.93,9.93,0,0,0,4.35-4.37"/><path class="cls-2" d="M24.48,71c5.55.54,11,1.77,16.52,2.6s11.17,1.23,16.63.11,10.75-3.89,14-8.42"/><path class="cls-2" d="M25.12,75.44c9.63.11,18.79,5,28.43,4.73"/><path class="cls-2" d="M60.38,80.07c3.75-.69,7.57-1.4,10.9-3.24a35.39,35.39,0,0,0,5.82-4.32A33.39,33.39,0,0,1,83,68.24a11.48,11.48,0,0,1,7-1.41"/><path class="cls-2" d="M72.15,80a182.16,182.16,0,0,1,18.76-6.33,61.59,61.59,0,0,1,14.41-2.57,26.49,26.49,0,0,1,14.13,3.18"/><path class="cls-2" d="M82.7,80c4.43-2.24,9-4.52,13.91-5.14a20.3,20.3,0,0,1,11.61,1.89c1.58.79,3,1.8,4.59,2.63a11,11,0,0,0,5,1.49"/><path class="cls-2" d="M92.7,80.34a15.13,15.13,0,0,1,5.18-2.74,7.65,7.65,0,0,1,7.49,2.61"/><path class="cls-2" d="M35.71,80.54a3.94,3.94,0,0,0-1.39.77A1.35,1.35,0,0,0,34,82.77a1.86,1.86,0,0,0,1.39.81,15.79,15.79,0,0,0,13.26-3.37"/><path class="cls-2" d="M28.64,81.41a3,3,0,0,0,1.51,3.17,8.36,8.36,0,0,0,3.59,1,45.7,45.7,0,0,0,12.69-.08,22.13,22.13,0,0,0,11.38-5.3"/><path class="cls-2" d="M26.47,86.78A50.26,50.26,0,0,0,45,88.48a150.72,150.72,0,0,0,18.51-3L85.86,81"/><path class="cls-2" d="M41.81,92.81c15.66-4,31.83-8,47.79-5.53,4.62.71,9.15,2,13.8,2.37s9.57-.05,13.53-2.52"/><path class="cls-2" d="M61.44,93.1c5.28-3,11.6-3.93,17.66-3.4a67.27,67.27,0,0,1,17.65,4.5"/><path class="cls-2" d="M104.49,80.74a7.4,7.4,0,0,0-4.9,2.42,2.63,2.63,0,0,0-.64,1,1.21,1.21,0,0,0,.22,1.16,1.89,1.89,0,0,0,1.16.44,47.52,47.52,0,0,0,11,.1,12.09,12.09,0,0,0,3.77-.9,4.8,4.8,0,0,0,2.62-2.74"/><path class="cls-2" d="M108.68,81.2A6.91,6.91,0,0,0,106,82.37c-.23.17-.47.39-.44.66s.49.54.86.59a15.18,15.18,0,0,0,4,0,5.13,5.13,0,0,0,2.42-.81,2.23,2.23,0,0,0,1-2.23"/></g><path id="wood_casing" data-name="wood casing" class="cls-3" d="M120.63,27h0l-.14-1.62a111.1,111.1,0,0,0-2-14.42h0l-.26-1.17h0A26.88,26.88,0,0,0,116,3.39c-.1-.18-.2-.35-.31-.52V2.62H27.57v.71h0a25.16,25.16,0,0,0-2.51,6.5h0L24.76,11a106,106,0,0,0-2.12,14.44L22.5,27h0a307.17,307.17,0,0,0,1,53.52c.53,4.74,1.16,9.08,1.89,12.91.08.4.15.79.23,1.18l2.94-.59-.12-.59c-.67-3.45-1.26-7.33-1.77-11.58H116.3c-.5,4-1.09,7.83-1.76,11.25l1.67.33,1.27.25c0-.08,0-.16,0-.25.76-3.89,1.42-8.24,2-12.9A306.88,306.88,0,0,0,120.63,27ZM29.71,5.62h84.06a26.3,26.3,0,0,1,1.4,4.2h-87A25.58,25.58,0,0,1,29.71,5.62Zm-2.29,7.2h88.43A109.8,109.8,0,0,1,117.38,24H25.78A102.13,102.13,0,0,1,27.42,12.82Zm89.23,66.07H26.32A304,304,0,0,1,25.52,27h92.11A303.76,303.76,0,0,1,116.65,78.89Z"/></g><g id="gold1"><path class="cls-4" d="M13.63,2.58C4.79,16,6.55,62.4,12.35,93.47H26.74c-4.46-30-7-78.79,3.34-92H15.67A2.44,2.44,0,0,0,13.63,2.58Z"/><path class="cls-4" d="M129.42,2.73c8.74,13.61,7,59.78,1.19,90.74H116.22c4.45-30,7-78.79-3.35-92h14.24A2.73,2.73,0,0,1,129.42,2.73Z"/><path class="cls-4" d="M7.17,38.83H136.31a4.44,4.44,0,0,1,4.14,2.76C142.19,46,141.21,53,138.52,53H4.1c-1.37,0-2.85-4.87-2.56-9A5.62,5.62,0,0,1,7.17,38.83Z"/><path class="cls-4" d="M5.36,53.06H138c2.54,0,4.2,7.21,2.57,11.32A4.22,4.22,0,0,1,136.67,67H7.78a5,5,0,0,1-4.85-3.86C2,58.85,3.83,53.06,5.36,53.06Z"/><path class="cls-4" d="M13.82,94.22l117.29.42a3.26,3.26,0,0,1,3.19,2.68,13.48,13.48,0,0,1-.84,8.38,3.22,3.22,0,0,1-2.9,1.78H13a3.22,3.22,0,0,1-2.69-1.43,12.18,12.18,0,0,1-1.85-6.24A5.36,5.36,0,0,1,13.82,94.22Z"/><path class="cls-5" d="M113.19,1.81c-.8-1.56-1.59-.76-2.39,2.4"/><path class="cls-5" d="M29.67,1.81q1.2-2.34,2.4,2.4"/></g><g id="gold2"><line class="cls-6" x1="3.9" y1="62.55" x2="12.01" y2="62.55"/><path class="cls-6" d="M16,93.47A50.56,50.56,0,0,1,14.68,86"/><path class="cls-6" d="M18.84,87a36.57,36.57,0,0,0,.79,5.81"/><path class="cls-6" d="M18.79,86c0,.35,0,.7.05,1"/><line class="cls-6" x1="140.32" y1="57.1" x2="131.37" y2="57.1"/><line class="cls-6" x1="141.06" y1="61.03" x2="135.85" y2="61.03"/><line class="cls-6" x1="87.56" y1="102.55" x2="95.8" y2="102.55"/><line class="cls-6" x1="45.28" y1="98.74" x2="54.77" y2="98.74"/><line class="cls-6" x1="124.64" y1="100.84" x2="134.58" y2="100.84"/><path class="cls-7" d="M56.76,61.09H63.4v8.8H81.29v-8.8h7.28V49.57c0-17.78-31.81-17.78-31.81,0Z"/><line class="cls-8" x1="69.31" y1="60.64" x2="69.31" y2="69.89"/><line class="cls-8" x1="75.37" y1="60.64" x2="75.37" y2="69.89"/><rect class="cls-9" x="62.83" y="47.75" width="8.23" height="8.23" rx="2.59"/><rect class="cls-9" x="73.63" y="47.75" width="8.23" height="8.23" rx="2.59"/></g></g></svg>