<svg xmlns="http://www.w3.org/2000/svg" viewBox="0 0 340.429 388.191"><g data-name="Layer 2"><g data-name="Flattened" stroke="#214121" stroke-width="5"><g data-name="Left Top" stroke-miterlimit="10"><path d="M84.699 59.677c0 27.507-23.387 51.103-37.192 49.806-15.098-1.417-37.192-22.299-37.192-49.806S2.582 13.795 47.507 9.871C88.74 6.269 84.699 32.17 84.699 59.677z" fill="#4da792"/><path fill="none" stroke-linecap="round" d="M81.245 22.413l6.811-4.955M3.833 28.177l5.974 4.24m0 33.711L2.5 63.089m19.778-32.792l4.222 6.272m34.667-10.666l-2.889 6.514M45.389 49.792l-1.333 7.555m21.796 1l-3.463 7.365m-37.037 0l5.37 6.857m22.222 8.223l-4.666 7.511M39.611 2.5l2.211 7.98m38.792 69.286l9.886-1.197"/></g><g data-name="Left Middle" stroke-miterlimit="10"><path d="M98.703 209.715c-1.45 5.696-15.832 49.88-35.361 49.88s-32.827-35.71-35.36-49.88c-4.958-27.728-7.353-45.95 35.36-49.88 39.204-3.608 39.288 34.457 35.36 49.88z" fill="#4da792"/><path fill="none" stroke-linecap="round" d="M99.167 165.083l-4.889 5.042m-63.556-10.53l3.778 5.488m-7.635 38.171l-8.809-.452m79.416 10.982l8.139-1.201m-65.333-31.562l4.666 5.326m30.889-7.111l-3.312 5.524m-24.077 20.997l4.056 6.084m14.011 20.133l-3.659 6.338m12.759-35.284l-2.222 5.771"/></g><g data-name="Left Bottom" stroke-miterlimit="10"><path d="M85.812 335.691c-1.328 12.53-16.306 50-36.42 50s-32.22-16.12-36.42-50c-3.478-28.037-7.752-49.55 36.42-49.999 23.588-.24 38.103 34.12 36.42 50z" fill="#4da792"/><path fill="none" stroke-linecap="round" d="M26.944 304.792l2.889 6.666m28.071-5l-2.611 5.778m9.207 21.662l-4.222 5.338M32.611 328.34l4.445 8.227m4.111 20.977l5.972 8.581M78.5 291.458l-3.778 6.556m6.222 57.598l8.667 1.932m-80.222-1.932l8.631 3.407M4.278 309.458l6.666 5.556"/></g><g data-name="Right Bottom" stroke-miterlimit="10"><path data-name="base" d="M326.01 332.261c-1.41 26.558-14.59 50.527-21.85 48.92-13.386-2.964-22.044-21.397-25.895-48.92-5.428-38.791-.584-57.596 25.895-48.919 25.466 8.345 22.098 44.223 21.85 48.92z" fill="#4da792"/><path fill="none" stroke-linecap="round" d="M322.278 299.527l4.009-4.291m-54.454-3.778l4.973 3.556m-4.75 36.029l6.895 5.711m41.823 21.988l6.837-2.395m-32.444-2.666l4.444 3.863m14.99-21.419l-4.661 6.222m-17.076-26l4.525 6m9.201-27.555l-3.868 6.444"/></g><g data-name="Right Middle" stroke-miterlimit="10"><path data-name="base" d="M331.573 206.52c.38 26.71-13.489 47.948-22.326 49.168-10.852 1.498-22.744-21.49-26.46-49.169-3.628-27.03-.15-38.286 26.46-49.168 25.254-10.328 22.086 32.278 22.326 49.168z" fill="#4da792"/><path fill="none" stroke-linecap="round" d="M329.242 169.39l6.114-3.386m-3.355 30.828l5.928-1.904m-46.88-35.539l3.63 5.499m-16.521 43.904l5.168 1.352m6.952 28.481l-5.821-1.228m32.227-60.595l-4.167 8.437m-15.821 14.796l3.521 5.534m11.552 17.51l-3.658 4.713"/></g><g data-name="Right Top" stroke-miterlimit="10"><path data-name="base" d="M323.378 66.142c.385 26.93-9.81 49.57-22.644 49.57-10.09 0-26.838-22.193-26.838-49.57s-3.826-55.767 26.838-49.57c28.363 5.732 22.4 32.542 22.644 49.57z" fill="#4da792"/><path fill="none" stroke-linecap="round" d="M320.723 30.261l4.169-4.168m-.626 50.377l4.168-4.168m-60.826-29.145l5.105 2.947m29.621-5.203l3.294-4.889m-4.835 54.375l4.169-4.168M287.149 63.77l4.434 3.884m-22.168 15.722l5.66 1.647"/></g><g data-name="Middle Middle" stroke-miterlimit="10"><path data-name="base" d="M208.965 203.632c1.752 39.818-22.428 51.701-29.787 49.335-17.371-5.587-32.591-16.529-29.788-49.335 2.728-31.922 13.957-55.73 29.788-49.335 16.12 6.511 28.59 22.142 29.787 49.335z" fill="#4da792"/><path fill="none" stroke-linecap="round" d="M152.056 162.125l3.805 5.917m-14.139 43.75l5.139 1.583m39.738-57.127l2.569-4.679m17.318 30.86l4.014-2.86m-2.007 41.972l6.653-1.749m-45.481-42.43l3.327 6.319m14.892 9.555l3.326-4.874m-31.446 21.233l3.739 4.493m21.137 6.39l-3.029 5.203"/></g><g data-name="Middle Top" stroke-miterlimit="10"><path data-name="base" d="M208.058 66.721c-1.35 21.446-16.394 48.704-29.756 49.374-17.874.896-32.556-16.541-29.755-49.374 2.725-31.947 6.521-39.372 29.755-49.373 17.797-7.661 31.466 22.204 29.756 49.373z" fill="#4da792"/><path fill="none" stroke-linecap="round" d="M150.056 29.458l3.805 5.917m-13.139 26.883l5.633 1.662m53.564-39.139l4.248-2.878m5.617 42.489l5.272-4.267m-35.963-25.984l.365 6.774m-14.121 27.928l-4.771-5.43m26.127 1.43l3.416-5.169M172.645 93.54l2.966-5.637"/></g><g data-name="Middle Bottom"><path data-name="base" d="M198.961 331.294c-4.3 25.232-13.402 54.082-29.645 49.204-18.02-5.411-29.957-26.965-29.645-49.204.45-32.024 13.89-55.582 29.645-49.205 16.044 6.494 34.167 22.671 29.645 49.205z" fill="#4da792" stroke-miterlimit="10"/><path fill="none" stroke-linecap="round" stroke-linejoin="round" d="M187.323 291.176l4.134-4.534m5.177 62.993l4.81-1.51m-67.166-.25l5.005-.212m-.339-49.205l4.347 2.137m14.732-.04l2.173 5.07m25.582 11.167l-2.042 5.042m-29.375 9.958l1.446 5.095m18.971 21.571l-3.577 4.571"/></g></g></g></svg>