<svg xmlns="http://www.w3.org/2000/svg" viewBox="0 0 78.424 106.684"><g data-name="Layer 2"><g data-name="Original"><g data-name="Middle Middle" stroke="#214121" stroke-miterlimit="10" stroke-width="5"><path data-name="base" d="M69.743 54.562c1.752 39.819-22.428 51.702-29.787 49.335C22.585 98.311 7.365 87.37 10.168 54.562 12.896 22.64 24.125-1.167 39.956 5.228c16.12 6.51 28.59 22.141 29.787 49.334z" fill="#4da792"/><path fill="none" stroke-linecap="round" d="M12.833 13.056l3.806 5.916M2.5 62.722l5.139 1.584M47.377 7.179L49.946 2.5m17.318 30.86l4.014-2.86m-2.007 41.971l6.653-1.749M30.443 28.293l3.327 6.318m14.892 9.556l3.326-4.874M20.542 60.525l3.739 4.493m21.137 6.391l-3.029 5.202"/></g></g></g></svg>