<svg width="75" height="75" viewBox="0 0 75 75" fill="none" xmlns="http://www.w3.org/2000/svg">
<g clip-path="url(#clip0_6_53)">
<rect width="75" height="75" fill="white"/>
<path d="M-52.3 78.384L5.05762 -3.5312" stroke="black" stroke-width="2"/>
<path d="M-46.9 78.384L10.4576 -3.5312" stroke="black" stroke-width="2"/>
<path d="M-41.4971 78.384L15.8606 -3.5312" stroke="black" stroke-width="2"/>
<line x1="-36.1163" y1="78.3841" x2="21.2414" y2="-3.53116" stroke="black" stroke-width="2"/>
<line x1="-30.7358" y1="78.3841" x2="26.6219" y2="-3.53116" stroke="black" stroke-width="2"/>
<line x1="-25.3549" y1="78.3841" x2="32.0028" y2="-3.53116" stroke="black" stroke-width="2"/>
<line x1="-19.9743" y1="78.3841" x2="37.3834" y2="-3.53116" stroke="black" stroke-width="2"/>
<line x1="-14.5933" y1="78.3841" x2="42.7643" y2="-3.53116" stroke="black" stroke-width="2"/>
<line x1="-9.21246" y1="78.3841" x2="48.1452" y2="-3.53116" stroke="black" stroke-width="2"/>
<line x1="-3.83197" y1="78.3841" x2="53.5257" y2="-3.53116" stroke="black" stroke-width="2"/>
<line x1="1.54889" y1="78.3841" x2="58.9066" y2="-3.53116" stroke="black" stroke-width="2"/>
<line x1="6.92963" y1="78.3841" x2="64.2873" y2="-3.53116" stroke="black" stroke-width="2"/>
<line x1="12.3102" y1="78.3841" x2="69.6679" y2="-3.53116" stroke="black" stroke-width="2"/>
<line x1="17.691" y1="78.3841" x2="75.0486" y2="-3.53116" stroke="black" stroke-width="2"/>
<line x1="23.0716" y1="78.3841" x2="80.4293" y2="-3.53116" stroke="black" stroke-width="2"/>
<line x1="28.4525" y1="78.3841" x2="85.8101" y2="-3.53116" stroke="black" stroke-width="2"/>
<line x1="33.8332" y1="78.3841" x2="91.1909" y2="-3.53116" stroke="black" stroke-width="2"/>
<line x1="39.2141" y1="78.3841" x2="96.5717" y2="-3.53116" stroke="black" stroke-width="2"/>
<line x1="44.5947" y1="78.3841" x2="101.952" y2="-3.53116" stroke="black" stroke-width="2"/>
<line x1="49.9755" y1="78.3841" x2="107.333" y2="-3.53116" stroke="black" stroke-width="2"/>
<line x1="55.3561" y1="78.3841" x2="112.714" y2="-3.53116" stroke="black" stroke-width="2"/>
<line x1="60.737" y1="78.3841" x2="118.095" y2="-3.53116" stroke="black" stroke-width="2"/>
<line x1="66.1175" y1="78.3841" x2="123.475" y2="-3.53116" stroke="black" stroke-width="2"/>
<line x1="71.5208" y1="78.3841" x2="128.878" y2="-3.53116" stroke="black" stroke-width="2"/>
</g>
<defs>
<clipPath id="clip0_6_53">
<rect width="75" height="75" fill="white"/>
</clipPath>
</defs>
</svg>
