<svg width="75" height="75" viewBox="0 0 75 75" fill="none" xmlns="http://www.w3.org/2000/svg">
<g clip-path="url(#clip0_6_104)">
<rect width="75" height="75" fill="white"/>
<path d="M-51.9414 -3.78015L4.69924 78.6325" stroke="black" stroke-width="2"/>
<path d="M-46.5415 -3.78015L10.0991 78.6325" stroke="black" stroke-width="2"/>
<path d="M-41.1384 -3.78015L15.5022 78.6325" stroke="black" stroke-width="2"/>
<line x1="-34.1143" y1="-3.77295" x2="22.5263" y2="78.6397" stroke="black" stroke-width="2"/>
<line x1="-28.734" y1="-3.77295" x2="27.9067" y2="78.6397" stroke="black" stroke-width="2"/>
<line x1="-23.3531" y1="-3.77295" x2="33.2875" y2="78.6397" stroke="black" stroke-width="2"/>
<line x1="-17.9725" y1="-3.77295" x2="38.6681" y2="78.6397" stroke="black" stroke-width="2"/>
<line x1="-12.5914" y1="-3.77295" x2="44.0492" y2="78.6397" stroke="black" stroke-width="2"/>
<line x1="-7.21054" y1="-3.77295" x2="49.4301" y2="78.6397" stroke="black" stroke-width="2"/>
<line x1="-1.83017" y1="-3.77295" x2="54.8105" y2="78.6397" stroke="black" stroke-width="2"/>
<line x1="3.55057" y1="-3.77295" x2="60.1912" y2="78.6397" stroke="black" stroke-width="2"/>
<line x1="8.93143" y1="-3.77295" x2="65.5721" y2="78.6397" stroke="black" stroke-width="2"/>
<line x1="14.312" y1="-3.77295" x2="70.9527" y2="78.6397" stroke="black" stroke-width="2"/>
<line x1="19.6925" y1="-3.77295" x2="76.3332" y2="78.6397" stroke="black" stroke-width="2"/>
<line x1="25.0732" y1="-3.77295" x2="81.7138" y2="78.6397" stroke="black" stroke-width="2"/>
<line x1="30.454" y1="-3.77295" x2="87.0947" y2="78.6397" stroke="black" stroke-width="2"/>
<line x1="35.8351" y1="-3.77295" x2="92.4758" y2="78.6397" stroke="black" stroke-width="2"/>
<line x1="41.216" y1="-3.77295" x2="97.8566" y2="78.6397" stroke="black" stroke-width="2"/>
<line x1="46.5966" y1="-3.77295" x2="103.237" y2="78.6397" stroke="black" stroke-width="2"/>
<line x1="51.9774" y1="-3.77295" x2="108.618" y2="78.6397" stroke="black" stroke-width="2"/>
<line x1="57.3581" y1="-3.77295" x2="113.999" y2="78.6397" stroke="black" stroke-width="2"/>
<line x1="62.7387" y1="-3.77295" x2="119.379" y2="78.6397" stroke="black" stroke-width="2"/>
<line x1="68.119" y1="-3.77295" x2="124.76" y2="78.6397" stroke="black" stroke-width="2"/>
<line x1="73.5226" y1="-3.77295" x2="130.163" y2="78.6397" stroke="black" stroke-width="2"/>
</g>
<defs>
<clipPath id="clip0_6_104">
<rect width="75" height="75" fill="white"/>
</clipPath>
</defs>
</svg>
