<svg width="75" height="75" viewBox="0 0 75 75" fill="none" xmlns="http://www.w3.org/2000/svg">
<g clip-path="url(#clip0_6_31)">
<rect width="75" height="75" fill="white"/>
<line x1="-27.7473" y1="-9.4657" x2="5.63339" y2="84.7985" stroke="black" stroke-width="2"/>
<line x1="-22.3666" y1="-9.4657" x2="11.0141" y2="84.7985" stroke="black" stroke-width="2"/>
<line x1="-16.9858" y1="-9.4657" x2="16.3949" y2="84.7985" stroke="black" stroke-width="2"/>
<line x1="-11.6051" y1="-9.4657" x2="21.7756" y2="84.7985" stroke="black" stroke-width="2"/>
<line x1="-6.22435" y1="-9.4657" x2="27.1563" y2="84.7985" stroke="black" stroke-width="2"/>
<line x1="-0.843613" y1="-9.4657" x2="32.5371" y2="84.7985" stroke="black" stroke-width="2"/>
<line x1="4.53712" y1="-9.4657" x2="37.9178" y2="84.7985" stroke="black" stroke-width="2"/>
<line x1="9.91786" y1="-9.4657" x2="43.2985" y2="84.7985" stroke="black" stroke-width="2"/>
<line x1="15.2986" y1="-9.4657" x2="48.6793" y2="84.7985" stroke="black" stroke-width="2"/>
<line x1="20.6793" y1="-9.4657" x2="54.06" y2="84.7985" stroke="black" stroke-width="2"/>
<line x1="26.0601" y1="-9.4657" x2="59.4408" y2="84.7985" stroke="black" stroke-width="2"/>
<line x1="31.4408" y1="-9.4657" x2="64.8215" y2="84.7985" stroke="black" stroke-width="2"/>
<line x1="36.8215" y1="-9.4657" x2="70.2022" y2="84.7985" stroke="black" stroke-width="2"/>
<line x1="42.2023" y1="-9.4657" x2="75.583" y2="84.7985" stroke="black" stroke-width="2"/>
<line x1="47.583" y1="-9.4657" x2="80.9637" y2="84.7985" stroke="black" stroke-width="2"/>
<line x1="52.9638" y1="-9.4657" x2="86.3444" y2="84.7985" stroke="black" stroke-width="2"/>
<line x1="58.3445" y1="-9.4657" x2="91.7252" y2="84.7985" stroke="black" stroke-width="2"/>
<line x1="63.7252" y1="-9.4657" x2="97.1059" y2="84.7985" stroke="black" stroke-width="2"/>
<line x1="69.106" y1="-9.4657" x2="102.487" y2="84.7985" stroke="black" stroke-width="2"/>
<line x1="74.4867" y1="-9.4657" x2="107.867" y2="84.7985" stroke="black" stroke-width="2"/>
</g>
<defs>
<clipPath id="clip0_6_31">
<rect width="75" height="75" fill="white"/>
</clipPath>
</defs>
</svg>
