<svg width="75" height="75" viewBox="0 0 75 75" fill="none" xmlns="http://www.w3.org/2000/svg">
<g clip-path="url(#clip0_6_79)">
<rect width="75" height="75" fill="white"/>
<path d="M-0.299194 -10.9811L-25.3372 85.8337" stroke="black" stroke-width="2"/>
<line x1="6.8689" y1="-10.1572" x2="-18.1691" y2="86.6577" stroke="black" stroke-width="2"/>
<line x1="12.2493" y1="-10.1572" x2="-12.7887" y2="86.6577" stroke="black" stroke-width="2"/>
<line x1="17.6301" y1="-10.1572" x2="-7.40788" y2="86.6577" stroke="black" stroke-width="2"/>
<line x1="23.0108" y1="-10.1572" x2="-2.02727" y2="86.6577" stroke="black" stroke-width="2"/>
<line x1="28.3919" y1="-10.1572" x2="3.35384" y2="86.6577" stroke="black" stroke-width="2"/>
<line x1="33.7727" y1="-10.1572" x2="8.73469" y2="86.6577" stroke="black" stroke-width="2"/>
<line x1="39.1531" y1="-10.1572" x2="14.1151" y2="86.6577" stroke="black" stroke-width="2"/>
<line x1="44.5338" y1="-10.1572" x2="19.4958" y2="86.6577" stroke="black" stroke-width="2"/>
<line x1="49.9147" y1="-10.1572" x2="24.8767" y2="86.6577" stroke="black" stroke-width="2"/>
<line x1="55.2953" y1="-10.1572" x2="30.2573" y2="86.6577" stroke="black" stroke-width="2"/>
<line x1="60.6759" y1="-10.1572" x2="35.6379" y2="86.6577" stroke="black" stroke-width="2"/>
<line x1="66.0564" y1="-10.1572" x2="41.0184" y2="86.6577" stroke="black" stroke-width="2"/>
<line x1="71.4373" y1="-10.1572" x2="46.3992" y2="86.6577" stroke="black" stroke-width="2"/>
<line x1="76.8184" y1="-10.1572" x2="51.7803" y2="86.6577" stroke="black" stroke-width="2"/>
<line x1="82.1992" y1="-10.1572" x2="57.1612" y2="86.6577" stroke="black" stroke-width="2"/>
<line x1="87.5798" y1="-10.1572" x2="62.5418" y2="86.6577" stroke="black" stroke-width="2"/>
<line x1="92.9607" y1="-10.1572" x2="67.9227" y2="86.6577" stroke="black" stroke-width="2"/>
<line x1="98.3413" y1="-10.1572" x2="73.3033" y2="86.6577" stroke="black" stroke-width="2"/>
</g>
<defs>
<clipPath id="clip0_6_79">
<rect width="75" height="75" fill="white"/>
</clipPath>
</defs>
</svg>
