<svg width="1900" height="1000" viewBox="0 0 1900 1000" fill="none" xmlns="http://www.w3.org/2000/svg">
<rect width="1900" height="1000" fill="white"/>
<rect width="1900" height="76.9" fill="#AE0E22"/>
<rect y="76.9" width="1900" height="76.9" fill="white"/>
<rect y="153.8" width="1900" height="76.9" fill="#AE0E22"/>
<rect y="230.7" width="1900" height="76.9" fill="white"/>
<rect y="307.6" width="1900" height="76.9" fill="#AE0E22"/>
<rect y="384.5" width="1900" height="76.9" fill="white"/>
<rect y="461.4" width="1900" height="76.9" fill="#AE0E22"/>
<rect y="538.3" width="1900" height="76.9" fill="white"/>
<rect y="615.2" width="1900" height="76.9" fill="#AE0E22"/>
<rect y="692.1" width="1900" height="76.9" fill="white"/>
<rect y="769" width="1900" height="76.9" fill="#AE0E22"/>
<rect y="845.9" width="1900" height="76.9" fill="white"/>
<rect y="922.8" width="1900" height="76.9" fill="#AE0E22"/>
<rect width="790.64" height="461.496" fill="#20214D"/>
<path d="M72.7956 25.7L80.0666 48.0775H103.595L84.5597 61.9076L91.8308 84.2852L72.7956 70.4551L53.7591 84.2852L61.0302 61.9076L41.995 48.0775H65.5245L72.7956 25.7Z" fill="white"/>
<path d="M201.806 25.7L209.077 48.0775H232.605L213.57 61.9076L220.841 84.2852L201.806 70.4551L182.769 84.2852L190.04 61.9076L171.005 48.0775H194.535L201.806 25.7Z" fill="white"/>
<path d="M330.816 25.7L338.087 48.0775H361.615L342.58 61.9076L349.851 84.2852L330.816 70.4551L311.779 84.2852L319.05 61.9076L300.015 48.0775H323.545L330.816 25.7Z" fill="white"/>
<path d="M459.826 25.7L467.097 48.0775H490.625L471.59 61.9076L478.861 84.2852L459.826 70.4551L440.789 84.2852L448.06 61.9076L429.025 48.0775H452.555L459.826 25.7Z" fill="white"/>
<path d="M588.836 25.7L596.107 48.0775H619.635L600.6 61.9076L607.871 84.2852L588.836 70.4551L569.799 84.2852L577.07 61.9076L558.035 48.0775H581.565L588.836 25.7Z" fill="white"/>
<path d="M717.846 25.7L725.117 48.0775H748.645L729.61 61.9076L736.881 84.2852L717.846 70.4551L698.809 84.2852L706.08 61.9076L687.045 48.0775H710.575L717.846 25.7Z" fill="white"/>
<path d="M137.301 84.2852L144.572 106.663H168.1L149.065 120.493L156.336 142.87L137.301 129.04L118.264 142.87L125.535 120.493L106.5 106.663H130.03L137.301 84.2852Z" fill="white"/>
<path d="M266.311 84.2852L273.582 106.663H297.11L278.075 120.493L285.346 142.87L266.311 129.04L247.274 142.87L254.545 120.493L235.51 106.663H259.04L266.311 84.2852Z" fill="white"/>
<path d="M395.321 84.2852L402.592 106.663H426.12L407.085 120.493L414.356 142.87L395.321 129.04L376.284 142.87L383.555 120.493L364.52 106.663H388.05L395.321 84.2852Z" fill="white"/>
<path d="M524.331 84.2852L531.602 106.663H555.13L536.095 120.493L543.366 142.87L524.331 129.04L505.294 142.87L512.565 120.493L493.53 106.663H517.06L524.331 84.2852Z" fill="white"/>
<path d="M653.341 84.2852L660.612 106.663H684.14L665.105 120.493L672.376 142.87L653.341 129.04L634.304 142.87L641.575 120.493L622.54 106.663H646.07L653.341 84.2852Z" fill="white"/>
<path d="M72.7956 142.87L80.0666 165.248H103.595L84.5597 179.078L91.8308 201.456L72.7956 187.625L53.7591 201.456L61.0302 179.078L41.995 165.248H65.5245L72.7956 142.87Z" fill="white"/>
<path d="M201.806 142.87L209.077 165.248H232.605L213.57 179.078L220.841 201.456L201.806 187.625L182.769 201.456L190.04 179.078L171.005 165.248H194.535L201.806 142.87Z" fill="white"/>
<path d="M330.816 142.87L338.087 165.248H361.615L342.58 179.078L349.851 201.456L330.816 187.625L311.779 201.456L319.05 179.078L300.015 165.248H323.545L330.816 142.87Z" fill="white"/>
<path d="M459.826 142.87L467.097 165.248H490.625L471.59 179.078L478.861 201.456L459.826 187.625L440.789 201.456L448.06 179.078L429.025 165.248H452.555L459.826 142.87Z" fill="white"/>
<path d="M588.836 142.87L596.107 165.248H619.635L600.6 179.078L607.871 201.456L588.836 187.625L569.799 201.456L577.07 179.078L558.035 165.248H581.565L588.836 142.87Z" fill="white"/>
<path d="M717.846 142.87L725.117 165.248H748.645L729.61 179.078L736.881 201.456L717.846 187.625L698.809 201.456L706.08 179.078L687.045 165.248H710.575L717.846 142.87Z" fill="white"/>
<path d="M137.301 201.456L144.572 223.833H168.1L149.065 237.663L156.336 260.041L137.301 246.211L118.264 260.041L125.535 237.663L106.5 223.833H130.03L137.301 201.456Z" fill="white"/>
<path d="M266.311 201.456L273.582 223.833H297.11L278.075 237.663L285.346 260.041L266.311 246.211L247.274 260.041L254.545 237.663L235.51 223.833H259.04L266.311 201.456Z" fill="white"/>
<path d="M395.321 201.456L402.592 223.833H426.12L407.085 237.663L414.356 260.041L395.321 246.211L376.284 260.041L383.555 237.663L364.52 223.833H388.05L395.321 201.456Z" fill="white"/>
<path d="M524.331 201.456L531.602 223.833H555.13L536.095 237.663L543.366 260.041L524.331 246.211L505.294 260.041L512.565 237.663L493.53 223.833H517.06L524.331 201.456Z" fill="white"/>
<path d="M653.341 201.456L660.612 223.833H684.14L665.105 237.663L672.376 260.041L653.341 246.211L634.304 260.041L641.575 237.663L622.54 223.833H646.07L653.341 201.456Z" fill="white"/>
<path d="M72.7956 260.041L80.0666 282.418H103.595L84.5597 296.248L91.8308 318.626L72.7956 304.796L53.7591 318.626L61.0302 296.248L41.995 282.418H65.5245L72.7956 260.041Z" fill="white"/>
<path d="M201.806 260.041L209.077 282.418H232.605L213.57 296.248L220.841 318.626L201.806 304.796L182.769 318.626L190.04 296.248L171.005 282.418H194.535L201.806 260.041Z" fill="white"/>
<path d="M330.816 260.041L338.087 282.418H361.615L342.58 296.248L349.851 318.626L330.816 304.796L311.779 318.626L319.05 296.248L300.015 282.418H323.545L330.816 260.041Z" fill="white"/>
<path d="M459.826 260.041L467.097 282.418H490.625L471.59 296.248L478.861 318.626L459.826 304.796L440.789 318.626L448.06 296.248L429.025 282.418H452.555L459.826 260.041Z" fill="white"/>
<path d="M588.836 260.041L596.107 282.418H619.635L600.6 296.248L607.871 318.626L588.836 304.796L569.799 318.626L577.07 296.248L558.035 282.418H581.565L588.836 260.041Z" fill="white"/>
<path d="M717.846 260.041L725.117 282.418H748.645L729.61 296.248L736.881 318.626L717.846 304.796L698.809 318.626L706.08 296.248L687.045 282.418H710.575L717.846 260.041Z" fill="white"/>
<path d="M137.301 318.626L144.572 341.003H168.1L149.065 354.834L156.336 377.211L137.301 363.381L118.264 377.211L125.535 354.834L106.5 341.003H130.03L137.301 318.626Z" fill="white"/>
<path d="M266.311 318.626L273.582 341.003H297.11L278.075 354.834L285.346 377.211L266.311 363.381L247.274 377.211L254.545 354.834L235.51 341.003H259.04L266.311 318.626Z" fill="white"/>
<path d="M395.321 318.626L402.592 341.003H426.12L407.085 354.834L414.356 377.211L395.321 363.381L376.284 377.211L383.555 354.834L364.52 341.003H388.05L395.321 318.626Z" fill="white"/>
<path d="M524.331 318.626L531.602 341.003H555.13L536.095 354.834L543.366 377.211L524.331 363.381L505.294 377.211L512.565 354.834L493.53 341.003H517.06L524.331 318.626Z" fill="white"/>
<path d="M653.341 318.626L660.612 341.003H684.14L665.105 354.834L672.376 377.211L653.341 363.381L634.304 377.211L641.575 354.834L622.54 341.003H646.07L653.341 318.626Z" fill="white"/>
<path d="M72.7956 377.211L80.0666 399.589H103.595L84.5597 413.419L91.8308 435.796L72.7956 421.966L53.7591 435.796L61.0302 413.419L41.995 399.589H65.5245L72.7956 377.211Z" fill="white"/>
<path d="M201.806 377.211L209.077 399.589H232.605L213.57 413.419L220.841 435.796L201.806 421.966L182.769 435.796L190.04 413.419L171.005 399.589H194.535L201.806 377.211Z" fill="white"/>
<path d="M330.816 377.211L338.087 399.589H361.615L342.58 413.419L349.851 435.796L330.816 421.966L311.779 435.796L319.05 413.419L300.015 399.589H323.545L330.816 377.211Z" fill="white"/>
<path d="M459.826 377.211L467.097 399.589H490.625L471.59 413.419L478.861 435.796L459.826 421.966L440.789 435.796L448.06 413.419L429.025 399.589H452.555L459.826 377.211Z" fill="white"/>
<path d="M588.836 377.211L596.107 399.589H619.635L600.6 413.419L607.871 435.796L588.836 421.966L569.799 435.796L577.07 413.419L558.035 399.589H581.565L588.836 377.211Z" fill="white"/>
<path d="M717.846 377.211L725.117 399.589H748.645L729.61 413.419L736.881 435.796L717.846 421.966L698.809 435.796L706.08 413.419L687.045 399.589H710.575L717.846 377.211Z" fill="white"/>
</svg>
