<svg xmlns="http://www.w3.org/2000/svg" viewBox="0 0 234.7046 256.57924"><g id="Layer_2" data-name="Layer 2"><g id="new"><g id="background"><path d="M232.59016,190.10927l-17.92,4.35-.58.14-7.34,1.78-2.39.58-4.94,1.2-8.45,2.05-.04.01a8.66133,8.66133,0,0,0-1.19,1.25,7.24736,7.24736,0,0,0-.74,1.24,3.20087,3.20087,0,0,0-.16.39c-.06.12-.1.25-.15.38a3.04188,3.04188,0,0,0-.12.4,2.58993,2.58993,0,0,0-.09.4c-.04.2-.07.4-.1.6a5.436,5.436,0,0,0-.03.57c-.01.19-.01.38-.01.57v.12a.48639.48639,0,0,0,.01.12,2.69046,2.69046,0,0,0,.03.4c.01.15.03.3.05.45.02.17.05.35.08.52a3.7328,3.7328,0,0,0,.09.46c.03.14.06.29.1.43v.03a.035.035,0,0,0,.01.02,13.36832,13.36832,0,0,0,.42,1.42c.18.53.39,1.07.63,1.61.03.1.08.2.12.3h.01c.01.03.02.05.03.08.11005.23.22.47.33.71.11.23.22.46.34.69.02.03.03.07.05.1.25.25.5.50995.74.75995a1.14309,1.14309,0,0,1,.15.16h.01c.24.25.48.51.71.76.17.18.33.37.5.55.22.25.44.49.65.73.27.31.54.62.79.93.18.21.35.42.52.63.36.44.71.89,1.03,1.33.14.18.27.36.4.54h.01c.06.08.11.15.16.23.21.3.42.6.62.89.21.29.4.59.59.89.38.59.74,1.19,1.07,1.78.11.2.21.38995.32.58.24.45.46.9.68,1.35.08.19.17.38.26.57.12.27.24.55.35.82q.27.67492.51,1.35c.03.09.06.19.09.28.06.18.12.35.17.52.09.31.18.62.26.92.03.11005.06006.23005.09.34.05.19.1.38.14.57.05.23.1.45.14.67.03.17.06.35.09.53a.67406.67406,0,0,0,.02.13995c0,.03.01.06006.01.08.08.5.13995,1,.18,1.49.02.25.04.5.05.74a20.82721,20.82721,0,0,1-.05,2.5c-.02.25-.04.5-.08.75-.03.25-.07.5-.1.74a2.882,2.882,0,0,1-.04.29c-.02.14-.05.28-.08.42a.30909.30909,0,0,0-.02.08c-.04.23-.09.46-.14.69-.04.19-.09.39-.14.58,0,.02-.01.03-.02.05a17.52744,17.52744,0,0,1-.57,1.87,24.17011,24.17011,0,0,1-1.29,2.98c-.01.02-.02.03-.03.05-.1.18994-.2.39-.32.58-.17.31-.35.63-.53.94-.04.09-.1.17-.15.26-.13.22-.27.45-.41.67-.24.37-.48.74-.74,1.1-.19.28-.42.55-.62.83-.09.12005-.18.23-.27.34-.16.23-.33.46-.52.7-.66.84-1.38,1.67-2.15,2.5-.18.2-.36.39-.55.58-.57.6-1.17,1.18994-1.79,1.78-.13.13-.27.26-.41.39l-54.5.1h-1.61l-88.47.17q.10493-.31494.21-.66c.18-.55.35-1.14.53-1.78.05-.19.1-.38.15-.58.18-.76.37-1.59.55-2.5.12-.59.25-1.21.36-1.87.07-.36005.14-.72.2-1.1.03-.22.06995-.44.1-.67.09-.57.18-1.16.26-1.78a.09024.09024,0,0,0,.01-.05c.13995-.93.27-1.92.4-2.98.06-.53.13-1.08.19-1.64h.01a2.63207,2.63207,0,0,0-.02-.28,5.45685,5.45685,0,0,0-.04-.58c-.03-.35-.06-.7-.11-1.04a.75613.75613,0,0,0-.01-.15c-.04-.29-.08-.57-.13-.86-.04-.31-.1-.62-.16-.92-.05-.24-.1-.48-.16-.71a.035.035,0,0,1-.01-.02c-.11-.47-.24-.93-.38-1.38a.035.035,0,0,1-.01-.02c-.04-.13-.08-.25-.12006-.37-.04-.1-.06995-.2-.1-.29-.08-.22-.17-.44-.26-.66-.09-.22-.18-.43-.28-.65-.03-.07-.07-.14-.1-.21-.08-.18-.17-.35-.26-.51995l-.06-.12a5.44378,5.44378,0,0,0-.29-.53c-.14-.24-.28-.48-.43-.71a6.1627,6.1627,0,0,0-.36-.53c-.01-.02-.02-.03-.03-.05-.13-.2-.28-.4-.43-.59-.17-.21-.34-.42-.51-.62-.16-.18-.31-.35-.47-.52-.09-.1-.18-.19-.27-.28-.21-.23-.43-.44-.66-.65-.06-.06-.13-.12-.2-.18-.22-.19-.45-.38-.68-.57-.1-.08-.2-.16-.3-.23-.2-.16-.41-.31-.63-.46a1.0461,1.0461,0,0,0-.11-.08h-.01q-.27-.18-.54-.36005a21.93018,21.93018,0,0,0-4.34-2.13995h-.01c-.41-.16-.82-.31-1.25-.44-.63-.01-1.25-.02-1.86-.05-.61-.03-1.21-.06-1.8-.1l-.27-.03c-.2-.01-.4-.03-.59-.05-.29-.00995-.59-.04-.87-.06995q-1.74-.18009-3.39-.48c-.27-.05-.54-.1-.8-.15-.24-.04-.48-.08-.71-.14-.28-.06-.56-.13-.83-.19a2.98568,2.98568,0,0,1-.32-.08c-.37-.08-.74-.18-1.1-.27-.47-.13-.93-.27-1.38-.41-.32-.1-.62994-.2-.94-.31-.28-.1-.56995-.2-.85-.31-.3-.11-.59-.22-.87-.34-.11-.05-.22-.09-.33-.14-.18-.07-.36-.15-.53-.23-.39-.17-.77-.35-1.14-.53s-.75-.38-1.11-.57c-.4-.21-.78-.44-1.16-.67-.38-.24-.76-.48-1.13-.73h-.00995c-.16-.11-.33-.23-.49005-.34-.29-.2-.56994-.41-.85-.63a1.44592,1.44592,0,0,1-.15-.11c-.25995-.2-.52-.41-.77-.63-.19-.16-.38-.32-.57-.5a3.47577,3.47577,0,0,1-.29-.25c0-.01-.00995-.01-.02-.02-.18-.15-.36-.32-.53-.49-.09-.09-.19-.18-.28-.28-.09-.1-.19-.2-.28-.29-.14-.14-.29-.3-.43-.45l-.14-.14c-.29-.31995-.58-.64-.84-.98l-.3-.36c-.02-.02-.03-.04-.05-.06-.06-.08-.13-.16-.18-.24a21.29707,21.29707,0,0,1-1.29-1.78c-.1-.15-.2-.3-.29-.45-.19-.28-.36-.56-.53-.85-.07-.1-.12-.2-.18-.3-.22-.38-.44-.77-.65-1.18-.06-.13-.13-.25-.19-.38-.11-.21-.21-.42-.31-.64a11.70627,11.70627,0,0,1-.52-1.14,1.41534,1.41534,0,0,1-.08-.18c-.12-.26-.23-.53-.33-.79-.11-.27-.22-.54-.31-.81-.06-.13-.1-.26-.15-.39-.12-.33-.24-.67-.35-1.01-.11-.3-.2-.6-.29-.9-.07-.18994-.12-.38995-.18-.59q-.225-.75-.42-1.53c-.00995-.00995-.00995-.00995-.00995-.02-.04-.17-.08-.33-.12-.5-.03-.11005-.06-.23-.08-.34-.07-.28-.13-.57-.19-.86l-.03-.12c-.03-.15-.07-.3-.09-.46-.04-.16-.07-.32-.1-.48-.06-.32-.12-.64-.17-.97a1.863,1.863,0,0,1-.04-.25.21977.21977,0,0,1-.01-.08.36433.36433,0,0,1-.02-.14c-.05-.25-.09-.5-.13-.75-.04-.25-.07-.51-.11-.76-.09-.68-.18-1.36-.25-2.06-.13-2.65.98-4.46,3.86-5.06h63c2.91.54,4.27,2.26,4.07,5.2a44.76121,44.76121,0,0,1,10.49,2.01995,31.60571,31.60571,0,0,1,3.55,1.41c.1.04.2.09.3.14.56.25,1.11.53,1.65.83.54.30005,1.08.62,1.6.95.3.19.59.38.88.58.55.38,1.09.77,1.61,1.2a24.61317,24.61317,0,0,1,2.3,2.05,23.33927,23.33927,0,0,1,1.83,2c.12.14.24.29.35.43.02.02.04.05.06.07l.3.39c.44.57.85,1.16,1.25,1.78q.375.555.72,1.14c.13.21.25.42.37.64.34.6.67,1.22.98,1.86.48.98.93,2.01,1.33,3.08l.12.3c.19.48.36.98.52,1.48q.18.495.33,1.02c.08.25.16.5.22.76.22.71.41,1.45.59,2.21.19995.81.37,1.64.54,2.5.01.08.03.15.04.23.11.58.21,1.17.3,1.78.1.58.18005,1.18.26,1.78h32.83a13.36954,13.36954,0,0,1-.1-1.78c0-.16,0-.31.01-.47.01-.16.02-.32.03-.47a1.35989,1.35989,0,0,1,.03-.29,2.475,2.475,0,0,1,.03-.27,2.70883,2.70883,0,0,1,.04-.28c.01-.08.03-.15.04-.23a12.2696,12.2696,0,0,1,.43-1.74c.08-.25.18-.51.28-.76.07-.17.14-.33.21-.5.1-.21.2-.41.31-.62.09-.18.19-.37.3-.55s.22-.36.34-.54c.16-.25.34-.51.53-.76.26-.34.53-.68.83-1.02a18.4168,18.4168,0,0,1,1.46-1.48l.32995-.3h.01a1.12264,1.12264,0,0,1,.2-.18c.29-.25.59-.5.91-.74005a29.86713,29.86713,0,0,1,3.24-2.16q1.605-.945,3.54-1.86c.46-.21.93-.43,1.41-.64.88-.38,1.82-.76,2.8-1.14,1.37-.53,2.83-1.04,4.4-1.55l.9-.23,1.52-.39,9.77-2.5,8.01-2.05,4.69-1.2,2.27-.58,6.95-1.78.55-.14,35.67-9.13,4.38,4.77Z" style="fill:#5f3d3a"/><path d="M57.398,195.48925c29.20656-1.08939,38.86755,10.857,40.48213,28.17l-42.70333,2.22666" style="fill:#68574c"/><path d="M49.31014,240.93923c-.06.56-.13,1.11-.19,1.64-.13,1.06-.26,2.05-.4,2.98a.09024.09024,0,0,1-.01.05c-.08.62-.17,1.21-.26,1.78-.03.23-.07.45-.1.67-.06.38-.13.74-.2,1.1-.11.66-.24,1.28-.36,1.87-.18006.91-.37006,1.74-.55,2.5-.05.2-.1.39-.15.58-.18.64-.35,1.23-.53,1.78q-.105.345-.21.66l-17.94.03c.09-.23.18-.46.28-.69.24-.61.5-1.2.78-1.78.08-.2.18-.39.27-.58.41-.86.85-1.7,1.33-2.5.39-.65.8-1.27,1.23-1.87.26-.38.54-.74.82-1.1.18-.23.36-.45.55-.67a23.83768,23.83768,0,0,1,1.7-1.78l.05-.05a20.09072,20.09072,0,0,1,4.15-2.98,20.89287,20.89287,0,0,1,3.49486-1.49142,3.149,3.149,0,0,1,.9699-.14859Z" style="fill:#7c5d49"/></g><path id="middleground" d="M232.58015,190.09926l-17.97,4.36-.57995.14-7.33,1.78-2.39.58-4.94,1.2-8.45,2.05a7.68973,7.68973,0,0,0-1.18,1.26,6.45951,6.45951,0,0,0-.76,1.24,3.19918,3.19918,0,0,0-.16.39,2.43429,2.43429,0,0,0-.13.38,3.04188,3.04188,0,0,0-.12.4,2.58993,2.58993,0,0,0-.09.4c-.04.2-.07.4-.1.6a5.436,5.436,0,0,0-.03.57,2.71872,2.71872,0,0,0-.02.57,17441.065,17441.065,0,0,1,.02.24,2.69046,2.69046,0,0,0,.03.4,2.3002,2.3002,0,0,0,.05.45c.02.17.05.35.08.52a3.7328,3.7328,0,0,0,.09.46,3.28646,3.28646,0,0,0,.09.43.03656.03656,0,0,0,.01.03.035.035,0,0,0,.01.02,13.36832,13.36832,0,0,0,.42,1.42c.18.53.39,1.07.63,1.61.03.1.08.2.12.3h.01c.01.03.02.05.03.08.11005.23.22.47.33.71.11.23.22.46.34.69.02.03.03.07.05.1.25.25.5.50995.74.75995a1.14309,1.14309,0,0,1,.15.16h.01c.24.25.48.51.71.76.17.18.33.37.5.55.22.25.44.49.65.73.27.31.54.62.79.93.18.21.35.42.52.63.36.44.71.89,1.03,1.33.14.18.27.36.4.54h.01c.06.08.11.15.16.23.21.3.42.6.62.89.21.29.4.59.59.89.38.59.74,1.19,1.07,1.78.11.2.21.38995.32.58.24.45.46.9.68,1.35.08.19.17.38.26.57.12.27.24.55.35.82q.27.67492.51,1.35c.03.09.06.19.09.28.06.18.12.35.17.52.09.31.18.62.26.92.03.11005.06006.23005.09.34.05.19.1.38.14.57.04.23.09.45.13.67.03.18.06.36.09.53h.01a.67406.67406,0,0,0,.02.13995c0,.03.01.06006.01.08.08.5.13995,1,.18,1.49.02.25.03.49.04.74a20.77288,20.77288,0,0,1-.05,2.5c-.02.25-.04.5-.07.75s-.07.5-.1.74c-.02.1-.03.2-.05.29-.02.14-.05.28-.07.42a.30909.30909,0,0,0-.02.08l-.15.69c-.04.19-.09.39-.13995.58,0,.02-.01.03-.01.05-.17005.63-.36005,1.25-.59,1.87a22.72982,22.72982,0,0,1-1.29,2.98c-.01.02-.02.03-.03.05-.1.18994-.2.39-.3.58-.17.31-.35.63-.53.94-.06006.09-.11005.17-.16.26-.14.22-.28.45-.43.67-.24.37-.48.74-.74,1.1-.19.28-.39.56-.59.83-.09.12005-.18.23-.27.34-.17.24-.35.47-.54.7-.67.84-1.39,1.68-2.17,2.5-.18.19-.36.39-.55.58-.56.6-1.16,1.18994-1.78,1.78-.13.12-.26.25-.39.37l-54.49.12h-1.61l-88.48.2c0-.01.01-.02.01-.03q.10493-.31494.21-.66c.18-.55.35-1.14.53-1.78.05-.19.1-.38.15-.58.18-.76.37-1.59.55-2.5.12-.59.25-1.21.36-1.87.07-.36005.14-.72.2-1.1.03-.22.06995-.44.1-.67.09-.57.18-1.16.26-1.78a.09024.09024,0,0,0,.01-.05c.13995-.93.27-1.92.4-2.98.06-.53.13-1.08.19-1.64v-.01c-.01-.09-.01-.18-.02-.27-.01-.2-.02-.39-.04-.58-.03-.35-.06-.7-.1-1.04a.77088.77088,0,0,0-.02-.15c-.03-.29-.07-.57-.12-.86-.05-.31-.11-.62-.17-.92-.05-.24-.1-.47-.15-.71a.035.035,0,0,1-.01-.02c-.11-.47-.24-.93-.38-1.38a.035.035,0,0,1-.01-.02c-.04-.12-.08-.25-.13-.37-.03-.1-.07-.2-.09-.29-.08-.22-.17-.44-.26-.66-.09-.22-.18-.43-.28-.65-.03-.07-.07-.14-.1-.21-.08-.18-.17-.35-.26-.51995l-.06-.12c-.09-.18-.19-.36005-.29-.53-.14-.24-.28-.48-.43-.71a6.1627,6.1627,0,0,0-.36-.53c-.01-.02-.02-.03-.03-.05-.13-.2-.28-.4-.43-.59-.17-.21-.34-.42-.51-.62-.16-.18-.31-.35-.47-.52-.09-.1-.18-.19-.27-.28-.21-.22-.43-.44-.66-.65-.06-.06-.13-.12-.2-.18-.22-.19-.45-.38-.68-.57-.1-.08-.2-.16-.3-.23-.2-.16-.41-.31-.63-.46a1.0461,1.0461,0,0,0-.11-.08h-.01q-.27-.18-.54-.36005a21.93018,21.93018,0,0,0-4.34-2.13995h-.01c-.41-.16-.82-.31-1.25-.44l-.01-.01c-.62-.01-1.24-.02-1.85-.04-.61-.03-1.21-.06-1.8-.1l-.27-.03c-.2-.01-.4-.03-.59-.05-.29-.00995-.59-.04-.87-.06995q-1.74-.18009-3.39-.48c-.27-.05-.54-.1-.8-.15-.24-.04-.48-.08-.71-.14-.28-.06-.56-.13-.83-.19a2.98568,2.98568,0,0,1-.32-.08c-.37-.08-.74-.18-1.1-.27-.47-.13-.93-.27-1.38-.41-.32-.1-.62994-.2-.94-.31-.28-.1-.56995-.2-.85-.31-.3-.11-.59-.22-.87-.34-.11-.05-.22-.09-.33-.14-.18-.07-.36-.15-.53-.23-.39-.17-.77-.35-1.14-.53s-.75-.38-1.11-.57c-.4-.21-.78-.44-1.16-.67-.38-.24-.76-.48-1.13-.73h-.00995c-.16-.11-.33-.23-.49005-.34-.29-.2-.56994-.41-.85-.63a1.44592,1.44592,0,0,1-.15-.11c-.25995-.2-.52-.41-.77-.63-.19-.16-.38-.32-.57-.5a3.47577,3.47577,0,0,1-.29-.25c0-.01-.00995-.01-.02-.02-.17-.16-.34-.32-.51-.49-.1-.09-.2-.19-.3-.28-.09-.1-.19-.2-.28-.29-.14-.14-.29-.3-.43-.45l-.14-.14c-.29-.31995-.58-.64-.84-.98l-.3-.36c-.02-.02-.03-.04-.05-.06-.06-.08-.13-.16-.18-.24a21.29707,21.29707,0,0,1-1.29-1.78c-.1-.15-.2-.3-.29-.45-.19-.28-.36-.56-.53-.85-.07-.1-.12-.2-.18-.3-.22-.38-.44-.77-.65-1.18-.06-.13-.13-.25-.19-.38-.11-.21-.21-.42-.31-.64a11.70627,11.70627,0,0,1-.52-1.14,1.41534,1.41534,0,0,1-.08-.18c-.12-.26-.23-.53-.33-.79-.11-.27-.22-.54-.31-.81-.06-.13-.1-.26-.15-.39-.12-.33-.24-.67-.35-1.01-.11-.3-.2-.6-.29-.9-.07-.18994-.12-.38995-.18-.59q-.225-.75-.42-1.53c-.00995-.00995-.00995-.00995-.00995-.02-.04-.17-.08-.33-.12-.5-.03-.11005-.06-.23-.08-.34-.07-.28-.13-.57-.2-.86a.50148.50148,0,0,0-.02-.12c-.03-.15-.07-.3-.09-.46-.04-.16-.07-.32-.1-.48-.06-.32-.12-.64-.17-.97a1.863,1.863,0,0,1-.04-.25.188.188,0,0,1-.02-.08c-.01-.04-.01-.09-.02-.14-.05-.24-.09-.5-.12-.75-.04-.25-.07-.51-.11-.76-.1-.68-.19-1.37-.26-2.08h.01l32.7.05,5.37.00995h.01c.06.01.13.01.19.02.01,0,.01,0,.02.02h.13a43.05762,43.05762,0,0,1,13.93,3.49,2.57773,2.57773,0,0,1,.29.14,29.571,29.571,0,0,1,3.29,1.78c.3.19.6.38.89.58q.855.57,1.65,1.2a28.43324,28.43324,0,0,1,4.61,4.55l.3.39c.45.57.88,1.17,1.27,1.78.26.37.5.75.73,1.14.13.21.25.42.37.64.19.33.37.67.55,1.01.13.25.25.50995.37.75995.13.27.26.55005.39.82.36.76.69,1.55.99,2.35.04.1.07.2.11.3a1.30719,1.30719,0,0,1,.09.28q.225.6.42,1.2c.06.19.13.39.18.58.04.14.08.29.12.44.08.25.15.5.22.76.21.72.39,1.46.55,2.21.19.81.35,1.65.49,2.5.01.08.03.15.04.23.1.58.19,1.18.27,1.78.08.58.15,1.18.21,1.78h32.67l21.91-.01h10.91a13.31461,13.31461,0,0,1-.1-1.77c0-.16.01-.32.02-.47.01-.16.02-.32.03-.47a1.35989,1.35989,0,0,1,.03-.29,2.475,2.475,0,0,1,.03-.27c.01-.1.02-.19.03-.28h.01c.01-.08.02-.15.03-.23a10.81874,10.81874,0,0,1,.44-1.74,6.85551,6.85551,0,0,1,.27-.76c.06994-.17.13995-.34.22-.5.1-.21.2-.41.31-.62.09-.18.19-.37.3-.55.1-.18.21-.36.32-.54.17-.26.34-.51.53-.76.26-.34.53-.68.83-1.02a18.42685,18.42685,0,0,1,1.46-1.48,3.26656,3.26656,0,0,1,.35-.3h.01a1.12264,1.12264,0,0,1,.2-.18c.29-.25.59-.5.91-.74005a28.2801,28.2801,0,0,1,3.2-2.16q1.605-.945,3.54-1.86c.46-.21.93-.43,1.42-.64q1.32-.585,2.79-1.14c1.38-.53,2.85-1.05,4.43-1.56l.86005-.22,1.52-.39,9.77-2.5,8.01-2.05,4.69-1.2,2.27-.58,6.95-1.78.55-.14,35.71-9.14.01.01Z" style="fill:#9a6f50"/><g id="stripes"><path d="M201.32015,230.38924h-155.29c-.01-.02-.02-.03-.03-.05-.13-.2-.28-.4-.43-.59-.17-.21-.34-.42-.51-.62-.16-.18-.31-.35-.47-.52h156.21c.06.18.12.35.17.52.09.31.18.62.26.92C201.26015,230.15926,201.29018,230.27926,201.32015,230.38924Z" style="fill:#8e5e40"/><path d="M201.69014,232.15926h-154.58c-.09-.18-.19-.36005-.29-.53-.14-.24-.28-.48-.43-.71a6.1627,6.1627,0,0,0-.36-.53h155.29c.05.19.1.38.14.57.05.23.1.45.14.67C201.63014,231.79921,201.66017,231.97927,201.69014,232.15926Z" style="fill:#ad8361"/><path d="M201.90016,237.10927c-.02.25-.04.5-.08.75-.03.25-.07.5-.1.74a2.882,2.882,0,0,1-.04.29h-152.55c-.03-.29-.07-.57-.12-.86-.05-.31-.11-.62-.17-.92Z" style="fill:#8e5e40"/><path d="M201.68013,238.88924c-.02.14-.05.28-.08.42a.30909.30909,0,0,0-.02.08c-.04.23-.09.46-.14.69-.04.19-.09.39-.14.58H49.29018c-.01-.2-.02-.39-.04-.58-.03-.35-.06-.7-.1-1.04a.77088.77088,0,0,0-.02-.15Z" style="fill:#ad8361"/><path d="M199.39015,245.60927c-.1.18994-.2.39-.32.58-.17.31-.35.63-.53.94-.04.09-.1.17-.15.26h-149.94c.09-.57.18-1.16.26-1.78Z" style="fill:#8e5e40"/><path d="M198.39015,247.38924c-.13.22-.27.45-.41.67-.24.37-.48.74-.74,1.1h-149.09c.07-.36005.14-.72.2-1.1.03-.22.06995-.44.1-.67Z" style="fill:#ad8361"/><path d="M193.13014,254.10927c-.57.6-1.17,1.18994-1.79,1.78h-144.78c.18-.55.35-1.14.53-1.78Z" style="fill:#8e5e40"/><path d="M191.34016,255.88924c-.13.13-.27.26-.41.39l-54.5.1h-1.61l-88.48.2c0-.01.01-.02.01-.03q.10493-.31494.21-.66Z" style="fill:#d28c57"/><path d="M70.28017,220.09926c.1.58.19,1.18.27,1.78h-46.4c-.37-.08-.74-.18-1.1-.27-.47-.13-.93-.27-1.38-.41-.32-.1-.62994-.2-.94-.31-.28-.1-.56995-.2-.85-.31-.3-.11-.59-.22-.87-.34-.11-.05-.22-.09-.33-.14Z" style="fill:#8e5e40"/><path d="M197.52016,221.87923h-61.37c0-.16.01-.32.02-.47.01-.16.02-.32.03-.47a1.35989,1.35989,0,0,1,.03-.29,2.475,2.475,0,0,1,.03-.27c.01-.1.02-.19.03-.28h60.02c.21.3.42.6.62.89C197.14015,221.27926,197.33015,221.57924,197.52016,221.87923Z" style="fill:#8e5e40"/><path d="M70.55013,221.87923c.08.58.15,1.18.21,1.78h-33.92c-.41-.16-.82-.31-1.25-.44-.63-.01-1.25-.02-1.86-.05-.61-.03-1.21-.06-1.8-.1l-.27-.03c-.2-.01-.4-.03-.59-.05-.29-.00995-.59-.04-.87-.06995q-1.74-.18009-3.39-.48c-.27-.05-.54-.1-.8-.15-.24-.04-.48-.08-.71-.14-.28-.06-.56-.13-.83-.19a2.98568,2.98568,0,0,1-.32-.08Z" style="fill:#ad8361"/><path d="M198.59016,223.65926h-95.16l21.91-.01h10.91a13.31461,13.31461,0,0,1-.1-1.77h61.37C197.90016,222.46926,198.26015,223.06923,198.59016,223.65926Z" style="fill:#ad8361"/><path d="M68.26015,212.17922q.225.6.42,1.2h-59.74l-.14-.14c-.29-.31995-.58-.64-.84-.98l-.3-.36c-.02-.02-.03-.04-.05-.06-.06-.08-.13-.16-.18-.24h60.63c.04.1.07.2.11.3A1.30719,1.30719,0,0,1,68.26015,212.17922Z" style="fill:#8e5e40"/><path d="M190.59016,213.37923h-51.04a18.42685,18.42685,0,0,1,1.46-1.48,3.26656,3.26656,0,0,1,.35-.3h48.4c.03.1.08.2.12.3h.01c.01.03.02.05.03.08.11005.23.22.47.33.71C190.36012,212.91927,190.47017,213.14925,190.59016,213.37923Z" style="fill:#8e5e40"/><path d="M68.98012,214.39925c.08.25.15.5.22.76h-58.43a3.47577,3.47577,0,0,1-.29-.25c0-.01-.00995-.01-.02-.02-.18-.15-.36-.32-.53-.49-.09-.09-.19-.18-.28-.28-.09-.1-.19-.2-.28-.29-.14-.14-.29-.3-.43-.45h59.74c.06.19.13.39.18.58C68.90016,214.09926,68.94014,214.24923,68.98012,214.39925Z" style="fill:#ad8361"/><path d="M192.25014,215.15926h-54.06c.17-.26.34-.51.53-.76.26-.34.53-.68.83-1.02h51.04c.02.03.03.07.05.1.25.25.5.50995.74.75995a1.14309,1.14309,0,0,1,.15.16h.01C191.78017,214.64925,192.02016,214.90926,192.25014,215.15926Z" style="fill:#ad8361"/><path d="M63.39015,203.09926c.45.57.88,1.17,1.27,1.78h-61.19a1.41534,1.41534,0,0,1-.08-.18c-.12-.26-.23-.53-.33-.79-.11-.27-.22-.54-.31-.81Z" style="fill:#8e5e40"/><path d="M188.84016,203.09926c-.06.12-.1.25-.15.38a3.04188,3.04188,0,0,0-.12.4,2.58993,2.58993,0,0,0-.09.4c-.04.2-.07.4-.1.6h-34.95c1.38-.53,2.85-1.05,4.43-1.56l.86005-.22Z" style="fill:#8e5e40"/><path d="M65.39015,206.01925c.13.21.25.42.37.64h-61.46c-.11-.21-.21-.42-.31-.64a11.70627,11.70627,0,0,1-.52-1.14h61.19C64.92012,205.24923,65.16017,205.62923,65.39015,206.01925Z" style="fill:#ad8361"/><path d="M188.35017,206.25924a2.69046,2.69046,0,0,0,.03.4h-39.16c.46-.21.93-.43,1.42-.64q1.32-.585,2.79-1.14h34.95a5.436,5.436,0,0,0-.03.57c-.01.19-.01.38-.01.57v.12A.48639.48639,0,0,0,188.35017,206.25924Z" style="fill:#ad8361"/><path d="M52.65016,194.59926a29.571,29.571,0,0,1,3.29,1.78h-55.1c-.04-.16-.07-.32-.1-.48-.06-.32-.12-.64-.17-.97a1.863,1.863,0,0,1-.04-.25.188.188,0,0,1-.02-.08Z" style="fill:#8e5e40"/><path d="M56.83015,196.95925q.855.57,1.65,1.2h-57.25c-.03-.11005-.06-.23-.08-.34-.07-.28-.13-.57-.2-.86a.50148.50148,0,0,0-.02-.12c-.03-.15-.07-.3-.09-.46h55.1C56.24013,196.56923,56.54018,196.75924,56.83015,196.95925Z" style="fill:#ad8361"/><circle cx="230.64904" cy="187.55259" r="4.05556" style="fill:#c09059"/></g><g id="cannons"><circle cx="141.09348" cy="240.0413" r="5.5" style="fill:#908d93;stroke:#8e5e40;stroke-miterlimit:10;stroke-width:2px"/><polygon points="141.743 234.157 144.348 236.937 138.39 243.632 135.411 241.497 141.743 234.157" style="fill:#908d93"/><circle cx="138.24467" cy="237.5424" r="3.86521" style="fill:#454a51;stroke:#c7bbbb;stroke-miterlimit:10;stroke-width:2px"/><circle cx="108.8296" cy="240.0413" r="5.5" style="fill:#908d93;stroke:#8e5e40;stroke-miterlimit:10;stroke-width:2px"/><polygon points="109.479 234.157 112.084 236.937 106.126 243.632 103.147 241.497 109.479 234.157" style="fill:#908d93"/><circle cx="105.98079" cy="237.5424" r="3.86521" style="fill:#454a51;stroke:#c7bbbb;stroke-miterlimit:10;stroke-width:2px"/><circle cx="92.38014" cy="240.0413" r="5.5" style="fill:#908d93;stroke:#8e5e40;stroke-miterlimit:10;stroke-width:2px"/><polygon points="93.03 234.157 95.635 236.937 89.677 243.632 86.697 241.497 93.03 234.157" style="fill:#908d93"/><circle cx="89.53134" cy="237.5424" r="3.86521" style="fill:#454a51;stroke:#c7bbbb;stroke-miterlimit:10;stroke-width:2px"/><circle cx="76.09016" cy="240.0413" r="5.5" style="fill:#908d93;stroke:#8e5e40;stroke-miterlimit:10;stroke-width:2px"/><polygon points="76.74 234.157 79.345 236.937 73.387 243.632 70.407 241.497 76.74 234.157" style="fill:#908d93"/><circle cx="73.24136" cy="237.5424" r="3.86521" style="fill:#454a51;stroke:#c7bbbb;stroke-miterlimit:10;stroke-width:2px"/><circle cx="125.34348" cy="240.0413" r="5.5" style="fill:#908d93;stroke:#8e5e40;stroke-miterlimit:10;stroke-width:2px"/><polygon points="125.993 234.157 128.598 236.937 122.64 243.632 119.661 241.497 125.993 234.157" style="fill:#908d93"/><circle cx="122.49467" cy="237.5424" r="3.86521" style="fill:#454a51;stroke:#c7bbbb;stroke-miterlimit:10;stroke-width:2px"/></g><g id="back"><path id="beam" d="M32.70806,190.94588l0-102.11551c1.675-2.20268,3.45172-2.24583,5.38531,0V190.94588Z" style="fill:#8e5e40"/><path id="top_sail" data-name="top sail" d="M4.23029,101.3777c17.99435,16.21206,16.51017,37.80747.17311,51.32979A.73633.73633,0,0,0,4.87559,154.01H56.90453a.76436.76436,0,0,0,.47022-.16222c17.862-14.03142,18.87822-39.999-.008-53.6113a.7632.7632,0,0,0-.44423-.14314H4.72607A.73765.73765,0,0,0,4.23029,101.3777Z" style="fill:#26252a"/><line x1="8.47811" y1="127.05167" x2="81.47811" y2="127.05167" style="fill:none"/><path d="M37.01053,150.87147c5.2551.04787,18.15333.01156,19.45493.00773a.28154.28154,0,0,0,.1912-.0757c6.10149-5.44181,10.34491-13.39386,11.31956-20.19643a.28809.28809,0,0,0-.5262-.20391c-6.96163,10.30578-17.60389,16.39415-30.50375,19.89568A.29056.29056,0,0,0,37.01053,150.87147Z" style="fill:#454a51"/><rect x="32.70807" y="154.01" width="5.38532" height="8.30648" style="fill:#7c5d49"/><circle cx="35.40073" cy="87.16214" r="5" style="fill:#26252a"/><circle cx="37.06619" cy="89.43734" r="1.19186" style="fill:#454a51"/></g><g id="Middle"><path d="M97.88014,207.30922v16.35h-27.12a43.18019,43.18019,0,0,0-4.63-16.35h15.3v-188.78l5.5-1.28v190.06Z" style="fill:#8e5e40"/><path d="M105.59016,30.19232V24.37038a.49556.49556,0,0,0-.62759-.47766L96.5383,26.22115a.49557.49557,0,0,1-.62736-.46259l-.3024-9.93561a.49557.49557,0,0,0-.60686-.46778l-8.07155,1.86409v.03L82.038,18.38778a.49557.49557,0,0,1-.6079-.48267V5.95414a.49558.49558,0,0,1,.3968-.48563L108.66581.01011a.49558.49558,0,0,1,.59434.48563V11.7976a.49557.49557,0,0,0,.58247.48789l9.16507-1.63252a.49556.49556,0,0,1,.58247.48789v7.24491a.49557.49557,0,0,0,.50341.49551l17.91367-.28331a.49557.49557,0,0,1,.17055.9636L106.24845,30.66042A.49557.49557,0,0,1,105.59016,30.19232Z" style="fill:#26252a"/><path d="M95.9977,15.13489l11.70955-2.42416a.49557.49557,0,0,1,.45937.827L96.74828,25.53a.49557.49557,0,0,1-.85424-.32665l-.29121-9.56808A.49555.49555,0,0,1,95.9977,15.13489Z" style="fill:#454a51"/><path d="M105.92411,23.60405l11.20637-3.86621a.49556.49556,0,0,1,.48413.84473L106.40825,30.188a.49557.49557,0,0,1-.81809-.37626V24.07252A.49557.49557,0,0,1,105.92411,23.60405Z" style="fill:#454a51"/><line x1="81.43015" y1="18.52926" x2="76.01015" y2="19.79926" style="fill:none"/><path id="top_sail-2" data-name="top sail" d="M52.44863,67.17029c17.99435,16.21205,16.51017,37.80746.17311,51.32978a.73633.73633,0,0,0,.47219,1.30251h52.02894a.76439.76439,0,0,0,.47022-.16221c17.86195-14.03142,18.87823-39.999-.008-53.61131a.7632.7632,0,0,0-.44423-.14314H52.94441A.73766.73766,0,0,0,52.44863,67.17029Z" style="fill:#26252a"/><line x1="56.69646" y1="92.84425" x2="129.69646" y2="92.84425" style="fill:none"/><path d="M85.22887,116.66405c5.2551.04787,18.15333.01156,19.45493.00773a.28149.28149,0,0,0,.19121-.0757c6.10148-5.44181,10.3449-13.39386,11.31955-20.19642a.2881.2881,0,0,0-.5262-.20392c-6.96163,10.30578-17.60389,16.39415-30.50374,19.89568A.29056.29056,0,0,0,85.22887,116.66405Z" style="fill:#454a51"/><rect x="81.43013" y="119.80258" width="5.5" height="8.30648" style="fill:#7c5d49"/><rect x="81.43013" y="179.5248" width="5.5" height="8.30648" style="fill:#7c5d49"/><path id="top_sail-3" data-name="top sail" d="M53.15019,126.89251c17.99435,16.21206,16.51017,37.80746.17311,51.32978a.73633.73633,0,0,0,.47218,1.30251h52.029a.76441.76441,0,0,0,.47022-.16221c17.86195-14.03142,18.87822-39.999-.008-53.61131a.7632.7632,0,0,0-.44424-.14313H53.646A.73765.73765,0,0,0,53.15019,126.89251Z" style="fill:#26252a"/><line x1="57.39801" y1="152.56648" x2="130.39801" y2="152.56648" style="fill:none"/><path d="M85.93043,176.38627c5.2551.04787,18.15333.01156,19.45493.00773a.28147.28147,0,0,0,.1912-.0757c6.10149-5.44181,10.34491-13.39386,11.31956-20.19642a.2881.2881,0,0,0-.5262-.20392c-6.96163,10.30579-17.60389,16.39416-30.50375,19.89569A.29055.29055,0,0,0,85.93043,176.38627Z" style="fill:#454a51"/></g><g id="front"><path id="beam-2" data-name="beam" d="M130.71848,223.66372l0-169.98613c-1.85608-1.97145-3.63171-1.91738-5.33334,0l-.04167,169.98613Z" style="fill:#8e5e40"/><path id="top_sail-4" data-name="top sail" d="M96.07363,88.92029c17.99435,16.21206,16.51017,37.80746.17311,51.32979a.73633.73633,0,0,0,.47218,1.30251h52.029a.76442.76442,0,0,0,.47022-.16222c17.862-14.03142,18.87822-39.999-.008-53.61131a.7632.7632,0,0,0-.44424-.14313H96.56941A.73765.73765,0,0,0,96.07363,88.92029Z" style="fill:#26252a"/><line x1="100.32145" y1="114.59426" x2="173.32145" y2="114.59426" style="fill:none"/><path d="M128.85387,138.41405c5.2551.04787,18.15333.01156,19.45493.00774a.28156.28156,0,0,0,.1912-.0757c6.10149-5.44181,10.34491-13.39387,11.31956-20.19643a.28809.28809,0,0,0-.5262-.20391c-6.96163,10.30578-17.60389,16.39415-30.50375,19.89568A.29055.29055,0,0,0,128.85387,138.41405Z" style="fill:#454a51"/><rect x="125.28099" y="141.55259" width="5.5" height="8.30648" style="fill:#7c5d49"/><path id="top_sail-5" data-name="top sail" d="M96.07363,150.00362c17.99435,16.21206,16.51017,37.80746.17311,51.32979a.73632.73632,0,0,0,.47218,1.3025h52.029a.76441.76441,0,0,0,.47022-.16221c17.862-14.03142,18.87822-39.999-.008-53.61131a.7632.7632,0,0,0-.44424-.14313H96.56941A.73765.73765,0,0,0,96.07363,150.00362Z" style="fill:#26252a"/><line x1="100.32145" y1="175.67759" x2="173.32145" y2="175.67759" style="fill:none"/><path d="M128.85387,199.49738c5.2551.04787,18.15333.01156,19.45493.00773a.28147.28147,0,0,0,.1912-.0757c6.10149-5.4418,10.34491-13.39386,11.31956-20.19642a.28809.28809,0,0,0-.5262-.20391c-6.96163,10.30578-17.60389,16.39415-30.50375,19.89568A.29055.29055,0,0,0,128.85387,199.49738Z" style="fill:#454a51"/><rect x="125.28099" y="202.50602" width="5.5" height="8.30648" style="fill:#7c5d49"/><circle cx="128.03099" cy="53.05259" r="5" style="fill:#26252a"/><circle cx="129.69646" cy="55.32779" r="1.19186" style="fill:#454a51"/></g><g id="foreground"><path d="M.18422,190.86949l37.90916.07639q29.1913,2.19911,32.66677,32.71338l65.49-.01c-1.62888-8.49853,6.27539-14.72659,19.61566-19.66" style="fill:none;stroke:#673434;stroke-miterlimit:10;stroke-width:3px"/><path d="M.18422,189.36828H.09178a6.91387,6.91387,0,0,0-.08163,1.50094L.1785,192.3738Z" style="fill:#673434"/><path d="M156.38564,205.39769c3.209-1.15478,11.81684-4.17817,15.01766-5.545-3.80111.26007-12.96231,2.08522-16.05688,2.72929l-2.22516.87338,1.30555,2.68055Z" style="fill:#673434"/><path d="M156.37747,205.37923c3.209-1.15478,11.81684-4.17817,15.01766-5.545-3.80111.26007-12.96231,2.08521-16.05688,2.72929l-2.22516.87338,1.30555,2.68055Z" style="fill:#673434"/><path d="M190.92012,200.20925c-3.35754,2.97922-3.2546,7.43284-.20507,13.24726,15.98227,14.99045,13.901,29.184.21508,42.82275l-13.17014.02417c17.58976-11.60993,22.68187-24.22095,9.80363-41.42994C184.48092,209.01726,184.07954,203.28209,190.92012,200.20925Z" style="fill:#7c5d49"/></g></g></g></svg>