<svg xmlns="http://www.w3.org/2000/svg" viewBox="0 0 74.83 66.26"><defs><style>.cls-1{fill:#110c6e;}.cls-2{fill:#de0d92;}.cls-3{fill:#f43eb1;}.cls-4{fill:#f778c9;}.cls-5{fill:#d40c8b;}</style></defs><g id="Layer_2" data-name="Layer 2"><g id="Layer_1-2" data-name="Layer 1"><path class="cls-1" d="M74.75,12.79,69.15.86,67.7,0,51.08,1.09l-.51.12L13.18,17.61l-.79.83L0,50.27.45,52,16.66,65l.87.33,19.3.91,1-.33,27.51-22.5.49-.72,9-28.84ZM69,7.65,71,11.78l-8.89-.5-.89,0,6.22-7ZM64.26,3.23l-2.83,3.2-3.26,3.69L56,7h0l-2.08-3Zm-24.5,6L50.64,4.46,55.84,12l-26.08,14-8.59,4.62L15.82,19.73Zm15.9,6.29L51.41,31.17,47.63,33,27.87,42.52l-5.29-9.2ZM13.94,22.71l4.74,9.69L5.21,45.13Zm3.15,38.81L3.67,50.72,14.94,40.06l5.22-4.93,5.41,9.4L20.84,54Zm2.88.94L22.2,58l5-10.09,3.87,8.17,3.36,7.08Zm17.46-.07L33.88,54.9l-4.61-9.72,18.81-9.07L52.45,34l9.63,8.24Zm31-38.06L63.66,39.64,54.38,31.7l2.19-8.09,2.58-9.5,12.24.7Z"/><polygon class="cls-2" points="70.97 11.78 62.08 11.28 69.03 7.65 70.97 11.78"/><polygon class="cls-3" points="69.03 7.65 62.08 11.28 61.19 11.23 67.41 4.2 69.03 7.65"/><polygon class="cls-2" points="61.43 6.43 58.17 10.12 56 6.95 61.43 6.43"/><polygon class="cls-4" points="64.26 3.23 61.43 6.43 56 6.95 55.99 6.95 53.91 3.91 64.26 3.23"/><polygon class="cls-4" points="55.84 12.02 29.76 26.05 39.76 9.23 50.64 4.46 55.84 12.02"/><polygon class="cls-2" points="39.76 9.23 29.76 26.05 21.17 30.67 15.82 19.73 39.76 9.23"/><polygon class="cls-3" points="18.68 32.4 5.21 45.13 13.94 22.71 18.68 32.4"/><polygon class="cls-3" points="25.57 44.53 20.84 54.01 14.94 40.06 20.16 35.13 25.57 44.53"/><polygon class="cls-2" points="20.84 54.01 17.09 61.52 3.67 50.72 14.94 40.06 20.84 54.01"/><polygon class="cls-5" points="62.08 42.24 37.43 62.39 33.88 54.9 48.08 36.11 52.45 34 62.08 42.24"/><polygon class="cls-4" points="48.08 36.11 33.88 54.9 29.27 45.18 48.08 36.11"/><polygon class="cls-4" points="34.47 63.15 19.97 62.46 22.2 57.99 31.11 56.07 34.47 63.15"/><polygon class="cls-2" points="31.11 56.07 22.2 57.99 27.24 47.9 31.11 56.07"/><polygon class="cls-2" points="71.39 14.81 68.43 24.33 56.57 23.61 59.15 14.11 71.39 14.81"/><polygon class="cls-4" points="68.43 24.33 63.66 39.64 54.38 31.7 56.57 23.61 68.43 24.33"/><polygon class="cls-2" points="55.66 15.52 51.41 31.17 47.63 32.99 22.58 33.32 55.66 15.52"/><polygon class="cls-3" points="47.63 32.99 27.87 42.52 22.58 33.32 47.63 32.99"/></g></g></svg>