<svg xmlns="http://www.w3.org/2000/svg" viewBox="0 0 32.13 43.74"><defs><style>.cls-1{fill:#110c6e;}.cls-2{fill:#21fa90;}.cls-3{fill:#73fcba;}.cls-4{fill:#04c869;}.cls-5{fill:#affed8;}.cls-6{fill:none;}</style></defs><g id="Layer_2" data-name="Layer 2"><g id="Layer_1-2" data-name="Layer 1"><path class="cls-1" d="M31.79,29.68l.34-1.39L26.6,7.19l-.76-1L13.72,0l-2,.67L0,24.46l.25,1.7L16.79,43.74H19Zm-6.36-.15,2.19.27-7.13,7.82.86-4.06,0-.18.89-4.25Zm1.48-9.3,1.75,6.68-6.31-.79-1.43-6.91-1.11-5.3,4.48-3.7ZM22.41,7.85l-1.25,1-2.41,2L17.53,8,16.05,4.57Zm-16,10.29L12.94,4.93l3.55,8.3-.44.77-4.43,7.77L4,23.13Zm8.2,4.36,2.85-5L19,24.71ZM6.07,28,4.33,26.12l8-1.43,7.06,3.6-.7,3.28-1.69,8Z"/><polygon class="cls-2" points="20.49 37.62 21.35 33.56 25.43 29.53 27.62 29.8 20.49 37.62"/><polygon class="cls-3" points="21.35 33.56 21.39 33.38 22.28 29.13 25.43 29.53 21.35 33.56"/><polygon class="cls-2" points="6.45 18.14 12.94 4.93 16.49 13.23 16.05 14 6.45 18.14"/><polygon class="cls-4" points="4 23.13 6.45 18.14 16.05 14 11.62 21.77 4 23.13"/><polygon class="cls-4" points="17.01 39.59 6.07 27.97 18.7 31.57 17.01 39.59"/><polygon class="cls-2" points="18.7 31.57 6.07 27.97 4.33 26.12 12.34 24.69 19.4 28.29 18.7 31.57"/><polygon class="cls-5" points="19 24.71 14.65 22.5 17.5 17.52 19 24.71"/><polygon class="cls-4" points="28.66 26.91 22.35 26.11 20.92 19.21 26.91 20.23 28.66 26.91"/><polygon class="cls-3" points="26.91 20.23 20.92 19.21 19.81 13.91 24.29 10.21 26.91 20.23"/><polygon class="cls-2" points="18.75 10.89 17.53 8.04 21.16 8.89 18.75 10.89"/><polygon class="cls-3" points="21.16 8.89 17.53 8.04 16.05 4.57 22.41 7.85 21.16 8.89"/><line class="cls-6" x1="21.16" y1="33.75" x2="21.35" y2="33.56"/><line class="cls-6" x1="25.43" y1="29.53" x2="25.59" y2="29.37"/></g></g></svg>