<svg xmlns="http://www.w3.org/2000/svg" viewBox="0 0 38.5 48.28"><defs><style>.cls-1{fill:#110c6e;}.cls-2{fill:#04c869;}.cls-3{fill:#affed8;}.cls-4{fill:#21fa90;}.cls-5{fill:#73fcba;}.cls-6{fill:none;}</style></defs><g id="Layer_2" data-name="Layer 2"><g id="Layer_1-2" data-name="Layer 1"><path class="cls-1" d="M24.09,6.58l-.92-.87L9.74,0,7.49.72l-7.36,12L0,14.36,10.72,40.93l1.11,1,19.28,6.32,2.16-.87,5.21-9.79,0-1.64Zm-2.23,3.69,11.76,24-8.27-1.76-1.59-.34L16.52,14.82,19.85,12ZM14.09,5.79l5,2.11L17.12,9.56,15,11.32,12.42,5.08ZM6.43,9.38l2.3-3.76,2.13,5.07.7,1.67L4.81,12Zm2.41,17.2-.16-.37L4.41,15.62l8.69.44,7.1,17-6.95,4.52Zm13.47,15-5.76-1.88,5-3.26.43-.28,5,6.95Zm9.14,1.55-2.9-4-1.9-2.64,5.11,1.09,2.4.51Z"/><polygon class="cls-2" points="22.31 41.59 16.55 39.71 21.57 36.45 22.31 41.59"/><polygon class="cls-3" points="26.99 43.12 22.31 41.59 21.57 36.45 22 36.16 26.99 43.12"/><polygon class="cls-3" points="31.77 37.54 28.55 39.09 26.65 36.45 31.77 37.54"/><polygon class="cls-4" points="34.16 38.05 31.45 43.15 28.55 39.09 31.77 37.54 34.16 38.05"/><polygon class="cls-4" points="33.62 34.24 25.35 32.48 19.86 11.98 21.86 10.27 33.62 34.24"/><polygon class="cls-2" points="25.35 32.48 23.76 32.14 16.52 14.82 19.86 11.98 25.35 32.48"/><polygon class="cls-3" points="19.06 7.9 17.12 9.56 14.09 5.79 19.06 7.9"/><polygon class="cls-5" points="17.12 9.56 15.04 11.32 12.42 5.08 14.09 5.79 17.12 9.56"/><polygon class="cls-2" points="10.86 10.69 6.42 9.38 8.73 5.62 10.86 10.69"/><polygon class="cls-5" points="11.56 12.36 4.81 12.03 6.42 9.38 10.86 10.69 11.56 12.36"/><polygon class="cls-2" points="13.1 16.06 8.84 26.58 8.68 26.21 4.41 15.62 13.1 16.06"/><polygon class="cls-5" points="20.2 33.02 13.25 37.54 8.84 26.58 13.1 16.06 20.2 33.02"/><line class="cls-6" x1="22.31" y1="41.6" x2="22.31" y2="41.59"/></g></g></svg>