<svg xmlns="http://www.w3.org/2000/svg" viewBox="0 0 49.76 39.31"><defs><style>.cls-1{fill:#110c6e;}.cls-2{fill:#0197f6;}.cls-3{fill:#027dca;}.cls-4{fill:#48b8fe;}.cls-5{fill:#9ad8fe;}.cls-6{fill:none;}</style></defs><g id="Layer_2" data-name="Layer 2"><g id="Layer_1-2" data-name="Layer 1"><path class="cls-1" d="M43,.66,41.15,0,12.8,9.34l-.65.4L.2,22l-.2,2,9.45,14.8,2,.59L25.54,32.9l.35-.21L49.42,13.42l.34-2.08ZM37.44,4.58,34,9.26l-1.75,2.38L17.48,19.82l-1.19-4.25-1-3.68ZM9.36,17.16l3.14-3.22,1.18,4.19h0l.73,2.59-9.06.52Zm2,18.67,0,0,.05,0ZM9.92,33.54l-5.77-9L8,24.28l6-.35-2.4,5.63Zm7-.21-4.26,1.94L17,25.1,18.68,27l3.55,3.93ZM25,29.26l-.71-.79L19,22.61l14.76-8.17,2.81-.13,7.1-.32ZM36.59,11.12l5-6.79L43.69,7.7l1.91,3Z"/><polygon class="cls-2" points="34.01 9.26 32.26 11.64 17.48 19.82 16.29 15.57 34.01 9.26"/><polygon class="cls-3" points="11.61 29.57 9.92 33.54 4.15 24.51 8.01 24.29 11.61 29.57"/><polygon class="cls-4" points="14.01 23.93 11.61 29.57 8.01 24.29 14.01 23.93"/><polygon class="cls-4" points="18.68 26.97 16.91 33.33 12.65 35.27 16.98 25.1 18.68 26.97"/><polygon class="cls-3" points="22.23 30.9 16.91 33.33 18.68 26.97 22.23 30.9"/><polygon class="cls-2" points="36.59 14.31 24.33 28.47 19.02 22.61 33.78 14.44 36.59 14.31"/><polygon class="cls-5" points="43.69 13.99 25.04 29.26 24.33 28.47 36.59 14.31 43.69 13.99"/><polygon class="cls-5" points="45.59 10.72 36.59 11.12 43.69 7.7 45.59 10.72"/><polygon class="cls-4" points="43.69 7.7 36.59 11.12 41.56 4.33 43.69 7.7"/><polygon class="cls-3" points="37.44 4.58 34.01 9.26 16.29 15.57 15.24 11.89 37.44 4.58"/><polygon class="cls-5" points="13.68 18.13 9.36 17.16 12.5 13.94 13.68 18.13"/><polygon class="cls-4" points="14.42 20.71 5.37 21.24 9.36 17.16 13.68 18.13 13.69 18.13 14.42 20.71"/><line class="cls-6" x1="8.01" y1="24.28" x2="8" y2="24.27"/></g></g></svg>