<svg xmlns="http://www.w3.org/2000/svg" viewBox="0 0 141.57 57.51"><defs><style>.cls-1{fill:#ca9a7d;}.cls-2,.cls-4{fill:#b47249;}.cls-10,.cls-3,.cls-6{fill:none;}.cls-10,.cls-3,.cls-4{stroke:#2e2e38;stroke-miterlimit:10;}.cls-5,.cls-9{fill:#2e2e38;}.cls-7{fill:#ffd62e;}.cls-8{fill:#ffe785;}.cls-9{opacity:0.43;}.cls-10{stroke-linecap:round;stroke-width:1.25px;}</style></defs><g id="Layer_2" data-name="Layer 2"><g id="chest"><g id="bottom"><g id="wood"><path class="cls-1" d="M115.05,30.42c0,.43-.11.85-.16,1.27H25.55l-.15-1.27Z"/><g id="wood_bg" data-name="wood bg"><path class="cls-2" d="M117,.75c-.12,7.07-.47,14.21-1,20.91a27.84,27.84,0,0,0-11.89-2.06,61.59,61.59,0,0,0-14.41,2.57c-5.4,1.5-10.74,3.25-16,5.25H41.89c-5.7-1.31-11.35-3.19-17.16-3.43-.14-1.43-.26-2.87-.37-4.34-.45-6.13-.73-12.55-.82-18.9Z"/><path class="cls-2" d="M24.73,24c5.81.24,11.46,2.12,17.16,3.43H25.06C24.94,26.29,24.83,25.15,24.73,24Z"/><path class="cls-2" d="M116,21.66c-.17,2-.35,3.89-.56,5.76H73.67c5.24-2,10.58-3.75,16-5.25a61.59,61.59,0,0,1,14.41-2.57A27.84,27.84,0,0,1,116,21.66Z"/><path class="cls-2" d="M115,42H27.17q-.59-3-1.08-6.44-.29-1.87-.54-3.87h89.34L114.71,33h0c-.16,1.18-.33,2.32-.51,3.44-.28,1.81-.59,3.55-.91,5.2Z"/></g><g id="wood_stripes" data-name="wood stripes"><path class="cls-3" d="M73.67,27.42C91,20.82,106.61,16.77,116,21.66"/><path class="cls-4" d="M24.73,24c4.52-.44,10.59,1.16,17.16,3.43"/><path class="cls-3" d="M28.31,16.15c3.39.08,6.44,1.92,9.64,3a22.5,22.5,0,0,0,9.32,1.11,15.81,15.81,0,0,0,6-1.66,10,10,0,0,0,4.36-4.36"/><path class="cls-3" d="M23.22,19.53c5.55.54,11,1.77,16.52,2.6s11.17,1.23,16.64.11,10.75-3.89,14-8.42"/><path class="cls-3" d="M41.89,27.42a41.2,41.2,0,0,0,10.4,1.28"/><path class="cls-3" d="M24.73,24l-.87,0"/><path class="cls-3" d="M59.13,28.6c3.74-.69,7.56-1.4,10.89-3.23A36.11,36.11,0,0,0,75.85,21a32.13,32.13,0,0,1,5.86-4.26,11.37,11.37,0,0,1,7-1.42"/><path class="cls-3" d="M118.19,22.78A20.34,20.34,0,0,0,116,21.66"/><path class="cls-3" d="M73.67,27.42c-.93.35-1.86.71-2.78,1.08"/><path class="cls-3" d="M81.44,28.54c4.44-2.24,9-4.51,13.91-5.14A20.36,20.36,0,0,1,107,25.29c1.58.79,3,1.8,4.59,2.63a10.88,10.88,0,0,0,5,1.49"/><path class="cls-3" d="M91.45,28.87a15.09,15.09,0,0,1,5.17-2.74,7.67,7.67,0,0,1,7.5,2.61"/><path class="cls-3" d="M34.45,29.07a3.9,3.9,0,0,0-1.38.77,1.34,1.34,0,0,0-.36,1.46,1.86,1.86,0,0,0,1.39.81,15.75,15.75,0,0,0,13.26-3.37"/><path class="cls-3" d="M27.38,29.94a3,3,0,0,0,1.51,3.17,8.22,8.22,0,0,0,3.6,1A45.64,45.64,0,0,0,45.17,34a22.13,22.13,0,0,0,11.38-5.3"/><path class="cls-3" d="M25.22,35.31A50.26,50.26,0,0,0,43.78,37a150.57,150.57,0,0,0,18.5-2.95L84.6,29.55"/><path class="cls-3" d="M40.55,41.34c15.66-4,31.83-8,47.79-5.53,4.62.71,9.15,1.95,13.8,2.38s9.57,0,13.53-2.52"/><path class="cls-3" d="M60.18,41.64c5.28-3,11.6-3.93,17.67-3.41s11.94,2.37,17.65,4.5"/><path class="cls-3" d="M103.23,29.27a7.46,7.46,0,0,0-4.9,2.42,2.82,2.82,0,0,0-.64,1,1.23,1.23,0,0,0,.22,1.16,1.89,1.89,0,0,0,1.16.44,47.52,47.52,0,0,0,11,.1,11.68,11.68,0,0,0,3.78-.9,4.79,4.79,0,0,0,2.61-2.73"/><path class="cls-3" d="M107.42,29.74a7,7,0,0,0-2.71,1.16.84.84,0,0,0-.44.67c0,.37.49.53.86.58a14.85,14.85,0,0,0,4.05,0,5,5,0,0,0,2.41-.81,2.24,2.24,0,0,0,1-2.23"/></g><path class="cls-5" d="M120,.75c-.16,9.76-.76,19.64-1.77,28.35-.54,4.66-1.2,9-2,12.9,0,.09,0,.17,0,.25L115,42l-1.67-.33c.32-1.65.63-3.39.91-5.2.18-1.12.35-2.26.51-3.44h0l.18-1.33c0-.42.11-.84.16-1.27H25.4l.15,1.27q.25,2,.54,3.87Q26.59,39,27.17,42l.12.59-2.94.59c-.08-.39-.15-.78-.23-1.18-.73-3.83-1.36-8.17-1.89-12.91-1-8.77-1.54-18.64-1.67-28.34h3c.09,6.35.37,12.77.82,18.9.11,1.47.23,2.91.37,4.34.1,1.16.21,2.3.33,3.43H115.4c.21-1.87.39-3.8.56-5.76.58-6.7.93-13.84,1.05-20.91Z"/><line class="cls-6" x1="115.25" y1="31.69" x2="114.89" y2="31.69"/><line class="cls-6" x1="25.55" y1="31.69" x2="25.18" y2="31.69"/></g><g id="gold"><path class="cls-7" d="M25.39,41.3A376.21,376.21,0,0,1,21.8,1.5H6.54c.15,3.18.35,6.39.6,9.59A297.57,297.57,0,0,0,11,41.42c0,.19.07.39.11.58H25.49C25.46,41.77,25.42,41.53,25.39,41.3Zm-1.64-.8H12.34A293.51,293.51,0,0,1,8.65,11.09Q8.32,7,8.11,3H20.35c.18,4.6.46,9.32.84,14.06a.41.41,0,0,0,0,.12c.52,6.7,1.22,13.43,2.08,19.89C23.43,38.22,23.59,39.37,23.75,40.5Z"/><path class="cls-5" d="M26.9,41.3c-.2-1.33-.38-2.69-.56-4,0-.26-.08-.52-.11-.78l-.12-.91c-.22-1.69-.43-3.41-.63-5.14l-.33-3c-.12-1.14-.23-2.28-.34-3.42,0,0,0,0,0,0-.15-1.44-.28-2.89-.4-4.33-.09-1-.17-2.08-.25-3.12a.45.45,0,0,1,0-.11c-.39-5.07-.68-10.1-.85-15a1.4,1.4,0,0,0-.21-.7A1.48,1.48,0,0,0,21.8,0H6.54A1.5,1.5,0,0,0,5.45.47,1.48,1.48,0,0,0,5,1.57c.15,3.16.34,6.34.59,9.52A296.2,296.2,0,0,0,9.56,41.92l.06.36a1.42,1.42,0,0,0,.66,1,1.47,1.47,0,0,0,.82.25H25.49A1.49,1.49,0,0,0,26.62,43a1.18,1.18,0,0,0,.13-.18l.06-.11a1.49,1.49,0,0,0,.16-.91C27,41.62,26.92,41.46,26.9,41.3Zm-3.15-.8H12.34A293.51,293.51,0,0,1,8.65,11.09Q8.32,7,8.11,3H20.35c.18,4.6.46,9.32.84,14.06a.41.41,0,0,0,0,.12c.52,6.7,1.22,13.43,2.08,19.89C23.43,38.22,23.59,39.37,23.75,40.5Z"/><path class="cls-8" d="M16.43,40.5H12.34A293.51,293.51,0,0,1,8.65,11.09Q8.32,7,8.11,3h4.5Z"/><path class="cls-7" d="M23.75,40.5H16.43Q13.61,21,12.61,3h7.74c.18,4.6.46,9.32.84,14.06a.41.41,0,0,0,0,.12c.52,6.7,1.22,13.43,2.08,19.89C23.43,38.22,23.59,39.37,23.75,40.5Z"/><path class="cls-7" d="M118.44,1.88a378.41,378.41,0,0,1-3.57,39.74c0,.25-.07.51-.11.76h14.39c0-.24.09-.47.13-.71a307.8,307.8,0,0,0,4.43-39.79Zm1.44,1.5h5.9c0,11.49-2.82,24.18-7.15,37.5h-2.14A376.33,376.33,0,0,0,119.88,3.38Z"/><path class="cls-5" d="M134.79.84a1.51,1.51,0,0,0-1.08-.46H118.44a1.5,1.5,0,0,0-1.5,1.44,378.22,378.22,0,0,1-3.59,39.79c0,.18,0,.37-.08.55a1.5,1.5,0,0,0,.18,1,1.38,1.38,0,0,0,.17.25,1.51,1.51,0,0,0,1.14.52h14.39a1.51,1.51,0,0,0,1.47-1.23c.06-.29.11-.59.16-.88A304.86,304.86,0,0,0,135.21,2,1.49,1.49,0,0,0,134.79.84Zm-6.89,40H116.49a376.33,376.33,0,0,0,3.39-37.5h12.25A302.65,302.65,0,0,1,127.9,40.88Z"/><path class="cls-8" d="M125.78,3.38c0,11.49-2.82,24.18-7.15,37.5h-2.14a376.33,376.33,0,0,0,3.39-37.5Z"/><path class="cls-7" d="M136.85,1.5H4.18C2.65,1.5.84,7.29,1.76,11.59A4.93,4.93,0,0,0,6.6,15.45H135.49a4.22,4.22,0,0,0,3.93-2.63C141.05,8.71,139.39,1.5,136.85,1.5ZM3.66,4.78A2.51,2.51,0,0,1,6.05,3H136.81c.09,0,.44.3.83,1.14a10.22,10.22,0,0,1,.75,2.61A3.93,3.93,0,0,0,135,5.18L6.54,5.65A5.26,5.26,0,0,0,3,8.38,14.5,14.5,0,0,1,3.66,4.78Z"/><path class="cls-5" d="M139.76,1.8A3.49,3.49,0,0,0,136.85,0H4.19a2.58,2.58,0,0,0-2,1.11C.6,3-.56,8,.29,11.9A6.45,6.45,0,0,0,6.6,17H135.49a5.68,5.68,0,0,0,5.32-3.58C142.29,9.65,141.44,4.28,139.76,1.8ZM135.49,14H6.6a3.45,3.45,0,0,1-3.38-2.68A10.72,10.72,0,0,1,3,9c0-.2,0-.41,0-.61H3a14.5,14.5,0,0,1,.64-3.6A2.51,2.51,0,0,1,6.05,3H136.81c.09,0,.44.3.83,1.14a10.22,10.22,0,0,1,.75,2.61c0,.27.08.54.11.82a10.24,10.24,0,0,1-.48,4.69A2.73,2.73,0,0,1,135.49,14Z"/><path class="cls-8" d="M138.39,6.75A3.93,3.93,0,0,0,135,5.18L6.54,5.65A5.26,5.26,0,0,0,3,8.38a14.5,14.5,0,0,1,.64-3.6A2.51,2.51,0,0,1,6.05,3H136.81c.09,0,.44.3.83,1.14A10.22,10.22,0,0,1,138.39,6.75Z"/><path class="cls-7" d="M133,45.85a3.24,3.24,0,0,0-3.18-2.68L26.25,42.8h-2l-11.7,0a5.36,5.36,0,0,0-5.41,5.59A12.18,12.18,0,0,0,9,54.58,3.24,3.24,0,0,0,11.7,56H129.31a3.23,3.23,0,0,0,2.9-1.78A13.48,13.48,0,0,0,133,45.85ZM9.69,45.48a4,4,0,0,1,2.86-1.23h0l117.29.42a1.74,1.74,0,0,1,1.71,1.43,15.49,15.49,0,0,1,.21,1.72,2.7,2.7,0,0,0-2.69-1.69H12.71a4.54,4.54,0,0,0-4.06,2.12A3.74,3.74,0,0,1,9.69,45.48Z"/><path class="cls-5" d="M134.52,45.6a4.73,4.73,0,0,0-4.65-3.93h-.45l-13.07-.05h-3l-21.15-.08-31.58-.11L27,41.3H24l-11.42,0a7.5,7.5,0,0,0-1.58.17,7,7,0,0,0-3.47,2,6.7,6.7,0,0,0-1.86,5,13.75,13.75,0,0,0,2.1,7,4.73,4.73,0,0,0,3.94,2.09H129.31a4.78,4.78,0,0,0,4.25-2.62A14.85,14.85,0,0,0,134.52,45.6Zm-5.21,8.91H11.7a1.71,1.71,0,0,1-1.45-.77,10.73,10.73,0,0,1-1.6-5.49,3.74,3.74,0,0,1,1-2.77,4,4,0,0,1,2.86-1.23h0l117.29.42a1.74,1.74,0,0,1,1.71,1.43,15.49,15.49,0,0,1,.21,1.72h0a10.81,10.81,0,0,1-.92,5.74A1.73,1.73,0,0,1,129.31,54.51Z"/><path class="cls-8" d="M131.77,47.82a2.7,2.7,0,0,0-2.69-1.69H12.71a4.54,4.54,0,0,0-4.06,2.12,3.74,3.74,0,0,1,1-2.77,4,4,0,0,1,2.86-1.23h0l117.29.42a1.74,1.74,0,0,1,1.71,1.43A15.49,15.49,0,0,1,131.77,47.82Z"/><line class="cls-6" x1="16.52" y1="41.34" x2="16.43" y2="40.5"/><line class="cls-6" x1="12.61" y1="3" x2="12.5" y2="1.88"/><polygon class="cls-9" points="9.29 19.02 131 19.02 134.15 16.95 6.13 16.95 9.29 19.02"/></g><g id="fg"><path class="cls-10" d="M14.69,42a52,52,0,0,1-1.27-7.51"/><path class="cls-10" d="M17.58,35.53a37.75,37.75,0,0,0,.79,5.81"/><path class="cls-10" d="M17.53,34.49c0,.34,0,.69,0,1"/><line class="cls-10" x1="86.31" y1="51.08" x2="94.55" y2="51.08"/><line class="cls-10" x1="44.02" y1="47.27" x2="53.52" y2="47.27"/><line class="cls-10" x1="123.38" y1="49.37" x2="133.32" y2="49.37"/><line class="cls-10" x1="2.64" y1="11.09" x2="10.75" y2="11.09"/><line class="cls-10" x1="139.06" y1="5.64" x2="130.11" y2="5.64"/><line class="cls-10" x1="139.8" y1="9.56" x2="134.59" y2="9.56"/></g></g></g></g></svg>