<svg xmlns="http://www.w3.org/2000/svg" viewBox="0 0 2031 2031"><defs><style>.cls-1{fill:#372a1b;}.cls-2{fill:#5a432b;}.cls-2,.cls-3,.cls-6,.cls-9{stroke:#372a1b;}.cls-2,.cls-3{stroke-linejoin:bevel;}.cls-2,.cls-6,.cls-9{stroke-width:6px;}.cls-3{fill:none;}.cls-4,.cls-6{fill:#928b7e;}.cls-5,.cls-8{fill:#aaa192;}.cls-6{stroke-linecap:round;}.cls-10,.cls-6,.cls-8{stroke-miterlimit:10;}.cls-7,.cls-9{fill:#5f452e;}.cls-8{stroke:#aaa192;}.cls-9{stroke-linejoin:round;}.cls-10{fill:#fdbd3b;stroke:#fdbd3b;}</style></defs><g id="Layer_2" data-name="Layer 2"><g id="Layer_2-2" data-name="Layer 2"><rect class="cls-1" width="2031" height="2031"/><path class="cls-2" d="M1006.66,760.84a244.94,244.94,0,0,1-40,11.4c-.54-1.72.92-3.93,3.75-6.17a47.44,47.44,0,0,1,14.06-7A49.31,49.31,0,0,1,999,756.32c4.19,0,7.11.9,7.74,2.79A2.64,2.64,0,0,1,1006.66,760.84Z"/><ellipse class="cls-2" cx="982.71" cy="756.7" rx="21.05" ry="7.02" transform="translate(-187.44 345.52) rotate(-18.24)"/><ellipse class="cls-2" cx="979.71" cy="746.7" rx="21.05" ry="7.02" transform="matrix(0.95, -0.31, 0.31, 0.95, -184.46, 344.08)"/><ellipse class="cls-2" cx="976.11" cy="736.9" rx="20.42" ry="7.02" transform="translate(-181.57 342.46) rotate(-18.24)"/><ellipse class="cls-2" cx="971.71" cy="726.7" rx="21.05" ry="7.02" transform="matrix(0.95, -0.31, 0.31, 0.95, -178.6, 340.58)"/><ellipse class="cls-2" cx="967.19" cy="716.54" rx="20.56" ry="7.02" transform="translate(-175.65 338.65) rotate(-18.24)"/><ellipse class="cls-2" cx="964.79" cy="706.35" rx="19.93" ry="7.02" transform="translate(-172.58 337.39) rotate(-18.24)"/><ellipse class="cls-2" cx="960.79" cy="697.35" rx="19.93" ry="7.02" transform="translate(-169.97 335.68) rotate(-18.24)"/><ellipse class="cls-2" cx="956.79" cy="688.35" rx="19.93" ry="7.02" transform="translate(-167.35 333.98) rotate(-18.24)"/><ellipse class="cls-2" cx="953.09" cy="679.25" rx="19.61" ry="7.02" transform="translate(-164.69 332.36) rotate(-18.24)"/><ellipse class="cls-2" cx="950.09" cy="669.25" rx="19.61" ry="7.02" transform="translate(-161.71 330.92) rotate(-18.24)"/><ellipse class="cls-2" cx="946.63" cy="659.4" rx="19.13" ry="7.02" transform="translate(-158.8 329.35) rotate(-18.24)"/><ellipse class="cls-2" cx="942.58" cy="650.74" rx="18.02" ry="7.02" transform="translate(-156.3 327.65) rotate(-18.24)"/><ellipse class="cls-2" cx="938.58" cy="641.74" rx="18.02" ry="7.02" transform="translate(-153.68 325.94) rotate(-18.24)"/><ellipse class="cls-2" cx="935.58" cy="632.74" rx="18.02" ry="7.02" transform="translate(-151.02 324.55) rotate(-18.24)"/><path class="cls-2" d="M945.75,624a35.14,35.14,0,0,1-12,6.38,37.09,37.09,0,0,1-12.37,2.06c-3.7-.13-6.32-1.17-6.95-3.08-.57-1.72.59-3.84,2.95-5.92a37.09,37.09,0,0,0,12.37-2.06,35.14,35.14,0,0,0,12-6.38c3.7.13,6.32,1.17,7,3.08C949.27,619.82,948.11,621.94,945.75,624Z"/><path class="cls-2" d="M941.75,615a35.14,35.14,0,0,1-12,6.38,37.09,37.09,0,0,1-12.37,2.06l15.34-8.86,11.34-6.54a3,3,0,0,1,.61,1C945.27,610.82,944.11,612.94,941.75,615Z"/><path class="cls-3" d="M944.7,609.1l-12,5.5,11.34-6.54A3,3,0,0,1,944.7,609.1Z"/><path class="cls-4" d="M1098.36,795.15a3.72,3.72,0,0,1-3.08-1.64c-12.37-18.16-35.21-29.89-58.21-29.89a67.17,67.17,0,0,0-18.14,2.47l-48.12,15.63a70.34,70.34,0,0,1-19.49,3.81c-1.45.07-2.92.1-4.36.1a80.67,80.67,0,0,1-53.74-19.82c-13.49-11.73-23.57-28.32-28.36-46.69-4.88-18.67-4.11-38.44,2.14-55.66,6.94-19.09,20.28-34.6,38.58-44.85l.24-.12,9.44-4.34-1-2.9a7.38,7.38,0,0,1,1-6.94c2.77-4.09,9.36-7.3,15-7.3,3.87,0,6.77,1.62,8,4.46l1.25,2.19a58.65,58.65,0,0,0,9-8.37,4.53,4.53,0,0,1,3.44-1.6,4.64,4.64,0,0,1,3.91,2.16,4.45,4.45,0,0,1,.21,4.33,31.89,31.89,0,0,1-7.9,9.92,16,16,0,0,1-3.79,2.45l-30.17,13.9c-36.36,18.6-45.33,57.31-38.08,87.42,3.84,16,12.32,30.3,23.87,40.35,12.79,11.13,29.15,17,47.31,17,1.4,0,2.84,0,4.26-.11a62.53,62.53,0,0,0,14.52-2.49l49.14-14.3a82.81,82.81,0,0,1,24.41-3.7c30.09,0,56.91,17.15,62.38,39.89a3.73,3.73,0,0,1-.69,3.19A3.85,3.85,0,0,1,1098.36,795.15Z"/><path class="cls-1" d="M966.09,768.63a63.52,63.52,0,0,1-14.51,2.49c-1.43.07-2.86.1-4.27.1-18.16,0-34.51-5.88-47.3-17-11.56-10.05-20-24.38-23.88-40.35-7.24-30.12,1.72-68.82,38.08-87.42l.93-.43c.13-.21.28-.42.44-.63s.33-.42.52-.63h0l.6-.64c.22-.22.46-.43.7-.65l15.28-8.83-19.79,9.12c-70.55,36-48,150.47,34.41,150.47,1.46,0,2.92,0,4.41-.1a65.26,65.26,0,0,0,14.88-2.52,1,1,0,0,1,0-.17.93.93,0,0,1,0-.23.5.5,0,0,1,0-.12,0,0,0,0,1,0,0V771a1.22,1.22,0,0,1,.06-.26s0-.05,0-.07a.76.76,0,0,1,.06-.2c0-.07.05-.14.07-.21v0L967,770c0-.07.07-.15.11-.22a6.83,6.83,0,0,1,.81-1.23,3,3,0,0,1,.29-.35,2.53,2.53,0,0,1,.22-.26Zm0,0a63.52,63.52,0,0,1-14.51,2.49c-1.43.07-2.86.1-4.27.1-18.16,0-34.51-5.88-47.3-17-11.56-10.05-20-24.38-23.88-40.35-7.24-30.12,1.72-68.82,38.08-87.42l.93-.43c.13-.21.28-.42.44-.63s.33-.42.52-.63h0l.6-.64c.22-.22.46-.43.7-.65l15.28-8.83-19.79,9.12c-70.55,36-48,150.47,34.41,150.47,1.46,0,2.92,0,4.41-.1a65.26,65.26,0,0,0,14.88-2.52,1,1,0,0,1,0-.17.93.93,0,0,1,0-.23.5.5,0,0,1,0-.12,0,0,0,0,1,0,0V771a1.22,1.22,0,0,1,.06-.26s0-.05,0-.07a.76.76,0,0,1,.06-.2c0-.07.05-.14.07-.21v0L967,770c0-.07.07-.15.11-.22a6.83,6.83,0,0,1,.81-1.23,3,3,0,0,1,.29-.35,2.53,2.53,0,0,1,.22-.26Zm0,0a63.52,63.52,0,0,1-14.51,2.49c-1.43.07-2.86.1-4.27.1-18.16,0-34.51-5.88-47.3-17-11.56-10.05-20-24.38-23.88-40.35-7.24-30.12,1.72-68.82,38.08-87.42l.93-.43c.13-.21.28-.42.44-.63s.33-.42.52-.63h0c.19-.21.39-.43.6-.64s.46-.43.7-.65l15.28-8.83-19.79,9.12c-70.55,36-48,150.47,34.41,150.47,1.46,0,2.92,0,4.41-.1a65.26,65.26,0,0,0,14.88-2.52,1,1,0,0,1,0-.17.93.93,0,0,1,0-.23.5.5,0,0,1,0-.12,0,0,0,0,1,0,0V771a1.22,1.22,0,0,1,.06-.26s0-.05,0-.07a.89.89,0,0,1,.06-.2c0-.07.05-.14.07-.21v0L967,770l.11-.22a6.83,6.83,0,0,1,.81-1.23,3,3,0,0,1,.29-.35,2.53,2.53,0,0,1,.22-.26Zm138.85,21.18c-2.83-11.76-11.06-22.53-23.18-30.31-11.93-7.65-26.89-11.87-42.11-11.87a86,86,0,0,0-25.3,3.83l-14.65,4.26h0l-2.14.64h-.07l-21.67,6.3h0l-10,2.91h0l-.56.16a59.19,59.19,0,0,1-13.82,2.38c-1.37.07-2.76.1-4.12.1-17.42,0-33.1-5.62-45.33-16.26-11.09-9.65-19.23-23.43-22.93-38.79-6.91-28.69,1.46-65.47,35.52-83.52l.95-.5,29.65-13.66.47-.22a18.66,18.66,0,0,0,4.52-2.93,34.78,34.78,0,0,0,8.62-10.86,7.42,7.42,0,0,0-.37-7.22,7.66,7.66,0,0,0-6.45-3.58,7.56,7.56,0,0,0-5.72,2.65,52.13,52.13,0,0,1-5.83,5.76c-1.95-3.21-5.63-5.08-10.15-5.08-6.65,0-14.18,3.7-17.5,8.61a10.3,10.3,0,0,0-1.34,9.61l.11.33-6.93,3.18-.5.26c-18.93,10.6-32.74,26.66-39.92,46.43-6.46,17.79-7.26,38.19-2.23,57.44,4.95,19,15.35,36.07,29.3,48.2A83.62,83.62,0,0,0,947,788.63c1.48,0,3,0,4.5-.11a70.13,70.13,0,0,0,14-2.09l.43-.11c1.64-.41,3.29-.9,4.92-1.44h0l.39-.13.61-.2,4.33-1.41,18.71-6.08h0l12.81-4.16.43-.14,4.92-1.6.37-.12,6.46-2.09a64,64,0,0,1,17.24-2.34c22,0,43.9,11.22,55.73,28.59a6.72,6.72,0,0,0,5.55,2.95,6.85,6.85,0,0,0,5.34-2.59A6.7,6.7,0,0,0,1104.94,789.81Zm-6.59,2.34a.72.72,0,0,1-.6-.33c-13-19-36.45-31.21-60.68-31.21a69.82,69.82,0,0,0-18.95,2.59l-.1,0-12,3.91-36.05,11.7-.13,0-.12,0-.62.2-.19.07a66.73,66.73,0,0,1-17.69,3.33c-1.42.07-2.83.1-4.22.1-83.64,0-114.75-119.48-39.92-161.4l.06,0,9.4-4.32a3,3,0,0,0,1.58-3.63l-1-3c-2-5,6.93-10.2,13.19-10.2,2.47,0,4.53.82,5.32,2.79l1.77,3.11a2.24,2.24,0,0,0,1.94,1.12,2.27,2.27,0,0,0,1.34-.45,63,63,0,0,0,10.16-9.34,1.54,1.54,0,0,1,2.59,1.62,28.77,28.77,0,0,1-7.19,9,11.33,11.33,0,0,1-1.53,1.15h0a13.2,13.2,0,0,1-1.52.83l-10.38,4.78,0,0h0l-19.79,9.12c-70.55,36-48,150.47,34.41,150.47,1.46,0,2.92,0,4.41-.1a65.26,65.26,0,0,0,14.88-2.52l.33-.09,39.9-11.61,9.24-2.69a79.93,79.93,0,0,1,23.57-3.58c29.43,0,54.42,16.61,59.47,37.58A.76.76,0,0,1,1098.35,792.15ZM966.09,768.63a63.52,63.52,0,0,1-14.51,2.49c-1.43.07-2.86.1-4.27.1-18.16,0-34.51-5.88-47.3-17-11.56-10.05-20-24.38-23.88-40.35-7.24-30.12,1.72-68.82,38.08-87.42l.93-.43c.13-.21.28-.42.44-.63s.33-.42.52-.63h0l.6-.64c.22-.22.46-.43.7-.65l15.28-8.83-19.79,9.12c-70.55,36-48,150.47,34.41,150.47,1.46,0,2.92,0,4.41-.1a65.26,65.26,0,0,0,14.88-2.52,1,1,0,0,1,0-.17.93.93,0,0,1,0-.23.5.5,0,0,1,0-.12,0,0,0,0,1,0,0V771a1.22,1.22,0,0,1,.06-.26s0-.05,0-.07a.76.76,0,0,1,.06-.2c0-.07.05-.14.07-.21v0L967,770c0-.07.07-.15.11-.22a6.83,6.83,0,0,1,.81-1.23,3,3,0,0,1,.29-.35,2.53,2.53,0,0,1,.22-.26Zm0,0a63.52,63.52,0,0,1-14.51,2.49c-1.43.07-2.86.1-4.27.1-18.16,0-34.51-5.88-47.3-17-11.56-10.05-20-24.38-23.88-40.35-7.24-30.12,1.72-68.82,38.08-87.42l.93-.43c.13-.21.28-.42.44-.63s.33-.42.52-.63h0l.6-.64c.22-.22.46-.43.7-.65l15.28-8.83-19.79,9.12c-70.55,36-48,150.47,34.41,150.47,1.46,0,2.92,0,4.41-.1a65.26,65.26,0,0,0,14.88-2.52,1,1,0,0,1,0-.17.93.93,0,0,1,0-.23.5.5,0,0,1,0-.12,0,0,0,0,1,0,0V771a1.22,1.22,0,0,1,.06-.26s0-.05,0-.07a.76.76,0,0,1,.06-.2c0-.07.05-.14.07-.21v0L967,770c0-.07.07-.15.11-.22a6.83,6.83,0,0,1,.81-1.23,3,3,0,0,1,.29-.35,2.53,2.53,0,0,1,.22-.26Zm0,0a63.52,63.52,0,0,1-14.51,2.49c-1.43.07-2.86.1-4.27.1-18.16,0-34.51-5.88-47.3-17-11.56-10.05-20-24.38-23.88-40.35-7.24-30.12,1.72-68.82,38.08-87.42l.93-.43c.13-.21.28-.42.44-.63s.33-.42.52-.63h0l.6-.64c.22-.22.46-.43.7-.65l15.28-8.83-19.79,9.12c-70.55,36-48,150.47,34.41,150.47,1.46,0,2.92,0,4.41-.1a65.26,65.26,0,0,0,14.88-2.52,2.27,2.27,0,0,1,0-.52,0,0,0,0,1,0,0,1.8,1.8,0,0,1,.06-.32s0-.05,0-.07a.76.76,0,0,1,.06-.2c0-.07.05-.14.07-.21v0L967,770c0-.07.07-.15.11-.22a6.83,6.83,0,0,1,.81-1.23,3,3,0,0,1,.29-.35,2.53,2.53,0,0,1,.22-.26Z"/><path class="cls-1" d="M1013.21,770.64a6.07,6.07,0,0,0-1.54-2.19,6,6,0,0,0-4-1.55,5.67,5.67,0,0,0-1.67.24l-.18.05-35.87,11.65-.13,0-.12,0-.24.07-.38.13-.19.07a6,6,0,0,0-3.54,4.16h0a6,6,0,0,0,.09,3.06l.43-.11c1.64-.41,3.29-.9,4.92-1.44h0l.39-.13.61-.2,4.33-1.41,18.71-6.08h0l12.81-4.16.43-.14,4.92-1.6.37-.12Z"/><path class="cls-5" d="M1238.47,1353.08a2.2,2.2,0,0,1-2,1.23,2.46,2.46,0,0,1-.53-.06c-28.26-6.33-50.82-18.72-68.3-43.15a85.84,85.84,0,0,1-9.18-16.6c-15.42-36.45-31.65-77.08-48.54-121.13a.43.43,0,0,1,0-.12.45.45,0,0,1,0-.12.28.28,0,0,0,0-.06l1.83-4.77,2-5.2a.43.43,0,0,0-.24-.55l-5.21-2-3.86-1.49q-1.89-5-3.79-10a.39.39,0,0,1,0-.3l2.09-5.45,2-5.2a.43.43,0,0,0-.24-.55l-5.21-2-4.2-1.61a.44.44,0,0,1-.25-.25q-9.65-25.7-19.54-52.68-1.06-2.93-2.14-5.86c-21.35-58.37-43.51-120.9-66.21-186.25q-.84-2.39-1.66-4.78-16.85-48.54-34.05-99a.43.43,0,0,0-.53-.27l.39-.13.61-.2,4.33-1.41,123.64,345.28a6.08,6.08,0,0,0,3,3.38l6.18,3.09a2.08,2.08,0,0,1,1,2.55l-3.19,8.86a5.17,5.17,0,0,0,.11,3.77l1.33,3.1a5.87,5.87,0,0,0,2.86,3c2.1,1,5.34,2.57,7,3.45a1.49,1.49,0,0,1,.74,1.69c-.57,2.26-1.91,7.41-2.72,9.9a4.36,4.36,0,0,0,.12,3l48.38,118.49c15.47,28.85,41.69,47.47,73.89,60.37Z"/><path class="cls-4" d="M1238.47,1353.08h0c-32.2-12.9-58.42-31.52-73.89-60.37l-48.38-118.49a4.36,4.36,0,0,1-.12-3c.81-2.49,2.15-7.64,2.72-9.9a1.49,1.49,0,0,0-.74-1.69c-1.65-.88-4.89-2.44-7-3.45a5.87,5.87,0,0,1-2.86-3l-1.33-3.1a5.17,5.17,0,0,1-.11-3.77l3.19-8.86a2.08,2.08,0,0,0-1-2.55l-6.18-3.09a6.08,6.08,0,0,1-3-3.38L976.11,783.14l18.71-6.08h0l12.81-4.16.43-.14a.43.43,0,0,0-.26.56l5.19,12.74a.44.44,0,0,1,0,.3l-.9,2.71a.45.45,0,0,0,0,.28q2.45,7.08,4.9,14.15,1.72,5,3.46,10l1.44,4.14c.19.53.37,1.07.56,1.6l-2.91,9.49,8.38,6.22,6.84,19.6q3.42,9.78,6.86,19.57.84,2.39,1.67,4.77,10,28.54,20.15,57l.51,1.44a2.34,2.34,0,0,1,0,1.63l-.75,1.94-.87,2.27-1.36,3.51a2.23,2.23,0,0,0,1.29,2.89l3.51,1.36,2.34.91.14.05a2.43,2.43,0,0,1,1.43,1.46l.33.91c.29.84.59,1.68.89,2.52l2.28,6.38a4.16,4.16,0,0,1,0,2.89l-.82,2.12-1.4,3.63a2.11,2.11,0,0,0,1.21,2.73l3.63,1.4,1,.4a2.9,2.9,0,0,1,1.7,1.74l7.11,19.78c.3.84.6,1.68.91,2.52s.59,1.65.89,2.47q10.68,29.65,21.44,59.18l1.35,3.72,4.83,13.22c.6,1.63,1.2,3.27,1.79,4.9q28.7,78.38,57.93,155.78a4.58,4.58,0,0,1,0,3.28l-2.22,5.77-1.39,3.62a2.14,2.14,0,0,0,1.22,2.75l3.62,1.39,4.88,1.88a2.73,2.73,0,0,1,1.57,1.59q4.17,11,8.37,22c1,2.57,2,5.1,3.21,7.59,12,25.67,26.35,43.74,44,61A2.19,2.19,0,0,1,1238.47,1353.08Z"/><path class="cls-1" d="M1047.87,873.65c-2.08.09-4.16.24-6.22.45q-6.68-19-13.31-38.06a3.05,3.05,0,0,0-1.41-1.67l-7.7-4.18a2.38,2.38,0,0,1-1-3.23l3.4-6.24a3.86,3.86,0,0,0,.26-3.1q-4.92-14.11-9.8-28.26v-.29l.9-2.71a.39.39,0,0,0,0-.3l-5.19-12.74a.43.43,0,0,1,.26-.56l4.92-1.6a.43.43,0,0,1,.52.24l5.11,12.55a6,6,0,0,1,.13,4.16l-.31.93v.25q3.93,11.4,7.9,22.78c.71,2.07,1.43,4.15,2.16,6.22a3.45,3.45,0,0,1-.23,2.79l-2,3.76a2.05,2.05,0,0,0,.82,2.78l4.79,2.6a3,3,0,0,1,1.39,1.65c.85,2.44,1.7,4.9,2.57,7.34Q1041.8,856.45,1047.87,873.65Z"/><path class="cls-1" d="M1244.22,1354.84c0,.11-.08.22-.12.33a8.16,8.16,0,0,1-7.58,5.14,8.64,8.64,0,0,1-1.84-.2c-31.93-7.16-54.77-21.62-71.87-45.52a92.5,92.5,0,0,1-9.83-17.75c-14.36-33.95-29.67-72-46.3-115.23q-1.58-4.08-3.15-8.22a.39.39,0,0,1,0-.3l2.25-5.85a1.18,1.18,0,0,0-.68-1.52s-4.45-1.38-5.28-2l-2.41-6.36s.43-.67.33-.88-.35-.21-.56-.26a.4.4,0,0,1-.3-.26q-1.31-3.42-2.6-6.88a.39.39,0,0,1,0-.3l2.32-6.06a1.66,1.66,0,0,0-.95-2.15l-5.17-2a.44.44,0,0,1-.25-.25q-1.37-3.65-2.76-7.33-8.51-22.74-17.49-47.22-.88-2.4-1.77-4.83-5.6-15.3-11.4-31.32l-3.93-10.89c-15.9-44.13-32.93-92.33-51.29-145.16l-1.65-4.76q-16.47-47.43-34.39-99.92a.43.43,0,0,1,.3-.55c1.64-.41,3.29-.9,4.92-1.44h0a.43.43,0,0,1,.53.27q17.19,50.34,34.05,99,.82,2.4,1.66,4.78c22.7,65.35,44.86,127.88,66.21,186.25q1.08,2.94,2.14,5.86,9.9,27,19.54,52.68a.44.44,0,0,0,.25.25l4.2,1.61,5.21,2a.43.43,0,0,1,.24.55l-2,5.2-2.09,5.45a.39.39,0,0,0,0,.3q1.9,5,3.79,10h0l3.86,1.48,5.21,2a.43.43,0,0,1,.24.55l-2,5.2-1.83,4.77a.28.28,0,0,1,0,.06.45.45,0,0,0,0,.12.43.43,0,0,0,0,.12c16.89,44.05,33.12,84.68,48.54,121.13a85.84,85.84,0,0,0,9.18,16.6c17.48,24.43,40,36.82,68.3,43.15a2.46,2.46,0,0,0,.53.06,2.21,2.21,0,0,0,1.5-3.81c-17.65-17.27-32-35.34-44-61-1.17-2.49-2.23-5-3.21-7.59q-4.18-11-8.37-22a2.73,2.73,0,0,0-1.57-1.59l-4.88-1.88-3.62-1.39a2.14,2.14,0,0,1-1.22-2.75l1.39-3.62,2.22-5.77a4.58,4.58,0,0,0,0-3.28q-29.24-77.41-57.93-155.78c-.59-1.63-1.19-3.27-1.79-4.9l-4.83-13.22-1.35-3.72q-10.77-29.52-21.44-59.18c-.3-.82-.6-1.64-.89-2.47s-.61-1.68-.91-2.52L1078.52,978a2.9,2.9,0,0,0-1.7-1.74l-1-.4-3.63-1.4a2.11,2.11,0,0,1-1.21-2.73l1.4-3.63.82-2.12a4.16,4.16,0,0,0,0-2.89l-2.28-6.38c-.3-.84-.6-1.68-.89-2.52l-.33-.91a2.43,2.43,0,0,0-1.43-1.46l-.14-.05-2.34-.91-3.51-1.36a2.23,2.23,0,0,1-1.29-2.89l1.36-3.51.87-2.27.75-1.94a2.34,2.34,0,0,0,0-1.63l-.51-1.44q-10.11-28.43-20.15-57-.83-2.39-1.67-4.77c2.06-.21,4.14-.36,6.22-.45.55,1.62,1.12,3.23,1.7,4.85q9,25.53,18,51c.73,2.08,1.47,4.15,2.21,6.23.15.44.31.89.47,1.33a3.23,3.23,0,0,1,0,2.25l-.53,1.39-1.07,2.77a2,2,0,0,0,1.12,2.53l3.18,1.23a2.58,2.58,0,0,1,1.5,1.53l1.26,3.53,1,2.8h0c.15.44.32.86.44,1.33s.39,1.06.57,1.59c.65,1.77,1.28,3.53,1.92,5.31a3.18,3.18,0,0,1,0,2.44l-1.16,3a1.6,1.6,0,0,0,.92,2.07l2.26.87a2.6,2.6,0,0,1,1.5,1.53l2.28,6.35,4.62,12.87,1.05,2.93c.34.93.67,1.86,1,2.79q5.6,15.49,11.19,30.94,3.3,9.15,6.62,18.26,5.19,14.28,10.4,28.52l2,5.5q28,76.39,56.26,151.41l2.7,7.14a3.59,3.59,0,0,1,0,2.56l-2.74,7.13-.44,1.14,1,.39,6.18,2.38a3.14,3.14,0,0,1,1.83,1.84c.79,2.07,1.57,4.13,2.35,6.2q3.45,9.09,6.9,18.15c1,2.56,2,4.91,3,7.19,10.5,22.49,23.29,40.21,42.74,59.24A8.16,8.16,0,0,1,1244.22,1354.84Z"/><path class="cls-6" d="M1178.88,1290.1c.21.51.45,1,.69,1.61"/><path class="cls-6" d="M1169.57,1267.71c1.54,3.86,2.65,6.62,3.51,8.76"/><path class="cls-6" d="M1146,1206.37q1.55,4.08,3.06,8.06"/><path class="cls-6" d="M1113.56,1119c6.08,16.7,12,32.76,17.67,48"/><path class="cls-6" d="M1090.33,1054.49q4.37,12.21,8.64,24.12"/><path class="cls-6" d="M1018.41,847.41q10.14,30,20.36,59.71"/><path class="cls-6" d="M1005.62,809.42l2.17,6.49"/><path class="cls-6" d="M993.88,774.22q4.33,13,8.71,26.14"/><path class="cls-7" d="M1153.43,973.79c0,11.24-5.54,21-13.7,26a23.21,23.21,0,0,1-5.19,2.38,22.76,22.76,0,0,1-7.11,1.13c-14.36,0-26-13.21-26-29.5s11.64-29.5,26-29.5a23.92,23.92,0,0,1,16.06,6.32h0a27.16,27.16,0,0,1,4.1,4.58A31.84,31.84,0,0,1,1153.43,973.79Z"/><path class="cls-8" d="M1146.26,950.29a14.87,14.87,0,0,0-2.76.32h0c-4.75.94-8.89,4.07-11.89,9-6.24,10.33-6.71,27.06-1.07,37.3a20,20,0,0,0,4,5.2,15.27,15.27,0,0,0,8.51,4c1.85,6.64-.18,10.61-6.43,12.77a2.49,2.49,0,0,0-1.69,2.36v48c0,4.27-2.78,6.18-5.54,6.18s-5.53-1.91-5.53-6.18a2.5,2.5,0,0,0-5,0c0,4.27-2.73,6.18-5.43,6.18s-5.44-1.91-5.44-6.18a2.5,2.5,0,0,0-5,0c0,4.27-2.91,6.18-5.79,6.18s-5.78-1.91-5.78-6.18v-8c0-4.71-4.2-8.13-10-8.13s-10,3.42-10,8.13v8c0,4.27-2.76,6.18-5.5,6.18s-5.5-1.91-5.5-6.18a2.57,2.57,0,0,0-.08-.62l-4-15.54a2.51,2.51,0,0,0-2.52-1.88c-15.73.61-32.88-2.36-51-8.83-28.39-11.93-47.61-39-50.17-70.65-2.64-32.57,12.75-62.68,41.17-80.64q4.6-2.64,9.22-4.85a119.37,119.37,0,0,1,20.34-7.63l5-1.24a100.43,100.43,0,0,1,16.4-2.27q4.28-.23,8.55-.09c1,0,2,.09,3,.15l.25,0c20.08,2,37.62,7.92,52.11,17.59a85.15,85.15,0,0,1,31.66,38c.4.93.78,1.87,1.15,2.82a2.51,2.51,0,0,0,1.84,1.54l.4.09h0c3.77.9,6.6,3.64,7.09,6.93C1151.41,945.33,1149.71,948.23,1146.26,950.29Z"/><path class="cls-1" d="M1023.4,878.69l5-1.24C1026.75,877.81,1025.08,878.23,1023.4,878.69Zm0,0,5-1.24C1026.75,877.81,1025.08,878.23,1023.4,878.69Zm29.09-8.56c1.6,0,3.2.09,4.81.18A14.27,14.27,0,0,0,1052.49,870.13Z"/><path class="cls-1" d="M1143.5,950.61h0c-4.75.94-8.89,4.07-11.89,9-6.24,10.33-6.71,27.06-1.07,37.3a20,20,0,0,0,4,5.2,23.21,23.21,0,0,0,5.19-2.38,4.67,4.67,0,0,1-.6-.38c-5.34-3.72-7.7-12.38-7.54-20.51.23-11.78,5.47-23.6,15.07-23.6h.22a2.2,2.2,0,0,0,.72-.1A27.16,27.16,0,0,0,1143.5,950.61Zm-.06-15.37.4.09h0l.44-.07a2.5,2.5,0,0,0-.72-4.94c-1.08.16-2.12.34-3.12.56.4.93.78,1.87,1.15,2.82A2.51,2.51,0,0,0,1143.44,935.24Z"/><path class="cls-1" d="M1144.29,935.26l-.44.07h0c-5.84.9-10.19,2.65-13.26,5.34a2.48,2.48,0,0,1-1.65.62,2.5,2.5,0,0,1-1.65-4.38c3.31-2.9,7.64-4.89,13.17-6,1-.22,2-.4,3.12-.56a2.5,2.5,0,0,1,.72,4.94Z"/><path class="cls-1" d="M1036.92,950.29a2.49,2.49,0,0,0,1.92-.89c10.29-12.19,24.8-15.21,44.35-9.22a2.5,2.5,0,1,0,1.47-4.78c-21.37-6.55-38.08-2.92-49.64,10.77a2.5,2.5,0,0,0,1.9,4.12Z"/><path class="cls-1" d="M971.92,942.29a2.51,2.51,0,0,0,2.3-1.51,79.56,79.56,0,0,1,24.25-31,2.5,2.5,0,1,0-3.09-3.93,84.64,84.64,0,0,0-25.75,33,2.51,2.51,0,0,0,2.29,3.5Z"/><path class="cls-1" d="M984.43,943.24a2.5,2.5,0,0,0,2.49-2.33c.46-6.74-1.62-12.15-6.19-16.08a2.5,2.5,0,1,0-3.26,3.79c3.35,2.89,4.81,6.8,4.46,12a2.5,2.5,0,0,0,2.33,2.66Z"/><path class="cls-1" d="M1053.92,1044.29a2.71,2.71,0,0,0,.74-.11,2.52,2.52,0,0,0,1.66-3.13c-1.85-6-6.07-9.4-12.2-9.76-6.44-.66-14.07-1-24-1a66.22,66.22,0,0,1-27.76-11.55,2.5,2.5,0,1,0-2.88,4.09,71.21,71.21,0,0,0,30,12.43,2.34,2.34,0,0,0,.38,0,236.87,236.87,0,0,1,23.75,1h.12c4,.22,6.51,2.2,7.75,6.24A2.5,2.5,0,0,0,1053.92,1044.29Z"/><path class="cls-1" d="M1066.77,1019.86a54.72,54.72,0,0,0,19-3.73,2.5,2.5,0,1,0-1.75-4.69c-10.08,3.76-19.3,4.42-27.4,1.95a2.5,2.5,0,0,0-1.45,4.79A39.53,39.53,0,0,0,1066.77,1019.86Z"/><circle class="cls-7" cx="1067.93" cy="976.79" r="26"/><path class="cls-1" d="M1039.43,976.79a28.5,28.5,0,1,1,28.5,28.5A28.53,28.53,0,0,1,1039.43,976.79Zm5,0a23.5,23.5,0,1,0,23.5-23.5A23.53,23.53,0,0,0,1044.43,976.79Z"/><path class="cls-1" d="M1121.63,1064.29a2.5,2.5,0,0,0,2.5-2.5v-1a2.5,2.5,0,0,0-5,0v1A2.49,2.49,0,0,0,1121.63,1064.29Z"/><path class="cls-1" d="M1105.63,1064.29a2.5,2.5,0,0,0,2.5-2.5v-1a2.5,2.5,0,0,0-5,0v1A2.49,2.49,0,0,0,1105.63,1064.29Z"/><path class="cls-9" d="M1117.29,1010.93c4.21,6.08,6.15,15.38,6.73,26.65a6.61,6.61,0,0,1-2.47,5.63,4.82,4.82,0,0,1-5.85.18,6.5,6.5,0,0,0-6.74,0,5,5,0,0,1-6.08-.27,6.75,6.75,0,0,1-2.7-5.66c.3-11.07,2-20,5.62-26.13A6.83,6.83,0,0,1,1117.29,1010.93Z"/><path class="cls-1" d="M1146.26,950.29a14.87,14.87,0,0,0-2.76.32,27.16,27.16,0,0,1,4.1,4.58,2.25,2.25,0,0,0,.53-.21c5.67-3.09,8.57-8.13,7.76-13.48-.77-5-4.76-9.26-10.11-10.83-13.81-34.1-46-56.07-88.48-60.36-1.61-.09-3.21-.15-4.81-.18-2.26,0-4.52,0-6.76.1-2.08.09-4.16.24-6.22.45a107.24,107.24,0,0,0-13.31,2.15.31.31,0,0,0-.13,0,112.72,112.72,0,0,0-22.85,7.83q-2.72,1.26-5.42,2.68c-1.78.94-3.55,1.92-5.32,3a2.56,2.56,0,0,0-.88.34c-30.3,18.94-46.72,50.92-43.91,85.54,2.71,33.55,23.13,62.24,53.27,74.89l.13,0c18,6.43,35.08,9.53,50.92,9.21l3.42,13.31c.16,7.12,5.36,10.85,10.5,10.85a10.66,10.66,0,0,0,7.3-2.93c.15-.15.3-.3.44-.46a9.7,9.7,0,0,0,15.55,0,11,11,0,0,0,16.23-.29,10.55,10.55,0,0,0,14.78,1.21,9.72,9.72,0,0,0,1.14-1.17,10.45,10.45,0,0,0,8,3.68c5.24,0,10.54-3.84,10.54-11.18V1023c8-3.49,10.63-10.53,7.36-20a2.48,2.48,0,0,0-2.31-1.69,10.27,10.27,0,0,1-5.25-1.51,23.21,23.21,0,0,1-5.19,2.38,15.27,15.27,0,0,0,8.51,4c1.85,6.64-.18,10.61-6.43,12.77a2.49,2.49,0,0,0-1.69,2.36v48c0,4.27-2.78,6.18-5.54,6.18s-5.53-1.91-5.53-6.18a2.5,2.5,0,0,0-5,0,7.45,7.45,0,0,1-.64,3.17,5.18,5.18,0,0,1-4.79,3l-.52,0c-2.53-.23-4.92-2.16-4.92-6.16a2.5,2.5,0,0,0-5,0c0,4.27-2.91,6.18-5.79,6.18s-5.78-1.91-5.78-6.18v-8a7.34,7.34,0,0,0-.26-1.95.06.06,0,0,0,0,0l-.36-1s0,0,0,0c-1.37-3.08-4.89-5.11-9.35-5.11-5.8,0-10,3.42-10,8.13v8a7.88,7.88,0,0,1-.34,2.39,5.24,5.24,0,0,1-5,3.78h-.14c-2.74,0-5.5-1.91-5.5-6.18a2.57,2.57,0,0,0-.08-.62l-4-15.54a2.51,2.51,0,0,0-2.52-1.88c-15.73.61-32.88-2.36-51-8.83-28.39-11.93-47.61-39-50.17-70.65-2.64-32.57,12.75-62.68,41.17-80.64,1.87-1.07,3.74-2.09,5.61-3,1.2-.64,2.41-1.23,3.61-1.81.61-.29,1.21-.58,1.82-.85a118.19,118.19,0,0,1,18.52-6.78c1.44-.39,2.87-.76,4.3-1.08l.11,0,.62-.14a100.46,100.46,0,0,1,12.75-2c1.22-.11,2.43-.2,3.65-.27.87,0,1.73-.08,2.6-.1,2-.06,4-.05,6,0a8.76,8.76,0,0,1,3,.15l.25,0c20.08,2,37.62,7.92,52.11,17.59a85.15,85.15,0,0,1,31.66,38c1-.22,2-.4,3.12-.56a2.5,2.5,0,0,1,.72,4.94l-.44.07c3.77.9,6.6,3.64,7.09,6.93C1151.41,945.33,1149.71,948.23,1146.26,950.29Zm-69.83,119v-8c0-2.48,3.27-3.13,5-3.13s5,.65,5,3.13v8c0,.16,0,.31,0,.46,0,4.29-2.51,6.21-5,6.21s-5-1.92-5-6.21h0C1076.43,1069.64,1076.43,1069.49,1076.43,1069.33Z"/><path class="cls-10" d="M1086.43,1069.79c0,4.29-2.51,6.21-5,6.21s-5-1.92-5-6.21h0c0-.15,0-.3,0-.46v-8c0-2.48,3.27-3.13,5-3.13s5,.65,5,3.13v8C1086.42,1069.49,1086.42,1069.64,1086.43,1069.79Z"/></g></g></svg>