<svg xmlns="http://www.w3.org/2000/svg" viewBox="0 0 142.83 72.14"><defs><style>.cls-1{fill:#ca9a7d;}.cls-2{fill:#b47249;}.cls-11,.cls-3,.cls-4,.cls-9{fill:none;}.cls-10,.cls-11,.cls-12,.cls-4,.cls-9{stroke:#2e2e38;}.cls-12,.cls-4,.cls-9{stroke-miterlimit:10;}.cls-12,.cls-5{fill:#2e2e38;}.cls-6{fill:#ffd62e;}.cls-7{fill:#ffe785;}.cls-8{fill:#fdbd3b;}.cls-9{stroke-width:2px;}.cls-10{fill:#f5f4f6;}.cls-10,.cls-11{stroke-linecap:round;stroke-linejoin:round;stroke-width:3px;}.cls-13{fill:#fff;}.cls-14{fill:#545464;}</style></defs><g id="Layer_2" data-name="Layer 2"><g id="chest"><g id="top"><g id="wood"><path class="cls-1" d="M115.5,15.09h-89c0-.14.05-.28.08-.42.07-.38.14-.74.22-1.1h88.43c.07.37.14.75.22,1.14Z"/><path class="cls-1" d="M113.77,8H28.39a17.26,17.26,0,0,1,.69-1.61h84.06c.21.46.41,1,.61,1.54A.19.19,0,0,1,113.77,8Z"/><g id="background"><path class="cls-2" d="M117.63,53H24.17c-.1-6.8,0-13.52.36-19.71,0-.77.08-1.53.13-2.28s.09-1.29.13-1.92h92.3c.07.88.12,1.77.17,2.67C117.64,38.37,117.76,45.63,117.63,53Z"/><path class="cls-2" d="M116.75,24.79H25.15c.05-.55.11-1.09.17-1.61s.11-1,.16-1.48c.12-.92.23-1.81.35-2.67q.09-.6.18-1.17c0-.23.07-.46.11-.69s0-.2.05-.3c.08-.5.16-1,.25-1.44a3.4,3.4,0,0,1,.07-.34h89l.12.64c.13.84.27,1.71.39,2.62l.18,1.31.12.9c.07.61.14,1.23.21,1.87,0,.31.07.63.1,1S116.71,24.32,116.75,24.79Z"/><path class="cls-2" d="M114.54,10.57h-87c.11-.4.23-.79.35-1.16s.33-1,.51-1.43h85.38l.18.54c.07.21.13.42.2.64s.13.45.19.69S114.47,10.32,114.54,10.57Z"/><path class="cls-1" d="M117.09,29.06H24.79c0-.43.07-.85.1-1.27H117Z"/><line class="cls-3" x1="118.05" y1="29.06" x2="117.09" y2="29.06"/><line class="cls-3" x1="24.79" y1="29.06" x2="24.13" y2="29.06"/><polyline class="cls-3" points="25.3 15.09 26.48 15.09 26.49 15.09"/><polyline class="cls-3" points="115.5 15.09 115.51 15.09 116.34 15.09"/><line class="cls-3" x1="114.91" y1="7.98" x2="113.77" y2="7.98"/><line class="cls-3" x1="28.39" y1="7.98" x2="27.53" y2="7.98"/></g><g id="stripes"><path class="cls-4" d="M27.33,9.43A46.83,46.83,0,0,0,36,8.28a82.07,82.07,0,0,0,10.29-2.5"/><path class="cls-4" d="M26.35,15.43a31.76,31.76,0,0,0,5.93-.34,10.8,10.8,0,0,0,5.35-2.43"/><path class="cls-4" d="M25.51,19c5.31.32,10.53-1.26,15.62-2.81l13-4"/><path class="cls-4" d="M51.68,11.69a13,13,0,0,1,9.21-3.82C64,7.88,67,9,69.88,10s6,1.83,9.09,1.32"/><path class="cls-4" d="M77,5.91a5.75,5.75,0,0,0,1.46.85,21.81,21.81,0,0,0,10.3,1.79,21.85,21.85,0,0,0,9.94-3.24"/><path class="cls-4" d="M90,11.69c3.94.1,7.62-1.79,11.4-2.89a29.6,29.6,0,0,1,13.49-.72"/><path class="cls-4" d="M37.83,11.23C42.16,9.68,46.57,8.4,51,7.12a32.79,32.79,0,0,1,6.9-1.48"/><path class="cls-4" d="M25,21.68c5.72.31,11.39-.89,17-2.09l36.25-7.72"/><path class="cls-4" d="M33.64,25.46l15.54-4.18c3.28-.88,6.55-1.77,9.88-2.41a48.08,48.08,0,0,1,5.07-.77,34.86,34.86,0,0,1,9,.33,28.13,28.13,0,0,1,8,3.12c3.31,1.74,6.6,3.68,10.28,4.32"/><path class="cls-4" d="M99,26.19c2.84-.16,5.23-2.1,7.88-3.12a12.73,12.73,0,0,1,10.52.71"/><path class="cls-4" d="M99.49,13.05a6.46,6.46,0,0,1,2.83,1,17.16,17.16,0,0,1,2.56,2.18,16.23,16.23,0,0,0,8.15,4,4.8,4.8,0,0,0,2.44-.08,2,2,0,0,0,1.38-1.84"/><path class="cls-4" d="M106.34,12.84l3.33,2.21a6.76,6.76,0,0,0,2.21,1.11A3.51,3.51,0,0,0,115.8,14"/><path class="cls-4" d="M51.13,25.27a50,50,0,0,1,9.66-3.67A17,17,0,0,1,71,22.09a24.89,24.89,0,0,1,5.54,3.5"/><path class="cls-4" d="M59.21,25.35A13.65,13.65,0,0,1,61.89,24a5.51,5.51,0,0,1,3.16-.58,8.83,8.83,0,0,1,3.45,1.2A6.09,6.09,0,0,0,72,25.78"/><ellipse class="cls-4" cx="90.53" cy="16.8" rx="1.71" ry="6.07" transform="translate(61.51 104.18) rotate(-82.14)"/><ellipse class="cls-4" cx="90.29" cy="16.89" rx="4.05" ry="12.98" transform="translate(61.21 104.02) rotate(-82.14)"/><path class="cls-4" d="M83.07,27.29a15.17,15.17,0,0,0,21.81-.35"/><path class="cls-4" d="M92.22,27.54a13.7,13.7,0,0,0,2.42,1.14,4.54,4.54,0,0,0,2.63.13,2.77,2.77,0,0,0,1.9-1.73"/><path class="cls-4" d="M64.82,27.23c2.22.66,4.42,1.37,6.64,2l7.6,2.18C84.47,33,90,34.52,95.61,34.3s11.47-2.55,14.53-7.28"/><path class="cls-4" d="M118.08,30.44a13,13,0,0,1-5,4.84,31.61,31.61,0,0,1-12.15,4.31"/><path class="cls-4" d="M34.32,39.09a50.91,50.91,0,0,1,39.35-5C80.37,36,87,39.4,93.92,38.53"/><path class="cls-4" d="M46.81,38.63a18.13,18.13,0,0,1,9.1-3.31c8.56-.66,16.7,4.76,25.26,4.21"/><path class="cls-4" d="M23.77,32.74C26.63,35,30.52,35.5,34.11,35a40.64,40.64,0,0,0,10.28-3.43l12.38-5.4"/><path class="cls-4" d="M23.74,29.34a3.89,3.89,0,0,0,2.34,2.6,7.53,7.53,0,0,0,3.59.41,14.15,14.15,0,0,0,9.47-5.05"/></g><path id="wood_casing" data-name="wood casing" class="cls-5" d="M120,27.79h0l-.14-1.62a111.1,111.1,0,0,0-2-14.42h0l-.26-1.17h0a26.88,26.88,0,0,0-2.25-6.43c-.1-.18-.2-.35-.31-.52V3.37H26.94v.71h0a25.16,25.16,0,0,0-2.51,6.5h0l-.27,1.15A106,106,0,0,0,22,26.16l-.14,1.63h0c-.6,7.61-.83,16.33-.7,25.18h3c-.1-6.8,0-13.52.36-19.71,0-.77.08-1.53.13-2.28s.09-1.29.13-1.92c0-.43.07-.85.1-1.27H117l.09,1.27c.07.88.12,1.77.17,2.67.38,6.64.5,13.9.37,21.24h3C120.78,44.16,120.57,35.45,120,27.79ZM27.88,9.41c.17-.51.33-1,.51-1.43a17.26,17.26,0,0,1,.69-1.61h84.06c.21.46.41,1,.61,1.54a.19.19,0,0,1,0,.07l.18.54c.07.21.13.42.2.64s.13.45.19.69.13.47.2.72h-87C27.64,10.17,27.76,9.78,27.88,9.41ZM25.15,24.79c.05-.55.11-1.08.17-1.61s.11-1,.16-1.48c.12-.92.23-1.81.35-2.67q.09-.6.18-1.17c0-.23.07-.46.11-.69s0-.2.05-.3c.07-.49.16-1,.25-1.44l.06-.34h0c0-.14.05-.28.08-.42.06-.38.14-.74.22-1.1h88.43c.07.37.14.75.22,1.14l.06.38h0c0,.21.07.42.11.64.13.84.27,1.71.39,2.62l.18,1.31.12.9c.07.61.14,1.23.21,1.87,0,.31.07.63.1,1s.09.93.13,1.4Z"/></g><g id="gold"><path class="cls-6" d="M15.67,1.5a2.44,2.44,0,0,0-2,1.08C9.56,8.75,7.74,21.9,7.53,37.33c0,.5,0,1,0,1.5H22.89l0-1.5c.35-16,2.38-29.73,7.16-35.83Zm5.74,35.83H9c.24-16.52,2.31-28.54,5.86-33.92A.92.92,0,0,1,15.67,3H27.32C23.75,9.51,21.77,21,21.41,37.33Z"/><path class="cls-5" d="M31.43.85A1.52,1.52,0,0,0,30.08,0H15.67a3.94,3.94,0,0,0-3.3,1.76C7.46,9.2,6.19,25,6,37.43c0,.47,0,.93,0,1.39A.57.57,0,0,0,6,39a1.46,1.46,0,0,0,.42.94,1.52,1.52,0,0,0,1.07.44H22.89a1.5,1.5,0,0,0,1.5-1.47v0l0-1.5c.39-17.59,2.74-29.63,6.81-34.86l0,0A1.51,1.51,0,0,0,31.43.85ZM9,37.33c.24-16.52,2.31-28.54,5.86-33.92A.92.92,0,0,1,15.67,3H27.32c-3.57,6.51-5.55,18-5.91,34.33Z"/><path class="cls-7" d="M20.92,3c-5,9.53-7.2,21.29-7.74,34.33H9c.24-16.52,2.31-28.54,5.86-33.92A.92.92,0,0,1,15.67,3Z"/><path class="cls-8" d="M135.43,37.33c-.21-15.31-2-28.37-6-34.6a2.73,2.73,0,0,0-2.31-1.23H112.87c4.79,6.1,6.81,19.85,7.16,35.83l0,1.5h15.39C135.45,38.33,135.44,37.83,135.43,37.33Zm-13.9,0C121.17,21,119.19,9.5,115.63,3h11.48a1.23,1.23,0,0,1,1,.54c3.5,5.45,5.54,17.42,5.78,33.79Z"/><path class="cls-5" d="M136.94,37.37C136.76,25,135.5,9.42,130.68,1.92A4.22,4.22,0,0,0,127.11,0H112.87a1.49,1.49,0,0,0-1.35.85,1.47,1.47,0,0,0,.12,1.51l0,.07c4.08,5.2,6.45,17.26,6.84,34.9l0,1.5v0a1.5,1.5,0,0,0,1.5,1.47h15.39a1.5,1.5,0,0,0,1.06-.44,1.48,1.48,0,0,0,.43-1,.13.13,0,0,0,0-.06C137,38.34,136.94,37.86,136.94,37.37ZM127.11,3a1.23,1.23,0,0,1,1,.54c3.5,5.45,5.54,17.42,5.78,33.79h-12.4C121.17,21,119.19,9.5,115.63,3Z"/><path class="cls-6" d="M133.93,37.33h-5.29c0-13-1.24-25.25-7.36-34.33h5.83a1.23,1.23,0,0,1,1,.54C131.65,9,133.69,21,133.93,37.33Z"/><path class="cls-6" d="M140.45,41.59a4.42,4.42,0,0,0-4.14-2.76H7.17A5.62,5.62,0,0,0,1.54,44c-.29,4.09,1.19,9,2.56,9H138.52C141.21,53,142.19,46,140.45,41.59ZM7.17,40.33H136.31a2.93,2.93,0,0,1,2.74,1.81,11.33,11.33,0,0,1,.55,2c-.75-1.32-2.15-1.73-3.83-1.83H6.32c-1.72,0-2.81.61-3.29,1.84A4.12,4.12,0,0,1,7.17,40.33Z"/><path class="cls-5" d="M141.84,41.05a5.88,5.88,0,0,0-4.9-3.68,4.44,4.44,0,0,0-.63,0H7.17a6.23,6.23,0,0,0-1.15.1,7.09,7.09,0,0,0-6,6.48C-.22,47.57.82,52,2.32,53.62a2.41,2.41,0,0,0,1.78.85H138.52a3.41,3.41,0,0,0,2.81-1.65C143.1,50.22,143.34,44.83,141.84,41.05ZM139,50.87c-.25.46-1.12.59-1.16.6H4.42c-.6-.79-1.62-4-1.39-7.36a4.12,4.12,0,0,1,4.14-3.78H136.31a2.93,2.93,0,0,1,2.74,1.81,11.33,11.33,0,0,1,.55,2h0A11.78,11.78,0,0,1,139,50.87Z"/><path class="cls-7" d="M139.6,44.1c-.75-1.32-2.15-1.73-3.83-1.83H6.32c-1.72,0-2.81.61-3.29,1.84a4.12,4.12,0,0,1,4.14-3.78H136.31a2.93,2.93,0,0,1,2.74,1.81A11.33,11.33,0,0,1,139.6,44.1Z"/><path class="cls-9" d="M113.46,1.81q-1.18-2.34-2.39,2.4"/><path class="cls-9" d="M29.36,1.81q1.2-2.34,2.4,2.4"/><path class="cls-6" d="M139.6,44.1H3c.48-1.23,1.57-1.83,3.29-1.84H135.77C137.45,42.37,138.85,42.78,139.6,44.1Z"/><path class="cls-6" d="M27.32,3c-3.57,6.51-5.55,18-5.91,34.33H13.18c.54-13,2.72-24.8,7.74-34.33Z"/><path class="cls-7" d="M128.64,37.33h-7.11C121.17,21,119.19,9.5,115.63,3h5.65C127.4,12.08,128.65,24.3,128.64,37.33Z"/></g><g id="fg"><path class="cls-10" d="M56.12,61.85h6.64v8.79H80.65V61.85h7.29V50.32c0-17.78-31.82-17.78-31.82,0Z"/><line class="cls-11" x1="68.68" y1="61.39" x2="68.68" y2="70.64"/><line class="cls-11" x1="74.73" y1="61.39" x2="74.73" y2="70.64"/><rect class="cls-12" x="62.2" y="48.5" width="8.23" height="8.23" rx="2.59"/><rect class="cls-12" x="73" y="48.5" width="8.23" height="8.23" rx="2.59"/><path class="cls-13" d="M69.47,40.66c-3.8-.64-7.78.86-8.51,4.22a.39.39,0,0,0,.63.38,34,34,0,0,1,7.94-3.79A.42.42,0,0,0,69.47,40.66Z"/><path class="cls-14" d="M69.21,54.1a.55.55,0,0,1,.51.77A2.35,2.35,0,0,1,68,56.22H65a2.15,2.15,0,0,1-1.86-1.35.56.56,0,0,1,.52-.77Z"/><path class="cls-14" d="M79.88,54.1a.55.55,0,0,1,.51.77,2.35,2.35,0,0,1-1.72,1.35h-3a2.13,2.13,0,0,1-1.85-1.35.55.55,0,0,1,.51-.77Z"/><line class="cls-3" x1="62.96" y1="54.1" x2="62.95" y2="54.1"/></g></g></g></g></svg>